<svg xmlns="http://www.w3.org/2000/svg" viewBox="0 0 28 28"><defs><style>.cls-1{fill-rule:evenodd;}</style></defs><g id="레이어_2" data-name="레이어 2"><g id="Layer_1" data-name="Layer 1"><path d="M18.77,15.64a1,1,0,1,0-1.54-1.28l-4.35,5.22-2.23-1.92a1,1,0,1,0-1.3,1.51l3,2.59a1,1,0,0,0,1.42-.12Z"/><path class="cls-1" d="M9,1A1,1,0,0,0,7,1V2H5A5,5,0,0,0,0,7V23a5,5,0,0,0,5,5H23a5,5,0,0,0,5-5V7a5,5,0,0,0-5-5H21V1a1,1,0,0,0-2,0V2H9ZM5,4H7V5A1,1,0,0,0,9,5V4H19V5a1,1,0,0,0,2,0V4h2a3,3,0,0,1,3,3V9H2V7A3,3,0,0,1,5,4ZM2,11H26V23a3,3,0,0,1-3,3H5a3,3,0,0,1-3-3Z"/></g></g></svg>