<svg xmlns="http://www.w3.org/2000/svg" viewBox="0 0 28.04 28.03"><defs><style>.cls-1{fill-rule:evenodd;}</style></defs><g id="레이어_2" data-name="레이어 2"><g id="Layer_1" data-name="Layer 1"><path d="M18.79,10.65a1,1,0,0,0-1.54-1.28L12.9,14.59l-2.23-1.91a1,1,0,0,0-1.41.09,1,1,0,0,0,.1,1.42l3,2.58a1,1,0,0,0,.74.24,1,1,0,0,0,.69-.36Z"/><path class="cls-1" d="M17.31,2.18a3.58,3.58,0,0,0-6.59,0l-.21.49a1.57,1.57,0,0,1-2,.83L8,3.32A3.57,3.57,0,0,0,3.31,8l.2.5a1.58,1.58,0,0,1-.84,2l-.5.21a3.59,3.59,0,0,0,0,6.59l.5.2a1.59,1.59,0,0,1,.84,2.06l-.2.5A3.58,3.58,0,0,0,8,24.71l.5-.19a1.58,1.58,0,0,1,2,.84l.21.49a3.58,3.58,0,0,0,6.59,0l.21-.49a1.6,1.6,0,0,1,2.05-.84l.49.19a3.57,3.57,0,0,0,4.66-4.64l-.2-.5a1.6,1.6,0,0,1,.85-2.06l.49-.2a3.58,3.58,0,0,0,0-6.59l-.49-.21a1.59,1.59,0,0,1-.85-2l.2-.5a3.57,3.57,0,0,0-4.66-4.64l-.49.18a1.58,1.58,0,0,1-2.05-.83ZM12.56,3a1.59,1.59,0,0,1,2.91,0l.21.5a3.59,3.59,0,0,0,4.63,1.91l.5-.19a1.58,1.58,0,0,1,2.06,2.05l-.2.5a3.57,3.57,0,0,0,1.91,4.62l.49.22a1.58,1.58,0,0,1,0,2.91l-.49.22a3.56,3.56,0,0,0-1.91,4.62l.2.5a1.58,1.58,0,0,1-2.06,2.05l-.5-.19a3.59,3.59,0,0,0-4.63,1.91l-.21.5a1.59,1.59,0,0,1-2.91,0l-.21-.5a3.58,3.58,0,0,0-4.63-1.91l-.49.19a1.58,1.58,0,0,1-2.06-2.05l.2-.5a3.58,3.58,0,0,0-1.92-4.62L3,15.47a1.58,1.58,0,0,1,0-2.91l.49-.22A3.58,3.58,0,0,0,5.37,7.72l-.2-.5a1.58,1.58,0,0,1,2.06-2l.49.19a3.58,3.58,0,0,0,4.63-1.91Z"/></g></g></svg>