<svg xmlns="http://www.w3.org/2000/svg" viewBox="0 0 28 28"><g id="레이어_2" data-name="레이어 2"><g id="Layer_1" data-name="Layer 1"><path d="M5,0A5,5,0,0,0,0,5V7A1,1,0,0,0,2,7V5A3,3,0,0,1,5,2H7A1,1,0,0,0,7,0Z"/><path d="M23,0a5,5,0,0,1,5,5V7a1,1,0,0,1-2,0V5a3,3,0,0,0-3-3H21a1,1,0,0,1,0-2Z"/><path d="M0,23a5,5,0,0,0,5,5H7a1,1,0,0,0,0-2H5a3,3,0,0,1-3-3V21a1,1,0,0,0-2,0Z"/><path d="M23,28a5,5,0,0,0,5-5V21a1,1,0,0,0-2,0v2a3,3,0,0,1-3,3H21a1,1,0,0,0,0,2Z"/><path d="M10,8a1,1,0,0,1,1,1v3a1,1,0,0,1-2,0V9A1,1,0,0,1,10,8Z"/><path d="M18,8a1,1,0,0,1,1,1v3a1,1,0,0,1-2,0V9A1,1,0,0,1,18,8Z"/><path d="M14,22a8.24,8.24,0,0,0,5.7-2.28,1,1,0,0,0-1.4-1.44,6.23,6.23,0,0,1-8.6,0,1,1,0,0,0-1.4,1.44A8.24,8.24,0,0,0,14,22Z"/></g></g></svg>