<svg xmlns="http://www.w3.org/2000/svg"  viewBox="0 0 48 48" width="48px" height="48px"><path fill="#f55376" d="M38.18,32.1c-2.994,2.994-6.887,4.543-10.81,4.647c-4.204,0.111-16.409-12.094-16.298-16.298 c0.103-3.923,1.652-7.816,4.647-10.81c6.203-6.203,16.259-6.203,22.462,0S44.383,25.897,38.18,32.1z"/><rect width="7.917" height="13.167" x="9.204" y="28.3" fill="#f5bc00" transform="rotate(45.001 13.163 34.883)"/><path fill="#f5bc00" d="M11.086,20.449c-0.111,4.204,1.424,8.443,4.632,11.651c3.208,3.208,7.447,4.743,11.651,4.632 L11.086,20.449z"/><circle cx="18" cy="8" r="6" fill="#7debf5"/><path fill="#00b3d7" d="M13.675,12.142c0.03,0.032,0.051,0.069,0.082,0.101c2.343,2.343,6.142,2.343,8.485,0 c1.852-1.852,2.216-4.603,1.141-6.836c-2.808,0.644-5.479,2.044-7.666,4.232C14.939,10.417,14.258,11.257,13.675,12.142z"/></svg>