<?xml version="1.0"?><svg fill="#000000" xmlns="http://www.w3.org/2000/svg"  viewBox="0 0 24 24" width="24px" height="24px">    <path d="M 8.0292969 3 C 7.3832969 3 6.7773437 3.3118906 6.4023438 3.8378906 L 2.5644531 9.2089844 C 2.3274531 9.5399844 2.5656562 10 2.9726562 10 L 3 10 L 3 20 A 1.0001 1.0001 0 0 0 4 21 L 20 21 A 1.0001 1.0001 0 0 0 21 20 L 21 10 L 21.027344 10 C 21.434344 10 21.672547 9.5399844 21.435547 9.2089844 L 17.597656 3.8378906 C 17.222656 3.3128906 16.616703 3 15.970703 3 L 8.0292969 3 z M 8.5 5.0996094 L 11.402344 9.1621094 C 11.777344 9.6881094 12.383297 10 13.029297 10 L 19 10 L 19 19 L 11 19 L 11 14 C 11 13.448 10.552 13 10 13 L 8 13 C 7.448 13 7 13.448 7 14 L 7 19 L 5 19 L 5 10 L 8.5 5.0996094 z M 14 13 C 13.448 13 13 13.448 13 14 L 13 16 C 13 16.552 13.448 17 14 17 L 16 17 C 16.552 17 17 16.552 17 16 L 17 14 C 17 13.448 16.552 13 16 13 L 14 13 z"/></svg>