<svg xmlns="http://www.w3.org/2000/svg"  viewBox="0 0 48 48" width="48px" height="48px"><path fill="#4dd0e1" d="M34,10c-7.7,0-14,6.3-14,14s6.3,14,14,14s14-6.3,14-14S41.7,10,34,10z"/><path fill="#b2ebf2" d="M34.04,15c-4.971,0-9,4.029-9,9s4.029,9,9,9s9-4.029,9-9S39.011,15,34.04,15z"/><circle cx="34" cy="24" r="4" fill="#2100c4"/><polygon fill="#6c19ff" points="10.003,44.9 4.034,26 0,26 0,22 6.966,22 9.997,31.6 18.996,3.023 26.838,22 34,22 34,26 24.162,26 19.504,14.727"/><path fill="#2100c4" d="M21.097,18.584L24.162,26H34v-4h-7.162l-3.092-7.484C22.645,15.704,21.737,17.072,21.097,18.584z"/></svg>