<svg xmlns="http://www.w3.org/2000/svg"  viewBox="0 0 48 48" width="48px" height="48px"><path fill="#f5bc00" d="M44,24c0,0.68-0.03,1.34-0.1,2c-0.36,3.63-1.69,6.97-3.73,9.76c-0.78,1.09-1.68,2.09-2.67,2.99 c-3.1,2.84-7.09,4.71-11.5,5.15c-0.66,0.07-1.32,0.1-2,0.1s-1.34-0.03-2-0.1c-4.18-0.42-7.98-2.12-11-4.71 c-1.02-0.86-1.95-1.84-2.77-2.9C5.96,33.39,4.48,29.86,4.1,26C4.03,25.34,4,24.68,4,24s0.03-1.34,0.1-2 c0.38-3.86,1.86-7.39,4.13-10.29c0.82-1.06,1.75-2.04,2.77-2.9c3.02-2.59,6.82-4.29,11-4.71C22.66,4.03,23.32,4,24,4 s1.34,0.03,2,0.1c4.41,0.44,8.4,2.31,11.5,5.15c0.99,0.9,1.89,1.9,2.67,2.99c2.04,2.79,3.37,6.13,3.73,9.76 C43.97,22.66,44,23.32,44,24z"/><path fill="#eb7900" d="M26,4.1v39.8c-0.66,0.07-1.32,0.1-2,0.1s-1.34-0.03-2-0.1V4.1C22.66,4.03,23.32,4,24,4 S25.34,4.03,26,4.1z"/><path fill="#eb7900" d="M44,24c0,0.68-0.03,1.34-0.1,2H4.1C4.03,25.34,4,24.68,4,24s0.03-1.34,0.1-2h39.8 C43.97,22.66,44,23.32,44,24z"/><path fill="#eb7900" d="M35,24c0-0.68,0.04-1.35,0.13-2c0.48-3.84,2.33-7.26,5.04-9.76c-0.78-1.09-1.68-2.09-2.67-2.99 c-3.53,3.23-5.9,7.72-6.4,12.75c-0.07,0.66-0.1,1.32-0.1,2s0.03,1.34,0.1,2c0.5,5.03,2.87,9.52,6.4,12.75 c0.99-0.9,1.89-1.9,2.67-2.99c-2.71-2.5-4.56-5.92-5.04-9.76C35.04,25.35,35,24.68,35,24z"/><path fill="#eb7900" d="M17.9,22c-0.52-5.26-3.1-9.93-6.9-13.19c-1.02,0.86-1.95,1.84-2.77,2.9 c3.04,2.53,5.13,6.17,5.64,10.29c0.09,0.65,0.13,1.32,0.13,2s-0.04,1.35-0.13,2c-0.51,4.12-2.6,7.76-5.64,10.29 c0.82,1.06,1.75,2.04,2.77,2.9c3.8-3.26,6.38-7.93,6.9-13.19c0.07-0.66,0.1-1.32,0.1-2S17.97,22.66,17.9,22z"/></svg>