<svg xmlns="http://www.w3.org/2000/svg"  viewBox="0 0 48 48" width="48px" height="48px"><path fill="#f55376" d="M42,23.993c0,9.941-8.06,18-18,18c-9.94,0-18-8.059-18-18c0-9.941,8.06-18,18-18 C33.94,5.993,42,14.052,42,23.993"/><polygon fill="#fa91ad" points="26.57,30.392 22,25.822 22,14.993 26,14.993 26,24.165 29.398,27.563"/><path fill="#f5bc00" d="M12.301,5.952c-3.343,2.172-6.04,5.242-7.756,8.879l3.166,1.493 c1.435-3.042,3.698-5.618,6.497-7.437L12.301,5.952"/><path fill="#eb0000" d="M14.208,8.888c-2.799,1.818-5.062,4.395-6.497,7.437l3.166,1.493 c1.153-2.447,2.981-4.529,5.238-5.995L14.208,8.888"/><path fill="#f5bc00" d="M35.699,5.952l-1.907,2.935c2.8,1.818,5.062,4.394,6.497,7.437l3.166-1.493h0 C41.739,11.194,39.041,8.124,35.699,5.952"/><path fill="#eb0000" d="M33.792,8.887l-1.907,2.935c2.257,1.465,4.085,3.547,5.238,5.995l3.166-1.493 C38.854,13.282,36.592,10.706,33.792,8.887"/><path fill="#f5bc00" d="M11.152,36.6l-2.363,2.944l3.119,2.504l2.344-2.92C13.126,38.401,12.087,37.552,11.152,36.6"/><path fill="#f5bc00" d="M36.848,36.6c-0.935,0.952-1.974,1.801-3.1,2.528l2.344,2.92l3.119-2.504L36.848,36.6"/></svg>