<svg xmlns="http://www.w3.org/2000/svg"  viewBox="0 0 48 48" width="48px" height="48px"><polygon fill="#ff3d00" points="32.889,4 15.111,4 4,15.111 4,32.889 15.111,44 32.889,44 44,32.889 44,15.111"/><polygon fill="#fac8d5" points="15.5,18 15.5,20 18,20 18,30 20,30 20,20 22.5,20 22.5,18"/><path fill="#fac8d5" d="M36,18h-3v12h2v-4h1c2.206,0,4-1.794,4-4S38.206,18,36,18z M36,24h-1v-4h1c1.103,0,2,0.897,2,2	S37.103,24,36,24z"/><path fill="#fac8d5" d="M29,30h-3c-1.103,0-2-0.897-2-2v-8c0-1.103,0.897-2,2-2h3c1.103,0,2,0.897,2,2v8 C31,29.103,30.103,30,29,30z M26,20v8h3.001L29,20H26z"/><rect width="2" height="2" x="18" y="18" fill="#fff"/><rect width="2" height="2" x="33" y="18" fill="#fff"/><rect width="2" height="2" x="33" y="24" fill="#fff"/><path fill="#fac8d5" d="M11.484,23.001L11.484,23.001C10.666,23,10,22.334,10,21.484C10,20.666,10.666,20,11.484,20h2.433v-2	h-2.433C9.563,18,8,19.563,8,21.516c0,1.899,1.527,3.448,3.433,3.484V25c0.818,0,1.484,0.666,1.484,1.516	c0,0.818-0.666,1.484-1.484,1.484H9v2h2.433c1.921,0,3.484-1.563,3.484-3.516C14.917,24.585,13.39,23.037,11.484,23.001z"/></svg>