<svg xmlns="http://www.w3.org/2000/svg"  viewBox="0 0 48 48" width="48px" height="48px"><rect width="29.634" height="10" x="5.429" y="17.663" fill="#f5bc00" transform="rotate(-59.966 20.247 22.664)"/><rect width="30.478" height="9.816" x="11.504" y="24.725" fill="#3ddab4" transform="rotate(-27.231 26.74 29.631)"/><rect width="30.34" height="10" x="14.66" y="33.997" fill="#6c19ff"/><rect width="10" height="30" x="6" y="5" fill="#f55376"/><polygon fill="#2100c4" points="29.042,33.997 15.834,33.997 15.834,41"/><polygon fill="#00b569" points="24.493,25.326 8.091,33.555 7.109,35.255 8.364,38.182 14,41 14.366,41.48 15.85,40.377"/><polygon fill="#eb7900" points="16,35 16,19.856 7.257,35"/><rect width="10" height="10" x="6" y="33.997" fill="#c2ffff"/><path fill="#00b3d7" d="M11,37.66c-0.552,0-1,0.448-1,1s0.448,1,1,1s1-0.448,1-1S11.552,37.66,11,37.66z"/></svg>