<svg xmlns="http://www.w3.org/2000/svg"  viewBox="0 0 48 48" width="48px" height="48px"><path fill="#f55376" d="M30.616,17.903c-2.61,0-4.957,1.105-6.616,2.866c-1.659-1.761-4.006-2.866-6.616-2.866 c-5.024,0-9.097,4.073-9.097,9.097s4.073,9.097,9.097,9.097c2.61,0,4.957-1.105,6.616-2.866c1.659,1.761,4.006,2.866,6.616,2.866 c5.024,0,9.097-4.073,9.097-9.097S35.64,17.903,30.616,17.903z"/><polygon fill="#f5bc00" points="27,7 25,7 25,5 23,5 23,7 21,7 21,9 23,9 23,15 25,15 25,9 27,9"/><circle cx="24" cy="16.873" r="4.386" fill="#f5bc00"/><path fill="#f5bc00" d="M33,38c7.168,0,13-5.832,13-13s-5.832-13-13-13c-4.224,0-8.199,2.07-10.637,5.538l3.273,2.3 C27.325,17.435,30.078,16,33,16c4.963,0,9,4.038,9,9s-4.037,9-9,9V38z"/><rect width="38" height="10" x="5" y="33" fill="#f5bc00"/><path fill="#f5bc00" d="M15,38C7.832,38,2,32.168,2,25s5.832-13,13-13c4.224,0,8.199,2.07,10.637,5.538l-3.273,2.3 C20.675,17.435,17.922,16,15,16c-4.963,0-9,4.038-9,9s4.037,9,9,9V38z"/><path fill="#f5bc00" d="M22,18h4v18h-4V18z"/><circle cx="24" cy="38.99" r="2.988" fill="#7800df"/><circle cx="33" cy="39" r="2" fill="#7800df"/><circle cx="15" cy="39" r="2" fill="#7800df"/><path fill="#eb7900" d="M25,12.612c-0.322-0.076-0.655-0.125-1-0.125s-0.678,0.05-1,0.125V15h2V12.612z"/><rect width="34" height="2" x="7" y="33" fill="#eb7900"/><path fill="#eb7900" d="M6.763,35H8.08l2.868-1.977c-0.017-0.009-0.035-0.015-0.052-0.023H5v0.295 C5.524,33.926,6.128,34.481,6.763,35z"/><path fill="#eb7900" d="M37.104,33c-0.017,0.009-0.035,0.015-0.052,0.023L39.92,35h1.317 c0.635-0.519,1.239-1.074,1.763-1.705V33H37.104z"/></svg>