<?xml version="1.0"?><svg fill="#000000" xmlns="http://www.w3.org/2000/svg"  viewBox="0 0 24 24" width="24px" height="24px">    <path d="M 19 3 A 2 2 0 0 0 17 5 A 2 2 0 0 0 17.181641 5.8242188 L 14.191406 10.009766 A 2 2 0 0 0 14 10 A 2 2 0 0 0 13.482422 10.068359 L 10.929688 7.515625 A 2 2 0 0 0 11 7 A 2 2 0 0 0 9 5 A 2 2 0 0 0 7 7 A 2 2 0 0 0 7.2070312 7.8847656 L 5.1269531 11.005859 A 2 2 0 0 0 5 11 A 2 2 0 0 0 3 13 A 2 2 0 0 0 5 15 A 2 2 0 0 0 7 13 A 2 2 0 0 0 6.7929688 12.115234 L 8.8730469 8.9941406 A 2 2 0 0 0 9 9 A 2 2 0 0 0 9.5175781 8.9316406 L 12.070312 11.484375 A 2 2 0 0 0 12 12 A 2 2 0 0 0 14 14 A 2 2 0 0 0 16 12 A 2 2 0 0 0 15.818359 11.173828 L 18.808594 6.9902344 A 2 2 0 0 0 19 7 A 2 2 0 0 0 21 5 A 2 2 0 0 0 19 3 z M 4 19 A 1.0001 1.0001 0 1 0 4 21 L 20 21 A 1.0001 1.0001 0 1 0 20 19 L 4 19 z"/></svg>