<svg xmlns="http://www.w3.org/2000/svg" xmlns:xlink="http://www.w3.org/1999/xlink" viewBox="0 0 235.55 239.69"><defs><style>.cls-1{fill:#ffe83e;}.cls-2{clip-path:url(#clip-path);}.cls-3{fill:#514338;}.cls-4{fill:#ffe3ca;}.cls-5{fill:#f2a5a5;}.cls-6{fill:#411c05;}.cls-7{fill:#c1272d;}.cls-8{fill:#1e1915;}</style><clipPath id="clip-path"><circle class="cls-1" cx="117.77" cy="117.77" r="117.77"/></clipPath></defs><g id="레이어_2" data-name="레이어 2"><g id="_C__1" data-name="©©C©₩[_1"><circle class="cls-1" cx="117.77" cy="117.77" r="117.77"/><g class="cls-2"><path class="cls-3" d="M192.13,78.58c19.31,33.79,10,91.7-9.71,115.49h-18c17.19-13.8,22.56-34.74,21-50.61a84.59,84.59,0,0,0-1.92-11.52h0c-1.18-5.49-2.57-7.68-2.57-7.68-10.33-4-23.32-4.4-23.32-4.4l-7.89-26.75-9.23,26.75s-47.21-.71-85.83,4.4A43.43,43.43,0,0,0,52,131.94a84.68,84.68,0,0,0-1.93,11.52c-1.46,15.21,3.41,35.07,18.95,48.85h-16C29.36,163.06,20.94,82.84,67,52.09c53.65-35.85,89.94.14,90.7,1.08h0s0,0,0,0A53.3,53.3,0,0,1,192.13,78.58Z"/><path class="cls-4" d="M143.14,205a91.58,91.58,0,0,1-50.71,0,61.37,61.37,0,0,1-23.38-12.72c-15.54-13.78-20.41-33.64-18.95-48.85A84.68,84.68,0,0,1,52,131.94a43.43,43.43,0,0,1,2.65-7.68c38.62-5.11,85.83-4.4,85.83-4.4l9.23-26.75,7.89,26.75s13,.39,23.32,4.4c0,0,1.39,2.19,2.57,7.68h0a84.59,84.59,0,0,1,1.92,11.52c1.53,15.87-3.84,36.81-21,50.61h0A62.08,62.08,0,0,1,143.14,205Zm10.77-60.09c0-4.17-2.61-7.54-5.83-7.54s-5.83,3.37-5.83,7.54,2.61,7.55,5.83,7.55S153.91,149.11,153.91,144.94Zm-60.61,0c0-4.17-2.61-7.54-5.83-7.54s-5.83,3.37-5.83,7.54,2.61,7.55,5.83,7.55S93.3,149.11,93.3,144.94Z"/><path class="cls-5" d="M172.14,239.69H63.41c0-9.42,10-31.08,29-34.66a91.58,91.58,0,0,0,50.71,0C162.13,208.63,172.14,230.27,172.14,239.69Z"/><path class="cls-6" d="M148.08,137.4c3.22,0,5.83,3.37,5.83,7.54s-2.61,7.55-5.83,7.55-5.83-3.38-5.83-7.55S144.86,137.4,148.08,137.4Z"/><path class="cls-6" d="M87.47,137.4c3.22,0,5.83,3.37,5.83,7.54s-2.61,7.55-5.83,7.55-5.83-3.38-5.83-7.55S84.25,137.4,87.47,137.4Z"/><path class="cls-6" d="M118.88,165.06c-2.86,0-8.26-1.51-8.26-7.26s5.4-7.31,8.26-7.31a2,2,0,0,1,0,4c-.72,0-4.27.21-4.27,3.31s3.56,3.26,4.27,3.26a2,2,0,0,1,0,4Z"/><path class="cls-7" d="M117.78,188.58c-18.85,0-24.34-12-24.56-12.54a2,2,0,1,1,3.66-1.61c.18.41,4.78,10.15,20.9,10.15s20.71-9.75,20.9-10.16a2,2,0,0,1,3.66,1.62C142.11,176.55,136.62,188.58,117.78,188.58Z"/><path class="cls-8" d="M86.68,118.93a2,2,0,0,1-2-2c0-7.08,4.48-22.3,10.91-32.81A2,2,0,1,1,99,86.2c-6.39,10.46-10.32,25-10.32,30.73A2,2,0,0,1,86.68,118.93Z"/><path class="cls-8" d="M70.92,119.86a2,2,0,0,1-2-2c-.1-5,1.87-18,7.11-27.05a2,2,0,0,1,3.46,2c-4.78,8.22-6.66,20.5-6.57,25a2,2,0,0,1-2,2Z"/></g></g></g></svg>