<svg xmlns="http://www.w3.org/2000/svg" xmlns:xlink="http://www.w3.org/1999/xlink" viewBox="0 0 235.55 239.69"><defs><style>.cls-1{fill:#f98a8a;}.cls-2{clip-path:url(#clip-path);}.cls-3{fill:#8c6239;}.cls-4{fill:#f4cfb0;}.cls-5{fill:#563821;}.cls-6{fill:#ffe3ca;}.cls-7{fill:#f4e347;}.cls-8{fill:#411c05;}.cls-9{fill:#c1272d;}</style><clipPath id="clip-path"><circle class="cls-1" cx="117.77" cy="117.77" r="117.77"/></clipPath></defs><g id="레이어_2" data-name="레이어 2"><g id="_C__1" data-name="©©C©₩[_1"><circle class="cls-1" cx="117.77" cy="117.77" r="117.77"/><g class="cls-2"><path class="cls-3" d="M199.83,74.83c3.33,3.73,14.09,4.29,14.09,4.29s-8.76,13.14-21.08,10.07a48,48,0,0,0-10.39-19C172.14,59.1,160.61,58,160.61,58a38.69,38.69,0,0,0-7.17-7.88l1.38-.23c9.58-15.84,32.5-14.45,41-2.05C205.46,62,192.32,66.42,199.83,74.83Z"/><path class="cls-4" d="M201.9,151.08c.38,6-2.83,18.95-19.45,17a59.77,59.77,0,0,0,3-24.67c-.14-1.44-.32-2.93-.55-4.45a12.92,12.92,0,0,1,7.29-.07C198.08,140.67,201.62,146.66,201.9,151.08Z"/><path class="cls-3" d="M192.84,89.19c5.25,17.32,3.72,38-.65,49.75a12.92,12.92,0,0,0-7.29.07c-.35-2.29-.8-4.66-1.38-7.07-6.44-27.95-21.11-43.73-21.11-43.73s-32.63,18.33-85.24,19.34c1.3-7,3.79-24.38-2.85-25.88s-11.46,18.17-13,25.65h0l-3.26-.17c-4.08,7.9-6.45,23.3-7.48,31.84a12.88,12.88,0,0,0-7.23-.05c-4.72-9.88-5.24-31.45,2.83-52,5.7-14.55,15.67-28.61,31.46-37.74,12-6.94,27.42-11,46.87-10.27a46.48,46.48,0,0,1,28.92,11.2A38.69,38.69,0,0,1,160.61,58s11.53,1.14,21.84,12.18A48,48,0,0,1,192.84,89.19Z"/><path class="cls-5" d="M192.84,91.19a2,2,0,0,1-1.92-1.42c-2.25-7.48-5.6-13.62-9.93-18.26C171.3,61.14,160.52,60,160.41,60a2,2,0,0,1-1.5-.93,37.43,37.43,0,0,0-6.77-7.42,2,2,0,1,1,2.6-3,44,44,0,0,1,7,7.54c3.1.54,13,2.94,22.14,12.67,4.76,5.09,8.41,11.77,10.84,19.84a2,2,0,0,1-1.33,2.49A2,2,0,0,1,192.84,91.19Z"/><path class="cls-6" d="M50.59,139c1-8.54,3.4-23.94,7.48-31.84l3.26.17h0c-.36,1.73-.54,2.81-.54,2.81a43.48,43.48,0,0,0,15.77.38s.26-1.13.59-3h0c52.61-1,85.24-19.34,85.24-19.34s14.67,15.78,21.11,43.73c.58,2.41,1,4.78,1.38,7.07.23,1.52.41,3,.55,4.45a59.77,59.77,0,0,1-3,24.67c-5.25,15.41-17.32,30.29-39.32,36.9h0a91.51,91.51,0,0,1-50.69,0c-22-6.61-34.08-21.49-39.33-36.9a59.77,59.77,0,0,1-3-24.67C50.2,142.4,50.36,140.86,50.59,139Zm103.32,5.95c0-4.17-2.61-7.54-5.83-7.54s-5.83,3.37-5.83,7.54,2.61,7.55,5.83,7.55S153.91,149.11,153.91,144.94Zm-60.61,0c0-4.17-2.61-7.54-5.83-7.54s-5.83,3.37-5.83,7.54,2.61,7.55,5.83,7.55S93.3,149.11,93.3,144.94Z"/><path class="cls-7" d="M172.14,239.69H63.41c0-9.42,10-31.08,29-34.66a91.51,91.51,0,0,0,50.69,0h0C162.12,208.62,172.14,230.27,172.14,239.69Z"/><path class="cls-8" d="M148.08,137.4c3.22,0,5.83,3.37,5.83,7.54s-2.61,7.55-5.83,7.55-5.83-3.38-5.83-7.55S144.86,137.4,148.08,137.4Z"/><path class="cls-8" d="M87.47,137.4c3.22,0,5.83,3.37,5.83,7.54s-2.61,7.55-5.83,7.55-5.83-3.38-5.83-7.55S84.25,137.4,87.47,137.4Z"/><path class="cls-3" d="M76.44,47.1l1.21,2C61.86,58.28,51.89,72.34,46.19,86.89l-3,.81c-12.32,3.06-21.55-8.58-21.55-8.58s10.76-.56,14.09-4.29c7.51-8.41-5.63-12.79,4.06-27C48.23,35.4,67.5,33.9,76.44,47.1Z"/><path class="cls-5" d="M46.19,88.89a2.08,2.08,0,0,1-.73-.13,2,2,0,0,1-1.13-2.6C51,69.2,62.15,55.81,76.65,47.42a2,2,0,0,1,2,3.47c-17.32,10-26.2,25.5-30.6,36.73A2,2,0,0,1,46.19,88.89Z"/><path class="cls-5" d="M57.26,101.25a2,2,0,1,1,0-4C80.41,97.25,134,82.13,146.84,72a2,2,0,0,1,2.48,3.14C135.05,86.39,79.14,101.25,57.26,101.25Z"/><path class="cls-5" d="M57.26,93.11a2,2,0,0,1-.14-4c20.57-1.47,73.54-28,84.2-40.27a2,2,0,1,1,3,2.63C132.06,65.6,77.62,91.67,57.4,93.11Z"/><path class="cls-7" d="M74.32,81.67c6.64,1.5,4.15,18.83,2.85,25.88h0c-.33,1.83-.59,3-.59,3a43.48,43.48,0,0,1-15.77-.38s.18-1.08.54-2.81C62.86,99.84,67.54,80.14,74.32,81.67Z"/><path class="cls-4" d="M53.1,168.13c-16.62,1.9-19.83-11-19.45-17,.28-4.42,3.82-10.41,9.71-12.14a12.88,12.88,0,0,1,7.23.05c-.23,1.87-.39,3.41-.49,4.47A59.77,59.77,0,0,0,53.1,168.13Z"/><path class="cls-8" d="M118.88,165.06c-2.86,0-8.26-1.51-8.26-7.26s5.4-7.31,8.26-7.31a2,2,0,0,1,0,4c-.72,0-4.27.21-4.27,3.31s3.55,3.26,4.27,3.26a2,2,0,0,1,0,4Z"/><path class="cls-9" d="M117.78,188.58c-18.85,0-24.34-12-24.56-12.54a2,2,0,1,1,3.66-1.61c.18.41,4.78,10.15,20.9,10.15s20.84-10.05,20.89-10.15a2,2,0,1,1,3.66,1.61C142.11,176.55,136.62,188.58,117.78,188.58Z"/><path class="cls-8" d="M154.82,120.76a2,2,0,0,1-1.15-.36,8.87,8.87,0,0,0-5-1.62,8.63,8.63,0,0,0-4,.93,2,2,0,1,1-1.76-3.59,12.72,12.72,0,0,1,5.81-1.34,12.91,12.91,0,0,1,7.2,2.34,2,2,0,0,1,.5,2.79A2,2,0,0,1,154.82,120.76Z"/><path class="cls-8" d="M80.73,120.76a2,2,0,0,1-1.64-.85,2,2,0,0,1,.49-2.79,12.69,12.69,0,0,1,13-1,2,2,0,1,1-1.76,3.59,8.78,8.78,0,0,0-4-.93,8.93,8.93,0,0,0-5,1.62A1.93,1.93,0,0,1,80.73,120.76Z"/></g></g></g></svg>