<svg xmlns="http://www.w3.org/2000/svg" xmlns:xlink="http://www.w3.org/1999/xlink" viewBox="0 0 235.55 246.36"><defs><style>.cls-1{fill:#79cfe2;}.cls-2{clip-path:url(#clip-path);}.cls-3{fill:#fff;}.cls-4{fill:#f4cfb0;}.cls-5{fill:#411c05;}.cls-6{fill:#ffe3ca;}.cls-7{fill:#acc673;}.cls-8{fill:#443826;}.cls-9{fill:#c1272d;}.cls-10{fill:#110b05;}</style><clipPath id="clip-path"><circle class="cls-1" cx="117.77" cy="117.77" r="117.77" transform="translate(-48.78 117.77) rotate(-45)"/></clipPath></defs><g id="레이어_2" data-name="레이어 2"><g id="_C__1_1_" data-name="©©C©₩[_1_1_"><circle class="cls-1" cx="117.77" cy="117.77" r="117.77" transform="translate(-48.78 117.77) rotate(-45)"/><g class="cls-2"><path class="cls-3" d="M127.76,135.74c2.17-7,8.49-12,20.38-12s18.36,5.1,20.46,12.21a20.53,20.53,0,0,1,.82,5.93c0,10-8.32,18.14-21.28,18.14s-21.28-8.12-21.28-18.14A20.55,20.55,0,0,1,127.76,135.74Zm26.14,6.2c0-4.16-2.61-7.54-5.83-7.54s-5.83,3.38-5.83,7.54,2.61,7.55,5.83,7.55S153.9,146.11,153.9,141.94Z"/><path class="cls-4" d="M182.45,136a11.66,11.66,0,0,1,8.2,1.45,14.11,14.11,0,0,1,6.59,10.69c.38,6-1.73,19.32-18.35,17.42l-.38-.14a64.76,64.76,0,0,0,3.94-22.12c0-1.9,0-4.43-.15-7.3Z"/><path class="cls-5" d="M148.07,134.4c3.22,0,5.83,3.38,5.83,7.54s-2.61,7.55-5.83,7.55-5.83-3.38-5.83-7.55S144.85,134.4,148.07,134.4Z"/><path class="cls-5" d="M87.47,134.4c3.22,0,5.83,3.38,5.83,7.54s-2.61,7.55-5.83,7.55-5.83-3.38-5.83-7.55S84.25,134.4,87.47,134.4Z"/><path class="cls-3" d="M107.78,135.74a20.55,20.55,0,0,1,.9,6.19c0,10-8.31,18.14-21.28,18.14S66.13,152,66.13,141.93a21,21,0,0,1,.81-5.94c2.11-7.1,8.43-12.2,20.46-12.2S105.61,128.77,107.78,135.74Zm-14.48,6.2c0-4.16-2.61-7.54-5.83-7.54s-5.83,3.38-5.83,7.54,2.61,7.55,5.83,7.55S93.3,146.11,93.3,141.94Z"/><path class="cls-6" d="M128.45,204.93l.21,1.5v6.5c-2.11,4.55-10.88,4.71-10.88,4.71s-8.77-.16-10.88-4.71v-6.5l.21-1.51a79.29,79.29,0,0,0,10.68.7A81.11,81.11,0,0,0,128.45,204.93Z"/><path class="cls-6" d="M182.3,136c.15,2.87.15,5.4.15,7.3a64.76,64.76,0,0,1-3.94,22.12c-7,19.13-23.31,36-50.06,39.56a81.11,81.11,0,0,1-10.68.69,79.29,79.29,0,0,1-10.68-.7c-26.7-3.56-42.61-20.52-49.67-39.7a71.53,71.53,0,0,1-4.33-22,51.38,51.38,0,0,1,.39-7.31l12.65-.18.81.23a21,21,0,0,0-.81,5.94c0,10,8.31,18.14,21.27,18.14s21.28-8.12,21.28-18.14a20.55,20.55,0,0,0-.9-6.19h20a20.55,20.55,0,0,0-.9,6.19c0,10,8.31,18.14,21.28,18.14s21.28-8.12,21.28-18.14a20.53,20.53,0,0,0-.82-5.93l.82-.24Z"/><path class="cls-7" d="M172.14,246.36H63.4c0-12.24,15.76-33.43,43.49-33.43,2.11,4.55,10.88,4.71,10.88,4.71s8.77-.16,10.88-4.71C156.38,212.93,172.14,234.12,172.14,246.36Z"/><path class="cls-4" d="M45.81,136.91a11.61,11.61,0,0,1,7.28-1h.39a51.38,51.38,0,0,0-.39,7.31,71.53,71.53,0,0,0,4.33,22l-.77.29c-16.62,1.9-18.73-11.4-18.35-17.42A14,14,0,0,1,45.81,136.91Z"/><path class="cls-8" d="M182.3,136c-.27-5.51-1.07-12.23-3.41-18-6.75-3.09-15.93-4.19-15.93-4.19L149.17,89l-13.65,24.83S95,113,57.76,118a69.59,69.59,0,0,0-4.28,18h-.39a11.61,11.61,0,0,0-7.28,1l-.22-1.23c-7.26-15.7-11.5-94.39,67.65-98.44,24.21-1.24,40.73,15,40.73,15s21,.91,34.19,24.84c11.37,20.68,8.13,48,2.53,60.22l0,.07a11.66,11.66,0,0,0-8.2-1.45Z"/><path class="cls-6" d="M178.89,118c2.34,5.75,3.14,12.47,3.41,18l-12.88-.19-.82.24c-2.1-7.11-8.43-12.21-20.46-12.21s-18.21,5-20.38,12h-20c-2.17-7-8.49-12-20.38-12s-18.35,5.1-20.46,12.2l-.81-.23-12.65.18a69.59,69.59,0,0,1,4.28-18c37.28-5,77.76-4.19,77.76-4.19L149.17,89,163,113.78S172.14,114.88,178.89,118Z"/><path class="cls-9" d="M117.77,185.59c-18.85,0-24.33-12-24.56-12.55a2,2,0,0,1,3.67-1.61c.18.41,4.77,10.16,20.89,10.16,16.27,0,20.86-10.06,20.9-10.16a2,2,0,1,1,3.67,1.61C142.11,173.55,136.62,185.59,117.77,185.59Z"/><path class="cls-5" d="M154.81,117.77a2,2,0,0,1-1.15-.36,8.82,8.82,0,0,0-4.95-1.62,8.65,8.65,0,0,0-4,.92,2,2,0,1,1-1.81-3.57,12.66,12.66,0,0,1,13,1,2,2,0,0,1,.47,2.79A2,2,0,0,1,154.81,117.77Z"/><path class="cls-8" d="M154,54.27a2,2,0,0,1-.48-.05A2,2,0,0,1,152,51.8c1.09-4.5,1.66-8.13-.79-13.95a2,2,0,0,1,3.69-1.55c2.91,6.91,2.17,11.54,1,16.44A2,2,0,0,1,154,54.27Z"/><path class="cls-8" d="M154,54.27a2,2,0,0,1-1.12-3.65c5.95-4,9.4-5.45,15.37-6.38a2,2,0,0,1,.61,3.95c-5.41.84-8.24,2-13.75,5.74A2,2,0,0,1,154,54.27Z"/><path class="cls-5" d="M118.87,162.07a2.15,2.15,0,0,1-.61-.09c-1.28-.42-7.65-2.71-7.65-7.18s6.36-6.78,7.64-7.21a2,2,0,0,1,1.25,3.8h0c-2.26.76-4.89,2.41-4.89,3.41s2.62,2.64,4.88,3.37a2,2,0,0,1-.62,3.9Z"/><path class="cls-5" d="M87.4,162.07c-13.48,0-23.27-8.47-23.27-20.14a22.64,22.64,0,0,1,.9-6.5h0c1.51-5.09,6.43-13.63,22.37-13.63,15.78,0,20.74,8.37,22.29,13.36a22.4,22.4,0,0,1,1,6.78C110.68,153.6,100.89,162.07,87.4,162.07ZM68.86,136.56a19,19,0,0,0-.73,5.37c0,9.36,8.11,16.14,19.27,16.14s19.28-6.78,19.28-16.14a18.67,18.67,0,0,0-.8-5.58c-2.15-6.91-8.54-10.56-18.48-10.56S71,129.52,68.86,136.56Z"/><path class="cls-5" d="M127.81,137.74h-20a2,2,0,0,1-2-2,2,2,0,0,1,2-2h20a2,2,0,0,1,2,2A2,2,0,0,1,127.81,137.74Z"/><path class="cls-5" d="M53.09,138a2,2,0,0,1-.05-4h.39l12.68-.18a2,2,0,0,1,2,2,2,2,0,0,1-2,2l-13,.19Z"/><path class="cls-5" d="M148.14,162.07c-13.49,0-23.28-8.47-23.28-20.14a22.51,22.51,0,0,1,1-6.79c1.55-5,6.51-13.35,22.28-13.35,16,0,20.87,8.55,22.38,13.64a22.54,22.54,0,0,1,.9,6.5C171.42,153.6,161.63,162.07,148.14,162.07Zm0-36.28c-9.93,0-16.32,3.65-18.47,10.55a18.46,18.46,0,0,0-.81,5.59c0,9.36,8.11,16.14,19.28,16.14s19.28-6.78,19.28-16.14a18.51,18.51,0,0,0-.73-5.35h0C164.6,129.52,158.19,125.79,148.14,125.79Z"/><path class="cls-5" d="M182.45,138h-.15l-12.91-.19a2,2,0,0,1,0-4h0l13,.19a2,2,0,0,1,0,4Z"/><path class="cls-10" d="M93,113.7a2,2,0,0,1-2-2c0-5.26,3.44-22.6,10.11-32.36a2,2,0,1,1,3.31,2.25C98.34,90.54,95,107,95,111.7A2,2,0,0,1,93,113.7Z"/><path class="cls-10" d="M75.61,115.26a2,2,0,0,1-2-2c0-6.61,3.23-20,6.66-24.64A2,2,0,1,1,83.49,91c-2.84,3.83-5.93,16.52-5.88,22.23a2,2,0,0,1-2,2Z"/></g></g></g></svg>