<svg xmlns="http://www.w3.org/2000/svg" xmlns:xlink="http://www.w3.org/1999/xlink" viewBox="0 0 235.55 239.69"><defs><style>.cls-1{fill:#f9d53d;}.cls-2{clip-path:url(#clip-path);}.cls-3{fill:#411c05;}.cls-4{fill:#f4cfb0;}.cls-5{fill:#ffe3ca;}.cls-6{fill:#8ebc71;}.cls-7{fill:#514533;}.cls-8{fill:#c1272d;}.cls-9{fill:#231b10;}</style><clipPath id="clip-path"><circle class="cls-1" cx="117.77" cy="117.77" r="117.77" transform="translate(-48.78 117.77) rotate(-45)"/></clipPath></defs><g id="레이어_2" data-name="레이어 2"><g id="_C__1_1_" data-name="©©C©₩[_1_1_"><circle class="cls-1" cx="117.77" cy="117.77" r="117.77" transform="translate(-48.78 117.77) rotate(-45)"/><g class="cls-2"><ellipse class="cls-3" cx="148.08" cy="144.94" rx="5.83" ry="7.55"/><path class="cls-4" d="M53.1,168.12c-16.62,1.91-19.83-11-19.45-17,.28-4.42,3.82-10.41,9.71-12.14a12.92,12.92,0,0,1,7.29.07c-.23,1.52-.41,3-.55,4.45A59.72,59.72,0,0,0,53.1,168.12Z"/><path class="cls-4" d="M201.9,151.08c.38,6-2.83,18.95-19.45,17a59.72,59.72,0,0,0,3-24.66c-.14-1.44-.32-2.93-.55-4.45a12.92,12.92,0,0,1,7.29-.07C198.09,140.67,201.63,146.66,201.9,151.08Z"/><path class="cls-5" d="M185.45,143.46a59.72,59.72,0,0,1-3,24.66c-5.25,15.41-17.31,30.3-39.32,36.91h0a91.51,91.51,0,0,1-50.69,0c-22-6.61-34.08-21.5-39.33-36.91a59.72,59.72,0,0,1-3-24.66c.14-1.44.32-2.93.55-4.45.35-2.29.8-4.66,1.38-7.07,1.07-8.79,6.13-18.42,6.13-18.42s34-7.45,81.58-6.6l11.55-18.84,8.88,18.84s13.06,1.77,17.31,4.11a108.27,108.27,0,0,1,6,20.91c.58,2.41,1,4.78,1.38,7.07C185.13,140.53,185.31,142,185.45,143.46Zm-31.54,1.48c0-4.17-2.61-7.55-5.83-7.55s-5.83,3.38-5.83,7.55,2.61,7.55,5.83,7.55S153.91,149.11,153.91,144.94Zm-60.61,0c0-4.17-2.61-7.55-5.83-7.55s-5.83,3.38-5.83,7.55,2.61,7.55,5.83,7.55S93.3,149.11,93.3,144.94Z"/><ellipse class="cls-3" cx="87.47" cy="144.94" rx="5.83" ry="7.55"/><path class="cls-6" d="M172.14,239.69H63.41c0-9.42,10-31.08,29-34.66a91.51,91.51,0,0,0,50.69,0h0C162.12,208.62,172.14,230.27,172.14,239.69Z"/><path class="cls-7" d="M82.57,47.75c43.9-22.11,74.35,7.85,74.35,7.85s18,2.9,30.13,25.27c15.74,29,5.14,58.07,5.14,58.07a12.92,12.92,0,0,0-7.29.07c-.35-2.29-.8-4.66-1.38-7.07a108.27,108.27,0,0,0-6-20.91c-4.25-2.34-17.31-4.11-17.31-4.11l-8.88-18.84-11.55,18.84c-47.57-.85-81.58,6.6-81.58,6.6S53.1,123.15,52,131.94c-.58,2.41-1,4.78-1.38,7.07a12.92,12.92,0,0,0-7.29-.07S21.65,78.43,82.57,47.75Z"/><path class="cls-3" d="M118.88,165.06c-2.86,0-8.26-1.51-8.26-7.26s5.4-7.31,8.26-7.31a2,2,0,0,1,0,4c-.72,0-4.27.21-4.27,3.31s3.56,3.26,4.27,3.26a2,2,0,0,1,0,4Z"/><path class="cls-8" d="M117.78,188.58c-18.85,0-24.34-12-24.56-12.54a2,2,0,1,1,3.66-1.61c.18.41,4.78,10.15,20.9,10.15s20.71-9.75,20.9-10.16a2,2,0,0,1,3.66,1.62C142.11,176.55,136.62,188.58,117.78,188.58Z"/><path class="cls-3" d="M154.82,120.76a2,2,0,0,1-1.15-.36,8.68,8.68,0,0,0-9-.69,2,2,0,1,1-1.76-3.59,12.67,12.67,0,0,1,13,1,2,2,0,0,1,.5,2.79A2,2,0,0,1,154.82,120.76Z"/><path class="cls-3" d="M80.73,120.76a2,2,0,0,1-1.15-3.63,12.9,12.9,0,0,1,7.21-2.35h.11a12.79,12.79,0,0,1,5.7,1.34,2,2,0,0,1-1.76,3.59,8.83,8.83,0,0,0-3.93-.93h-.07a9,9,0,0,0-5,1.62A2,2,0,0,1,80.73,120.76Z"/><path class="cls-7" d="M156.92,57.6a1.83,1.83,0,0,1-.33,0,2,2,0,0,1-1.65-2.3c.76-4.58,1.07-8.26-1.79-13.87a2,2,0,1,1,3.56-1.82c3.4,6.67,3,11.35,2.18,16.34A2,2,0,0,1,156.92,57.6Z"/><path class="cls-7" d="M156.92,57.6A2,2,0,0,1,155.68,54c5.66-4.45,9-6.12,14.87-7.48a2,2,0,0,1,.9,3.9c-5.33,1.23-8.06,2.61-13.3,6.73A2,2,0,0,1,156.92,57.6Z"/><path class="cls-9" d="M93.05,107.86h-.12a2,2,0,0,1-1.88-2.12c.61-10.57,4.79-23,11.45-34a2,2,0,1,1,3.43,2.07C99.59,84.31,95.62,96,95,106A2,2,0,0,1,93.05,107.86Z"/><path class="cls-9" d="M75,110.28a2,2,0,0,1-2-2c-.08-9,2.74-19.67,7.74-29.37a2,2,0,0,1,3.55,1.83C79.55,89.9,76.9,99.92,77,108.26a2,2,0,0,1-2,2Z"/></g></g></g></svg>