<svg xmlns="http://www.w3.org/2000/svg" xmlns:xlink="http://www.w3.org/1999/xlink" viewBox="0 0 235.55 246.36"><defs><style>.cls-1{fill:#fb3;}.cls-2{clip-path:url(#clip-path);}.cls-3{fill:#411c05;}.cls-4{fill:#ffe3ca;}.cls-5{fill:#563d2f;}.cls-6{fill:#66c466;}.cls-7{fill:#f4cfb0;}.cls-8{fill:#c1272d;}</style><clipPath id="clip-path"><circle class="cls-1" cx="117.77" cy="117.77" r="117.77" transform="translate(-48.78 117.77) rotate(-45)"/></clipPath></defs><g id="레이어_2" data-name="레이어 2"><g id="_C__1_1_" data-name="©©C©₩[_1_1_"><circle class="cls-1" cx="117.77" cy="117.77" r="117.77" transform="translate(-48.78 117.77) rotate(-45)"/><g class="cls-2"><path class="cls-3" d="M148.08,134.4c3.22,0,5.83,3.38,5.83,7.54s-2.61,7.55-5.83,7.55-5.83-3.38-5.83-7.55S144.86,134.4,148.08,134.4Z"/><path class="cls-3" d="M87.47,134.4c3.22,0,5.83,3.38,5.83,7.54s-2.61,7.55-5.83,7.55-5.83-3.38-5.83-7.55S84.25,134.4,87.47,134.4Z"/><path class="cls-4" d="M73.76,120.2c29.95-27.2,62.7-30.41,62.7-30.41S158,100,167.54,122c2.46-9.07-1.43-21.39-1.43-21.39s5.29-2.66,13.76,24.58A69.74,69.74,0,0,1,182,136a61.22,61.22,0,0,1,.44,7.25,65,65,0,0,1-3.93,22.12c-7,19.13-23.32,36-50.07,39.56a82.92,82.92,0,0,1-21.35,0C80.35,201.37,64,184.5,57,165.37a65,65,0,0,1-3.93-22.12,61.22,61.22,0,0,1,.44-7.25,71.79,71.79,0,0,1,3.11-14C65.78,97.58,79.3,93.18,79.3,93.18S74.54,102.33,73.76,120.2Zm80.15,21.74c0-4.16-2.61-7.54-5.83-7.54s-5.83,3.38-5.83,7.54,2.61,7.55,5.83,7.55S153.91,146.11,153.91,141.94Zm-60.61,0c0-4.16-2.61-7.54-5.83-7.54s-5.83,3.38-5.83,7.54,2.61,7.55,5.83,7.55S93.3,146.11,93.3,141.94Z"/><path class="cls-5" d="M153.91,52.34s21.74,3,32.05,15.56c11.83,14.35,13.78,32,18.61,41-8.74-3.61-12.22-3.53-12.22-3.53a66.6,66.6,0,0,1,8.15,12.38,106.54,106.54,0,0,0-9.87,19.67,11.65,11.65,0,0,0-8.18-1.44L182,136a69.74,69.74,0,0,0-2.14-10.81c-8.47-27.24-13.76-24.58-13.76-24.58S170,112.93,167.54,122c-9.57-22-31.08-32.21-31.08-32.21S103.71,93,73.76,120.2c.78-17.87,5.54-27,5.54-27S65.78,97.58,56.65,122a71.79,71.79,0,0,0-3.11,14L53.1,136a11.61,11.61,0,0,0-7.28,1l-.29-1.17a73.92,73.92,0,0,0-8.44-22.18C43,105.4,47.46,98.37,47.46,98.37a27,27,0,0,0-14,3.94c9.88-15.06,25.37-68,87-65.1C146.72,38.47,153.91,52.34,153.91,52.34Z"/><path class="cls-6" d="M172.14,246.36H63.41c0-12.24,15.76-33.43,43.48-33.43,2.12,4.55,10.89,4.71,10.89,4.71s8.76-.16,10.88-4.71C156.38,212.93,172.14,234.12,172.14,246.36Z"/><path class="cls-7" d="M53.54,136a61.22,61.22,0,0,0-.44,7.25A65,65,0,0,0,57,165.37l-.38.14c-16.61,1.9-18.72-11.4-18.35-17.42a14,14,0,0,1,7.52-11.18,11.61,11.61,0,0,1,7.28-1Z"/><path class="cls-7" d="M182.45,143.25A61.22,61.22,0,0,0,182,136l.44-.05a11.65,11.65,0,0,1,8.18,1.44,14.1,14.1,0,0,1,6.62,10.7c.37,6-1.73,19.32-18.35,17.42l-.38-.14A65,65,0,0,0,182.45,143.25Z"/><path class="cls-4" d="M128.66,206.43v6.5c-2.12,4.55-10.88,4.71-10.88,4.71s-8.77-.16-10.89-4.71v-6.5l.21-1.5a82.92,82.92,0,0,0,21.35,0Z"/><path class="cls-3" d="M118.88,162.07a2.21,2.21,0,0,1-.62-.09c-1.28-.42-7.64-2.71-7.64-7.18s6.36-6.78,7.63-7.21a2,2,0,0,1,1.26,3.8h0c-2.26.76-4.89,2.41-4.89,3.41s2.62,2.64,4.88,3.37a2,2,0,0,1-.62,3.9Z"/><path class="cls-8" d="M117.78,185.59c-18.85,0-24.34-12-24.56-12.55a2,2,0,1,1,3.66-1.61c.18.41,4.78,10.16,20.9,10.16s20.7-9.75,20.89-10.17a2,2,0,0,1,3.66,1.62C142.11,173.55,136.62,185.59,117.78,185.59Z"/><path class="cls-3" d="M154.82,117.77a2,2,0,0,1-1.15-.36,8.84,8.84,0,0,0-4.95-1.62,9,9,0,0,0-4,.92,2,2,0,0,1-2.68-.89,2,2,0,0,1,.89-2.69,12.91,12.91,0,0,1,5.84-1.34,12.76,12.76,0,0,1,7.19,2.34,2,2,0,0,1,.5,2.79A2,2,0,0,1,154.82,117.77Z"/><path class="cls-3" d="M80.73,117.77a2,2,0,0,1-1.64-.85,2,2,0,0,1,.49-2.79,12.71,12.71,0,0,1,13-1,2,2,0,1,1-1.79,3.58,8.62,8.62,0,0,0-4-.92,8.89,8.89,0,0,0-5,1.62A1.93,1.93,0,0,1,80.73,117.77Z"/><path class="cls-5" d="M153.91,54.34a1.93,1.93,0,0,1-.47-.05A2,2,0,0,1,152,51.88c1.09-4.51,1.67-8.15-.78-14a2,2,0,1,1,3.68-1.55c2.92,6.91,2.18,11.54,1,16.45A2,2,0,0,1,153.91,54.34Z"/><path class="cls-5" d="M153.91,54.34a2,2,0,0,1-1.66-.88,2,2,0,0,1,.54-2.77c6-4,9.42-5.46,15.37-6.39a2,2,0,0,1,.62,4c-5.4.84-8.23,2-13.75,5.75A2,2,0,0,1,153.91,54.34Z"/><path class="cls-3" d="M61.28,87.78a2,2,0,0,1-1.15-.36,2,2,0,0,1-.49-2.79C82.07,52.8,118,45.36,131,50.3A2,2,0,0,1,129.56,54c-11.64-4.43-45.71,3.17-66.65,32.9A2,2,0,0,1,61.28,87.78Z"/><path class="cls-3" d="M98.75,87.64a2,2,0,0,1-1.55-3.27c9.17-11.25,26.24-19.62,37.65-21.77a2,2,0,1,1,.74,3.93c-10.71,2-26.72,9.85-35.29,20.37A2,2,0,0,1,98.75,87.64Z"/><path class="cls-3" d="M183.86,99.76a2,2,0,0,1-2-1.65c-1.45-8.17-7.88-21.45-19.65-24.59a2,2,0,1,1,1-3.86c6.25,1.66,11.82,5.89,16.1,12.22a42.45,42.45,0,0,1,6.46,15.53,2,2,0,0,1-1.62,2.31A1.39,1.39,0,0,1,183.86,99.76Z"/></g></g></g></svg>