<svg xmlns="http://www.w3.org/2000/svg" xmlns:xlink="http://www.w3.org/1999/xlink" viewBox="0 0 235.55 238.36"><defs><style>.cls-1{fill:#f47d7d;}.cls-2{clip-path:url(#clip-path);}.cls-3{fill:#4c483c;}.cls-4{fill:#f4cfb0;}.cls-5{fill:#ffe3ca;}.cls-6{fill:#7fb9e5;}.cls-7{fill:#fff;}.cls-8{fill:#411c05;}.cls-9{fill:#c1272d;}.cls-10{fill:#2d2a24;}</style><clipPath id="clip-path"><circle class="cls-1" cx="117.77" cy="117.77" r="117.77" transform="translate(-48.78 117.77) rotate(-45)"/></clipPath></defs><g id="레이어_2" data-name="레이어 2"><g id="_C__1" data-name="©©C©₩[_1"><circle class="cls-1" cx="117.77" cy="117.77" r="117.77" transform="translate(-48.78 117.77) rotate(-45)"/><g class="cls-2"><path class="cls-3" d="M192.73,189.61c1.44,6,9.15,8,9.15,8s-13.79,7.32-28,.82c-16-7.33-12.51-15.54-12.3-16v0a59.29,59.29,0,0,0,12-14.55c8.87-3.63,15,.47,18.15,6.69S191.34,183.82,192.73,189.61Z"/><path class="cls-4" d="M197.25,140.09c.37,6-1.73,19.32-18.35,17.42l-.38-.14a65,65,0,0,0,3.93-22.12,60.32,60.32,0,0,0-.45-7.31h.45a11.59,11.59,0,0,1,8.18,1.45A14.07,14.07,0,0,1,197.25,140.09Z"/><path class="cls-3" d="M188.09,74.15c7.75,16.91,6.6,44.29,2.54,55.25a11.59,11.59,0,0,0-8.18-1.45H182a70.16,70.16,0,0,0-2.13-10.75c-7.73-25.11-24-36.58-24-36.58S112.62,114,57.1,112.17a86.21,86.21,0,0,0-3.49,15.77H53.1a11.61,11.61,0,0,0-7.28,1l-.29-1.16c-2.25-12.06-11.17-55.7,23.33-81.09,50-36.81,90.6,1,90.6,1S176.91,49.77,188.09,74.15Z"/><path class="cls-5" d="M182,127.94a60.32,60.32,0,0,1,.45,7.31,65,65,0,0,1-3.93,22.12,63.87,63.87,0,0,1-4.94,10.5,59.29,59.29,0,0,1-12,14.55v0c-8.39,7.34-19.38,12.67-33.1,14.49a82.92,82.92,0,0,1-21.35,0c-13.73-1.82-24.71-7.15-33.1-14.49v0a59.24,59.24,0,0,1-12-14.55h0A63.87,63.87,0,0,1,57,157.37a65,65,0,0,1-3.93-22.12,60.14,60.14,0,0,1,.51-7.31l12.52-.17,1.83.75a16.42,16.42,0,0,0-.87,5.42c0,8.7,7.94,15.76,20.32,15.76s20.32-7.06,20.32-15.76a16.78,16.78,0,0,0-.23-2.85l.23,0h20.09l.23,0a16.78,16.78,0,0,0-.23,2.85c0,8.7,7.94,15.76,20.32,15.76s20.33-7.06,20.33-15.76a16,16,0,0,0-1.14-6.14l2.09,0Z"/><path class="cls-5" d="M182,127.94l-12.58-.17-2.09,0c-2.32-5.66-8.32-9.63-19.19-9.63-12.88,0-18.91,5.57-20.09,12.92l-.23,0H107.73l-.23,0c-1.18-7.35-7.21-12.92-20.09-12.92-11.33,0-17.36,4.31-19.45,10.35l-1.83-.75-12.52.17a86.21,86.21,0,0,1,3.49-15.77c55.52,1.84,98.78-31.56,98.78-31.56s16.26,11.47,24,36.58A70.16,70.16,0,0,1,182,127.94Z"/><path class="cls-6" d="M172.14,238.36H63.41c0-12.24,15.76-33.42,43.48-33.42,2.12,4.55,10.89,4.71,10.89,4.71s8.76-.16,10.88-4.71C156.38,204.94,172.14,226.12,172.14,238.36Z"/><path class="cls-7" d="M167.33,127.8a16,16,0,0,1,1.14,6.14c0,8.7-7.95,15.76-20.33,15.76s-20.32-7.06-20.32-15.76a16.78,16.78,0,0,1,.23-2.85c1.18-7.35,7.21-12.92,20.09-12.92C159,118.17,165,122.14,167.33,127.8ZM153.91,134c0-4.17-2.61-7.55-5.83-7.55s-5.83,3.38-5.83,7.55,2.61,7.55,5.83,7.55S153.91,138.12,153.91,134Z"/><ellipse class="cls-8" cx="148.08" cy="133.95" rx="5.83" ry="7.55"/><path class="cls-5" d="M128.66,198.44v6.5c-2.12,4.55-10.88,4.71-10.88,4.71s-8.77-.16-10.89-4.71v-6.5l.21-1.51a82.92,82.92,0,0,0,21.35,0Z"/><path class="cls-7" d="M107.5,131.09a16.78,16.78,0,0,1,.23,2.85c0,8.7-7.94,15.76-20.32,15.76s-20.32-7.06-20.32-15.76a16.42,16.42,0,0,1,.87-5.42c2.09-6,8.12-10.35,19.45-10.35C100.29,118.17,106.32,123.74,107.5,131.09ZM93.3,134c0-4.17-2.61-7.55-5.83-7.55s-5.83,3.38-5.83,7.55,2.61,7.55,5.83,7.55S93.3,138.12,93.3,134Z"/><ellipse class="cls-8" cx="87.47" cy="133.95" rx="5.83" ry="7.55"/><path class="cls-3" d="M74,182.44c.21.46,3.75,8.67-12.29,16-14.25,6.5-28-.82-28-.82s7.71-2,9.15-8c1.39-5.79-2.11-8.84,1-15.05S53.1,164.24,62,167.87h0a59.24,59.24,0,0,0,12,14.55Z"/><path class="cls-4" d="M57,157.37l-.38.14c-16.61,1.9-18.72-11.4-18.35-17.42a14,14,0,0,1,7.52-11.18,11.61,11.61,0,0,1,7.28-1h.51a60.14,60.14,0,0,0-.51,7.31A65,65,0,0,0,57,157.37Z"/><path class="cls-8" d="M118.88,154.07a2.21,2.21,0,0,1-.62-.09c-1.28-.42-7.64-2.71-7.64-7.17s6.36-6.78,7.63-7.21a2,2,0,0,1,1.26,3.8h0c-2.26.76-4.89,2.41-4.89,3.41s2.62,2.63,4.88,3.36a2,2,0,0,1-.62,3.9Z"/><path class="cls-9" d="M117.78,177.59c-18.85,0-24.34-12-24.56-12.54a2,2,0,1,1,3.66-1.61c.18.4,4.78,10.15,20.9,10.15s20.84-10.05,20.89-10.15a2,2,0,1,1,3.66,1.61C142.11,165.56,136.62,177.59,117.78,177.59Z"/><path class="cls-8" d="M154.82,109.77a2,2,0,0,1-1.15-.36,9,9,0,0,0-5-1.62,8.64,8.64,0,0,0-4,.93,2,2,0,1,1-1.76-3.59,13.12,13.12,0,0,1,5.81-1.34,12.91,12.91,0,0,1,7.2,2.34,2,2,0,0,1,.5,2.79A2,2,0,0,1,154.82,109.77Z"/><path class="cls-8" d="M87.41,151.7c-12.93,0-22.32-7.47-22.32-17.76a18.4,18.4,0,0,1,1-6.07c1.51-4.37,6.29-11.7,21.34-11.7,12.53,0,20.57,5.33,22.06,14.61a18.46,18.46,0,0,1,.26,3.16C109.73,144.23,100.34,151.7,87.41,151.7Zm0-31.53c-9.45,0-15.52,3.12-17.56,9h0a14.27,14.27,0,0,0-.76,4.76c0,8,7.7,13.76,18.32,13.76s18.32-5.78,18.32-13.76a15.29,15.29,0,0,0-.2-2.51C104.36,124.16,97.93,120.17,87.41,120.17ZM68,128.52h0Z"/><path class="cls-8" d="M148.14,151.7c-12.93,0-22.32-7.47-22.32-17.76a18.08,18.08,0,0,1,.26-3.19c1.48-9.25,9.52-14.58,22.06-14.58,13.7,0,19,5.91,21,10.87a18.15,18.15,0,0,1,1.29,6.9C170.47,144.23,161.08,151.7,148.14,151.7Zm0-31.53c-10.52,0-16.95,4-18.12,11.24a14.66,14.66,0,0,0-.2,2.53c0,8,7.7,13.76,18.32,13.76s18.33-5.78,18.33-13.76a13.89,13.89,0,0,0-1-5.37h0C163.23,123.07,157.23,120.17,148.14,120.17Z"/><path class="cls-8" d="M127.82,133.05H107.73a2,2,0,0,1,0-4h20.09a2,2,0,0,1,0,4Z"/><path class="cls-8" d="M53.1,130a2,2,0,0,1,0-4h.51l12.53-.17a2,2,0,0,1,.06,4l-13,.18Z"/><path class="cls-8" d="M182.45,130H182l-12.57-.17a2,2,0,0,1,.06-4l13,.18a2,2,0,0,1,0,4Z"/><path class="cls-10" d="M61.44,102.16a2,2,0,0,1-.21-4C83.24,95.8,131,75.45,143.67,63a2,2,0,0,1,2.8,2.86C133.1,79,84.75,99.66,61.66,102.15Z"/><path class="cls-10" d="M65.09,84.32a2,2,0,0,1-.48-3.94c25.55-6.27,51.89-23.83,63.71-37.18a2,2,0,0,1,3,2.65C118.79,60,92.18,77.73,65.57,84.26A2.1,2.1,0,0,1,65.09,84.32Z"/></g></g></g></svg>