<svg xmlns="http://www.w3.org/2000/svg" xmlns:xlink="http://www.w3.org/1999/xlink" viewBox="0 0 235.55 238.36"><defs><style>.cls-1{fill:#ffa84a;}.cls-2{clip-path:url(#clip-path);}.cls-3{fill:#5b4839;}.cls-4{fill:#ffe3ca;}.cls-5{fill:#7bc16b;}.cls-6{fill:#411c05;}.cls-7{fill:#c1272d;}.cls-8{fill:#352921;}</style><clipPath id="clip-path"><circle class="cls-1" cx="117.77" cy="117.77" r="117.77" transform="translate(-48.78 117.77) rotate(-45)"/></clipPath></defs><g id="레이어_2" data-name="레이어 2"><g id="_C__1" data-name="©©C©₩[_1"><circle class="cls-1" cx="117.77" cy="117.77" r="117.77" transform="translate(-48.78 117.77) rotate(-45)"/><g class="cls-2"><path class="cls-3" d="M188.09,74.15c7.75,16.91,40.27,101.44-23.2,105.12,11.88-12.19,17.56-28.72,17.56-44a68.33,68.33,0,0,0-2.58-18.06c-7.73-25.11-24-36.58-24-36.58s-49,33.4-98.77,31.56a82,82,0,0,0-4,23.08c0,15.3,5.68,31.83,17.56,44-66.55-15-36.3-107.22-1.8-132.61,50-36.81,90.6,1,90.6,1S176.91,49.77,188.09,74.15Z"/><path class="cls-4" d="M179.87,117.19a68.33,68.33,0,0,1,2.58,18.06c0,15.3-5.68,31.83-17.56,44-8.73,9-20.81,15.58-36.44,17.66a82.92,82.92,0,0,1-21.35,0c-15.64-2.07-27.72-8.7-36.44-17.66-11.88-12.19-17.56-28.72-17.56-44a82,82,0,0,1,4-23.08c49.79,1.84,98.77-31.56,98.77-31.56S172.14,92.08,179.87,117.19Zm-26,16.76c0-4.17-2.61-7.55-5.83-7.55s-5.83,3.38-5.83,7.55,2.61,7.55,5.83,7.55S153.91,138.12,153.91,134ZM93.3,134c0-4.17-2.61-7.55-5.83-7.55s-5.83,3.38-5.83,7.55,2.61,7.55,5.83,7.55S93.3,138.12,93.3,134Z"/><path class="cls-5" d="M172.14,238.36H63.41c0-12.24,15.76-33.42,43.48-33.42,2.12,4.55,10.88,4.71,10.88,4.71s8.77-.16,10.88-4.71C156.38,204.94,172.14,226.12,172.14,238.36Z"/><ellipse class="cls-6" cx="148.08" cy="133.95" rx="5.83" ry="7.55"/><path class="cls-4" d="M128.45,196.93l.21,1.51v6.5c-2.11,4.55-10.88,4.71-10.88,4.71s-8.76-.16-10.88-4.71v-6.5l.21-1.51a82.92,82.92,0,0,0,21.35,0Z"/><ellipse class="cls-6" cx="87.47" cy="133.95" rx="5.83" ry="7.55"/><path class="cls-6" d="M118.87,154.07a2.16,2.16,0,0,1-.62-.09c-1.27-.42-7.63-2.71-7.63-7.17s6.35-6.78,7.62-7.21a2,2,0,0,1,1.26,3.8c-2.26.76-4.88,2.41-4.88,3.41s2.62,2.62,4.87,3.36a2,2,0,0,1-.62,3.9Z"/><path class="cls-7" d="M117.77,177.59c-18.84,0-24.34-12-24.56-12.54a2,2,0,1,1,3.66-1.61c.18.4,4.79,10.15,20.9,10.15s20.71-9.75,20.9-10.16a2,2,0,0,1,3.66,1.62C142.11,165.56,136.62,177.59,117.77,177.59Z"/><path class="cls-6" d="M154.81,109.77a2.06,2.06,0,0,1-1.16-.36,8.84,8.84,0,0,0-5-1.62,9,9,0,0,0-4,.93,2,2,0,1,1-1.76-3.59,12.53,12.53,0,0,1,5.8-1.34,12.93,12.93,0,0,1,7.21,2.35,2,2,0,0,1-1.15,3.63Z"/><path class="cls-8" d="M60.25,100.58a2,2,0,0,1-.28-4c22-3.07,64-20,79.95-34.59a2,2,0,1,1,2.71,3C126.23,80,83.06,97.41,60.52,100.56Z"/><path class="cls-8" d="M64.56,84.84A2,2,0,0,1,63.88,81c15.05-5.41,51.19-29.05,63.42-40.38A2,2,0,1,1,130,43.5C117.56,55.05,80.64,79.17,65.23,84.72A2,2,0,0,1,64.56,84.84Z"/></g></g></g></svg>