<svg xmlns="http://www.w3.org/2000/svg" xmlns:xlink="http://www.w3.org/1999/xlink" viewBox="0 0 235.55 239.69"><defs><style>.cls-1{fill:#85dce5;}.cls-2{clip-path:url(#clip-path);}.cls-3{fill:#f4cfb0;}.cls-4{fill:#543c2b;}.cls-5{fill:#ffe3ca;}.cls-6{fill:#8cc63f;}.cls-7{fill:#411c05;}.cls-8{fill:#c1272d;}.cls-9{fill:#2d2119;}</style><clipPath id="clip-path"><circle class="cls-1" cx="117.77" cy="117.77" r="117.77"/></clipPath></defs><g id="레이어_2" data-name="레이어 2"><g id="_C__1" data-name="©©C©₩[_1"><circle class="cls-1" cx="117.77" cy="117.77" r="117.77"/><g class="cls-2"><path class="cls-3" d="M201.9,151.08c.38,6-2.83,18.95-19.45,17a59.77,59.77,0,0,0,3-24.67c-.14-1.44-.32-2.93-.55-4.45a12.92,12.92,0,0,1,7.29-.07C198.08,140.67,201.62,146.66,201.9,151.08Z"/><path class="cls-4" d="M180.54,173c18.79,4.72,18.79,31,18.79,31s-21.34,2.9-32.75-11.73A55.63,55.63,0,0,0,180.54,173Z"/><path class="cls-4" d="M187.71,78.08c12,18.13,10.92,43.14,4.48,60.86a12.92,12.92,0,0,0-7.29.07c-.35-2.29-.8-4.66-1.38-7.07C178.4,109.29,162.59,92,162.59,92s-70.16,35-108.3,26.75h0c-1.83,5.27-3,13.91-3.72,20.23a12.86,12.86,0,0,0-7.2-.05c-10.86-27-3-103.58,81.19-100.42,29.36,1.09,46.17,23.33,46.17,23.33A55,55,0,0,1,187.71,78.08Z"/><path class="cls-5" d="M50.56,139c.7-6.32,1.89-15,3.72-20.23h0C92.43,127,162.59,92,162.59,92s15.81,17.28,20.93,39.93c.58,2.41,1,4.78,1.38,7.07.23,1.52.41,3,.55,4.45a59.77,59.77,0,0,1-3,24.67q-.82,2.46-1.91,4.88a55.63,55.63,0,0,1-14,19.22A61.16,61.16,0,0,1,143.13,205h0a91.51,91.51,0,0,1-50.69,0A61.28,61.28,0,0,1,69,192.23,55.76,55.76,0,0,1,55,173q-1.08-2.41-1.91-4.88a59.77,59.77,0,0,1-3-24.67C50.22,142.21,50.38,140.68,50.56,139Zm103.35,5.95c0-4.17-2.61-7.54-5.83-7.54s-5.83,3.37-5.83,7.54,2.61,7.55,5.83,7.55S153.91,149.11,153.91,144.94Zm-60.61,0c0-4.17-2.61-7.54-5.83-7.54s-5.83,3.37-5.83,7.54,2.61,7.55,5.83,7.55S93.3,149.11,93.3,144.94Z"/><path class="cls-6" d="M172.14,239.69H63.41c0-9.42,10-31.08,29-34.66a91.51,91.51,0,0,0,50.69,0h0C162.12,208.62,172.14,230.27,172.14,239.69Z"/><path class="cls-7" d="M148.08,137.4c3.22,0,5.83,3.37,5.83,7.54s-2.61,7.55-5.83,7.55-5.83-3.38-5.83-7.55S144.86,137.4,148.08,137.4Z"/><path class="cls-7" d="M87.47,137.4c3.22,0,5.83,3.37,5.83,7.54s-2.61,7.55-5.83,7.55-5.83-3.38-5.83-7.55S84.25,137.4,87.47,137.4Z"/><path class="cls-4" d="M55,173a55.76,55.76,0,0,0,14,19.22C57.56,206.86,36.22,204,36.22,204S36.22,177.73,55,173Z"/><path class="cls-3" d="M53.1,168.13c-16.62,1.9-19.83-11-19.45-17,.28-4.42,3.82-10.41,9.71-12.14a12.86,12.86,0,0,1,7.2.05c-.18,1.69-.34,3.22-.46,4.47A59.77,59.77,0,0,0,53.1,168.13Z"/><path class="cls-7" d="M118.88,165.06c-2.86,0-8.26-1.51-8.26-7.26s5.4-7.31,8.26-7.31a2,2,0,0,1,0,4c-.72,0-4.27.21-4.27,3.31s3.56,3.26,4.27,3.26a2,2,0,0,1,0,4Z"/><path class="cls-8" d="M117.78,188.58c-18.85,0-24.34-12-24.56-12.54a2,2,0,1,1,3.66-1.61c.18.41,4.78,10.15,20.9,10.15s20.84-10.05,20.89-10.15a2,2,0,1,1,3.66,1.61C142.11,176.55,136.62,188.58,117.78,188.58Z"/><path class="cls-7" d="M154.82,120.76a2,2,0,0,1-1.15-.36,8.68,8.68,0,0,0-9-.69,2,2,0,1,1-1.76-3.59,13.12,13.12,0,0,1,5.81-1.34,12.91,12.91,0,0,1,7.2,2.34,2,2,0,0,1,.5,2.79A2,2,0,0,1,154.82,120.76Z"/><path class="cls-9" d="M63.65,106.86H63.4a2,2,0,0,1,0-4,2.61,2.61,0,0,1,.28,0c24.86,0,69.6-16.31,84.23-30.75A2,2,0,1,1,150.73,75C134.31,91.16,87.13,106.86,63.65,106.86Z"/><path class="cls-9" d="M65.09,90.72a2,2,0,0,1-.09-4C86,85.8,122.94,66,136.65,53.65a2,2,0,0,1,2.68,3C126.67,68.05,88.9,89.68,65.18,90.72Z"/></g></g></g></svg>