<svg xmlns="http://www.w3.org/2000/svg" xmlns:xlink="http://www.w3.org/1999/xlink" viewBox="0 0 235.55 239.69"><defs><style>.cls-1{fill:#90ce2e;}.cls-2{clip-path:url(#clip-path);}.cls-3{fill:#f4cfb0;}.cls-4{fill:#754c24;}.cls-5{fill:#411c05;}.cls-6{fill:#ffe3ca;}.cls-7{fill:#fbb03b;}.cls-8{fill:#c1272d;}</style><clipPath id="clip-path"><circle class="cls-1" cx="117.77" cy="117.77" r="117.77"/></clipPath></defs><g id="레이어_2" data-name="레이어 2"><g id="_C__1" data-name="©©C©₩[_1"><circle class="cls-1" cx="117.77" cy="117.77" r="117.77"/><g class="cls-2"><path class="cls-3" d="M201.93,151.08c.38,6-2.83,18.95-19.45,17a59.77,59.77,0,0,0,3-24.67c-.14-1.44-.32-2.93-.55-4.45a12.92,12.92,0,0,1,7.29-.07C198.11,140.67,201.65,146.66,201.93,151.08Z"/><path class="cls-4" d="M198.58,49.11a17.81,17.81,0,0,1-15,15.21l-1.23.2a54.34,54.34,0,0,0-10.15-7.75c-11-6.54-18.74-5.28-18.74-5.28a55,55,0,0,0-25.29-12.1C132.3,24,152.38,16.85,166.39,25.6c16.09,10,4.79,20.29,16.09,25.44C187.48,53.32,198.58,49.11,198.58,49.11Z"/><path class="cls-4" d="M182.32,64.52c23.46,22.88,18.56,61.32,9.9,74.42a12.92,12.92,0,0,0-7.29.07c-.35-2.29-.8-4.66-1.38-7.07-8.47-27.24-32.75-41.81-32.75-41.81s-45.18,34.08-96.49,34.08A83.63,83.63,0,0,0,50.68,139a12.92,12.92,0,0,0-7.29-.07C29.54,116.78,41.52,35.2,121.15,38.59a49.59,49.59,0,0,1,7,.8,55,55,0,0,1,25.29,12.1s7.72-1.26,18.74,5.28A54.34,54.34,0,0,1,182.32,64.52Z"/><path class="cls-5" d="M182.32,66.52a2,2,0,0,1-1.39-.56,52.81,52.81,0,0,0-9.78-7.47c-10.16-6-17.34-5-17.41-5a2,2,0,0,1-1.67-.51,53.54,53.54,0,0,0-24.3-11.6,2,2,0,0,1,.74-3.93,57.39,57.39,0,0,1,25.6,12c2.55-.14,9.73.08,19.08,5.63a56.93,56.93,0,0,1,10.53,8,2,2,0,0,1,0,2.83A2,2,0,0,1,182.32,66.52Z"/><path class="cls-6" d="M185.48,143.46a59.77,59.77,0,0,1-3,24.67c-5.25,15.41-17.32,30.29-39.33,36.9a91.51,91.51,0,0,1-50.69,0h0c-22-6.61-34.07-21.49-39.32-36.9a59.77,59.77,0,0,1-3-24.67c.14-1.44.32-2.93.55-4.45a83.63,83.63,0,0,1,3.63-14.8c51.31,0,96.49-34.08,96.49-34.08s24.28,14.57,32.75,41.81c.58,2.41,1,4.78,1.38,7.07C185.16,140.53,185.34,142,185.48,143.46Zm-31.54,1.48c0-4.17-2.61-7.54-5.83-7.54s-5.83,3.37-5.83,7.54,2.61,7.55,5.83,7.55S153.94,149.11,153.94,144.94Zm-60.61,0c0-4.17-2.61-7.54-5.83-7.54s-5.83,3.37-5.83,7.54,2.61,7.55,5.83,7.55S93.33,149.11,93.33,144.94Z"/><path class="cls-7" d="M172.17,239.69H63.44c0-9.42,10-31.07,29-34.66h0a91.51,91.51,0,0,0,50.69,0C162.15,208.61,172.17,230.27,172.17,239.69Z"/><path class="cls-5" d="M148.11,137.4c3.22,0,5.83,3.37,5.83,7.54s-2.61,7.55-5.83,7.55-5.83-3.38-5.83-7.55S144.89,137.4,148.11,137.4Z"/><path class="cls-5" d="M87.5,137.4c3.22,0,5.83,3.37,5.83,7.54s-2.61,7.55-5.83,7.55-5.83-3.38-5.83-7.55S84.28,137.4,87.5,137.4Z"/><path class="cls-3" d="M53.13,168.13c-16.62,1.9-19.83-11-19.45-17,.27-4.42,3.81-10.41,9.71-12.14a12.92,12.92,0,0,1,7.29.07c-.23,1.52-.41,3-.55,4.45A59.77,59.77,0,0,0,53.13,168.13Z"/><path class="cls-5" d="M118.9,165.06c-2.85,0-8.25-1.51-8.25-7.26,0-5.36,4.94-7.31,8.25-7.31a2,2,0,0,1,0,4c-.71,0-4.26.21-4.26,3.31s3.55,3.26,4.26,3.26a2,2,0,0,1,0,4Z"/><path class="cls-8" d="M117.8,188.58c-18.84,0-24.33-12-24.56-12.54a2,2,0,1,1,3.66-1.61c.19.4,4.79,10.15,20.9,10.15,16.27,0,20.85-10.05,20.9-10.15a2,2,0,1,1,3.66,1.61C142.14,176.55,136.65,188.58,117.8,188.58Z"/><path class="cls-5" d="M154.85,120.76a1.93,1.93,0,0,1-1.14-.36,8.93,8.93,0,0,0-5-1.62,8.71,8.71,0,0,0-4,.93,2,2,0,1,1-1.76-3.59,12.52,12.52,0,0,1,5.8-1.34,13,13,0,0,1,7.22,2.34,2,2,0,0,1,.49,2.79A2,2,0,0,1,154.85,120.76Z"/><path class="cls-5" d="M60.37,111.35a2,2,0,0,1-.27-4c23.52-3.25,70-23.59,83.65-44a2,2,0,0,1,3.33,2.23c-8.77,13.11-28.4,24.17-39.32,29.61-16.45,8.17-34.5,14.34-47.11,16.08Z"/><path class="cls-5" d="M61,93.11a2,2,0,0,1-.49-3.93c17.64-4.46,43.21-13,61.6-35.17a2,2,0,0,1,3.08,2.55C106,79.68,79.65,88.46,61.47,93.05A1.65,1.65,0,0,1,61,93.11Z"/></g></g></g></svg>