<svg xmlns="http://www.w3.org/2000/svg" viewBox="0 0 32 32"><defs><style>.cls-1{fill:#fff;opacity:0;}.cls-2{fill-rule:evenodd;}</style></defs><g id="레이어_2" data-name="레이어 2"><g id="Layer_1" data-name="Layer 1"><rect class="cls-1" width="32" height="32"/><path class="cls-2" d="M9.64,2.49A1,1,0,0,1,11,2.14l5,2.94a1,1,0,0,1,.46.63,1,1,0,0,1-.13.78l-3,4.56A1,1,0,0,1,11.66,10l1.86-2.83a10.51,10.51,0,1,0,9.05,2.56A1,1,0,0,1,23.92,8.2,12.5,12.5,0,1,1,12.46,5.31L10,3.86A1,1,0,0,1,9.64,2.49Z"/></g></g></svg>