<svg xmlns="http://www.w3.org/2000/svg" viewBox="0 0 28 28"><defs><style>.cls-1{fill:#fff;fill-rule:evenodd;}</style></defs><g id="레이어_2" data-name="레이어 2"><g id="Layer_1" data-name="Layer 1"><path class="cls-1" d="M7.87,3A4,4,0,1,0,3,7.87V20.13A4,4,0,1,0,7.87,25H20.13A4,4,0,1,0,25,20.13V7.87A4,4,0,1,0,20.13,3ZM4,2A2,2,0,1,0,6,4,2,2,0,0,0,4,2ZM23,7.87A4,4,0,0,1,20.13,5H7.87A4,4,0,0,1,5,7.87V20.13A4,4,0,0,1,7.87,23H20.13A4,4,0,0,1,23,20.13ZM24,22a2,2,0,1,0,2,2A2,2,0,0,0,24,22ZM2,24a2,2,0,1,1,2,2A2,2,0,0,1,2,24ZM22,4a2,2,0,1,0,2-2A2,2,0,0,0,22,4Z"/></g></g></svg>