<?xml version="1.0" encoding="utf-8"?>
<!-- Generator: Adobe Illustrator 26.1.0, SVG Export Plug-In . SVG Version: 6.00 Build 0)  -->
<svg version="1.1" id="레이어_1" xmlns="http://www.w3.org/2000/svg" xmlns:xlink="http://www.w3.org/1999/xlink" x="0px"
	 y="0px" viewBox="0 0 376.4 259.2" style="enable-background:new 0 0 376.4 259.2;" xml:space="preserve">
<style type="text/css">
	.st0{fill:#F0B4B5;}
	.st1{fill:none;stroke:#063F58;stroke-width:6;stroke-linecap:round;stroke-linejoin:round;}
	.st2{fill:#063F58;}
	.st3{fill:#86CDD7;}
</style>
<g id="theo-build">
	<path class="st0" d="M364.4,176.4c-3.8,3.7-7.8,7.1-12.1,10.1c0,0-32.5-0.2-49.4-0.2h-6c-1.2-2.7-2.5-5.4-3.6-8
		c-2.5-5.8-5.1-11.7-7.7-17.5c5.2-3.2,10.5-6.3,15.8-9.2c10.2-5.6,21.2-10.1,30.9-16.6c15.8-10.5,24.6-26.2,20-45.3
		c-2.5-10.3-7.6-20-12.3-29.5s-9.7-18.8-15-27.9c-3.8-6.5-7.5-13-14.1-16c-3.1-5.5-8-9.8-14.2-11.1c-6.4-5.4-14.6-5.2-22.9-1.7
		c-4.5,1.9-11,3.6-13,8.6c-1.2,2.8-0.5,6.1,1.8,8.1c-1.8,2.4-2.5,5.1-0.6,8c2,3,6,4.1,9.7,3.6c0.2,1.8,0.9,3.4,2.2,4.7
		c2.2,2.3,5.5,2.2,8.5,1.9c-2.2,3.6-4,7.4-5.2,11.4c-1.9,5.7,2.8,7.8,6.4,11.1c2.8,2.6,3.6,7.5,4.8,11c1.3,3.7,2.5,7.4,3.8,11.1
		c1.8,5.3,3.6,10.6,5.4,15.9l-2.5,1.7l0,0l-0.4-0.1c-6.3,3.6-18.5,11-28.7,17.3c-2.5-5.2-5-10.3-7.6-15.5
		c-12.3-24.7-24.5-50.1-39.2-73.5c-5.9-9.5-13.6-17.9-24.4-21.6c-9.9-3.5-20.2-1.7-28,5.5c-9.8,9-15.1,23.2-20.9,34.9
		c-7.3,14.5-14.1,29.2-20.6,44c-2,4.6-6.1,15.5-11.1,29L78.6,98.6l11.1-32.2c5.8-1.1,10.6-5.1,12.8-10.5c1.7-2.3,2.6-5.1,2.7-8
		c0.2-3.6-0.8-7.1-2.8-10.2c1.9-1.1,3.2-3.1,3.4-5.3c4.1-0.1,7.9-2.6,9.4-6.4c0.8-1.9,0.1-5.3-2.2-8.2s-4.2-5.3-8.2-7.5
		c-7-3.9-12.8-4.7-20.4-4.8C79.3,6.5,74,9.6,74.1,14.8c-4.6,0.1-8.7,1.7-11.1,5.7c-2.7-4.9-5.3-9.7-8.1-14.5
		c-2-3.5-6.1-8.5-10.4-4.5c-3.9,3.7-1,11.4,0.2,15.5c2,6.8,4.9,13.7,4,20.9c-8.3,13.7-15.6,27.9-21.9,42.5
		c-5.2,12-13.2,26.5-3.9,38.5c3.8,4.9,9.2,8.4,14.4,11.7c7,4.5,14.1,8.9,21.2,13.3c12.8,7.9,25.8,15.7,38.9,23.2
		c-3.1,8.6-6,16.9-8.6,24.1l-70.3,0.6c-2.6-5.3-5.7-10.4-9.2-15.2c-1.1-1.5-4.8-2.2-6-1c-3.2,3.3-3,7.6-3.1,11.9
		c-0.2,6.5-0.2,13-0.1,19.5c0.2,13,2,35.7,2.4,38.9s1.6,5.1,3.9,5.1h156.3c0.5,0,1-0.1,1.4-0.3c17.3,0.3,34.5,0.5,51.8-0.1l5.4-0.2
		h133c4.5,0,8.6-2.8,10.1-7.1c3-8.2,4.6-21.6,5.8-28.8c2.1-12.6,4.2-25.2,6.3-37.8C377,173.1,371.2,169.9,364.4,176.4z"/>
	<path class="st1" d="M182.6,91.6c5.7,0.9,16.1,0.7,22.7-8"/>
	<line class="st1" x1="196.4" y1="72.1" x2="196.9" y2="65.9"/>
	<line class="st1" x1="177.1" y1="69.9" x2="177.5" y2="64.5"/>
	<path class="st2" d="M268.6,74.9c4.5-1.5,7.1-7,9.4-10.6c5.8-8.8,11.4-17.8,16.8-26.8l-9.8,0.8c-3.7,0.3-8.3,1.4-11.2-1.6
		c-1.3-1.3-2-2.9-2.2-4.7c-3.7,0.5-7.7-0.6-9.7-3.6c-1.9-2.8-1.1-5.5,0.6-8c-2.2-2-3-5.2-1.8-7.9c-0.7,0.3-1.4,0.8-1.8,1.5
		c-7.5,11.5-15.5,23.5-20.8,36.2c-5,11.8,7.2,16.5,15.9,20.6C258.1,72.6,263.9,76.4,268.6,74.9z"/>
	<path class="st3" d="M137.2,49.1c-2.6-5.1-9.4-17.5-14.2-25.7C112.9,6,109.1,4.1,101.6,7.8l-1,0.5c1.4,0.6,2.8,1.3,4.1,2
		c4.1,2.3,5.9,4.6,8.2,7.5s3,6.3,2.2,8.2c-1.6,3.8-5.3,6.3-9.4,6.4c-0.1,3-2.7,5.5-5.5,6.2c-4,1-8.7-0.9-12.5-1.8l-9-2.1
		c7.1,11.1,15.7,29.1,23.4,39c1.5,2.2,3.7,3.7,6.3,4.3c4,0.8,7.7-2.3,10.9-4.2l12-7.4c0.6-0.4,1.5-1,2.5-1.8
		C138.5,61,140,54.4,137.2,49.1z"/>
	<path class="st1" d="M77.8,13.7c5.4,1,11,2,15.8,4.7s8.9,7.2,9.7,12.7"/>
	<path class="st1" d="M79.3,35.4c-2.1,0.9-4.6,0.2-5.9-1.8"/>
	<path class="st1" d="M78.8,59.3c-0.1-1.2-0.9-2.2-2-2.6"/>
	<path class="st1" d="M296.5,13.6c-6.2,0.6-12.2,2.7-17.5,5.9c-2.2,1.2-4.1,2.9-5.6,4.8c-1.5,2-2.2,4.5-1.9,7"/>
	<path class="st1" d="M263.9,16.5c0.8-2.5,10.4-7.6,13-8.1l8.1-1.8"/>
	<path class="st1" d="M301.5,58.5c-1.4-1.1-3.5-0.9-4.6,0.6c-0.1,0.2-0.3,0.4-0.4,0.6"/>
	<path class="st2" d="M145.3,130.8c-3.6,0-4.4-0.7-7.8,3.6s-13.9,21.1-19.1,30.5l-6.8,12.2c-1.7,3.1-5.2,7.1-5.4,10.8
		c-0.1,1.7,0.5,3.4,1.7,4.6c-4.4,0.1-7.4,3.1-9.7,6.9c-4.1,6.7-7.9,13.6-11.8,20.4l-11.6,20.2c-1.8,3.2-4.1,7.3-5.6,10.7
		c-0.9,2.1-1.2,4.6,0.4,6.4c1.6,1.9,4.2,1.7,6.4,1.7c3.9,0.1,7.8,0.1,11.7,0.1h10c4.9,0,9.4-2.4,12.2-6.5
		c5.1-7.6,13.4-20.8,16.9-26.5c4-6.6,7.7-13.6,11.2-20.5c1.9-3.8,4.5-13.3,0-13.3c5.9,0,9.5-1.8,12-5.4c3.7-5.2,7-10.6,10.4-15.9
		c6-9.4,14.4-23.9,19.1-32.8c1.6-2.9,1.6-6.8-2.9-6.8C181.2,131.4,141.9,130.8,145.3,130.8z"/>
	<path class="st3" d="M105.7,205.7c3.7,7.5,7.5,14.8,11.9,21.9c3.1,5,9.6,16.6,13.6,24c2.2,4,6.8,7.4,11.4,7.4
		c9.7,0,16.9,0.1,25.7,0c2.1-0.1,4.1-1.1,5.5-2.7c1.6-1.9,1.4-4.3,0.4-6.4c-1.5-3.4-3.7-6.6-5.6-9.8c-3.9-6.7-7.8-13.5-11.6-20.2
		c-3.9-6.8-7.7-13.7-11.8-20.4c-0.5-0.9-1.3-2.2-2-3.5c-1.3-2.3-3.8-3.8-6.4-3.8c-4.2,0-10.3-0.1-13.7,0c-4.4,0.1-8.9,0-13.3,0.3
		c-0.6,0-1.4,0.1-2.3,0.1c-2.8,0.1-5,2.5-4.9,5.3c0,0.7,0.2,1.3,0.5,1.9C104.1,202.3,105.2,204.8,105.7,205.7z"/>
	<path class="st2" d="M214.2,196.8c-0.2-0.2-0.3-0.4-0.5-0.6l-0.1-0.4h-0.2c-1.7-1.6-4-2.6-6.4-2.6c-4.4-0.3-8.9-0.2-13.3-0.3
		c-5.4-0.1-12.3-1.3-16.6,1.9l-1-0.1c-1.8,1.6-3.3,3.4-4.5,5.5c-4.1,6.7-7.9,13.6-11.8,20.4l-11.6,20.2c-1.9,3.2-4.1,6.4-5.6,9.8
		c-0.9,2.1-1.2,4.6,0.4,6.4c1.6,1.9,4.2,1.7,6.4,1.7c3.9,0.1,7.8,0.1,11.7,0.1h12.5c5.1,0,9.8-2.7,12.5-7.1c1.3-2.2,2.6-4.5,3.6-6.4
		c3.3-6.3,6.7-12.5,10.4-18.6c4-6.6,9.4-12.9,12.6-19.9c1.1-2.4,1.7-5,1.6-7.6C214.8,198.6,214.8,197.5,214.2,196.8z"/>
	<path class="st3" d="M138.7,134.5c1.7,5.6,7.1,13.8,9.9,18.9c3.1,5.5,14.5,27.4,18.2,32.8c2.6,3.6,5.4,6.1,12.5,6.1
		c-5.1,0-3.9,5-2.2,8.6c3.1,6.8,8.7,17.5,12.6,23.9s7.3,12.7,10.7,19.1c1.3,2.4,3.2,5.8,5,8.8c2.2,3.8,6.4,6.2,10.8,6.2h24.5
		c3,0,5.6-0.8,7.2-2.6c1.6-1.8,1.4-4.3,0.4-6.4c-1.5-3.3-4.4-7.2-6.2-10.4l-10.3-17.8c-4.5-7.6-8.6-15.4-13.3-23
		c-2.3-3.8-5.1-7-9.4-8c1-0.9,1.5-2.3,1.4-3.6c-0.2-3.6-3.7-7.6-5.4-10.8l-6.8-12.2c-4.5-8.1-11.3-18.5-15.8-26.7
		c-1.6-2.9-4.1-7-7.5-7s-8.5-0.2-14.1-0.2s-13.9,0.2-17.4,0.2S138.1,132.4,138.7,134.5z"/>
	<path class="st2" d="M249.3,134.2c-5.5-4.6-14.5-2.2-20.5-2.2c-2.9,0-5.7,0.1-8.6,0.4l-2.1,0.2c-4.9,0.5-9.3,3.3-11.8,7.6
		c-2.8,4.8-6.4,10.8-8.3,14.2c-4.4,7.9-12.3,21.9-17,30.3c-1.2,2.2-0.5,5,1.8,6.2c0.7,0.4,1.5,0.6,2.2,0.6l25.3-0.1
		c5.7,0,11-2.6,14.5-7.1c3.8-4.9,8.4-10.8,9.5-12.6c4.5-6.8,8.9-13.7,12.8-20.9C250,145.8,255,139,249.3,134.2z"/>
	<path class="st2" d="M280,192l-30,0.7c-3,0.1-5.8,1.7-7.2,4.4c-0.7,1.2-1.4,2.5-1.8,3.2c-4.1,6.7-7.9,13.6-11.8,20.4l-11.6,20.2
		c-1.6,2.8-3.9,6.9-5.9,10.8c-1.3,2.5-0.3,5.6,2.2,6.9c0.7,0.4,1.5,0.6,2.3,0.6c4.2,0,8.8,0.1,11.1-0.1c6.6-0.4,13.8,1,20.2-1.4
		c5.5-2.1,9-7,11.7-12.1c8.3-15.6,16.7-30.3,24.6-47.9c0.9-2,0-4.4-2-5.3C281.1,192.1,280.5,192,280,192z"/>
	<path class="st1" d="M109.5,190.2c20.8,0.6,168.8,1,168.8,1"/>
	<path class="st3" d="M214.7,131.4c-3.7,0-4.7,5.7-3.7,7.7c5.5,10.6,11,21.4,17.5,31.5c3.5,5.5,6.9,11,10.6,16.3
		c2.6,3.6,5.6,6.8,10.2,7.1c-2.9,0.8-1.1,6.3,0.7,10.1c3.3,7,8.3,15.3,12.3,22c3.7,6.1,7,12.3,10.4,18.6c2.7,5.1,6.5,13.8,12.4,13.8
		s11.6,0,17.7,0c3.7,0,7.4,0,11-0.1c2.1,0.1,4.1-0.7,5.5-2.2c1.6-1.9,1.4-4.3,0.4-6.4c-1.5-3.4-3.7-6.6-5.6-9.8l-11.6-20.2
		c-3.9-6.8-7.7-13.7-11.8-20.4c-2.3-3.8-5.1-7-9.4-8c1-0.9,1.6-2.3,1.4-3.6c-0.2-3.6-3.7-7.6-5.4-10.8l-6.8-12.2
		c-3.7-6.7-15.5-24.7-17.5-27.9s-9.1-6.2-12.5-6C245.7,131,209.7,131.4,214.7,131.4z"/>
	<path class="st1" d="M142.9,130.1c31,0.4,97.1,1,97.1,1"/>
</g>
</svg>
