<?xml version="1.0" encoding="utf-8"?>
<!-- Generator: Adobe Illustrator 26.1.0, SVG Export Plug-In . SVG Version: 6.00 Build 0)  -->
<svg version="1.1" id="레이어_1" xmlns="http://www.w3.org/2000/svg" xmlns:xlink="http://www.w3.org/1999/xlink" x="0px"
	 y="0px" viewBox="0 0 299.9 385.9" style="enable-background:new 0 0 299.9 385.9;" xml:space="preserve">
<style type="text/css">
	.st0{fill:#F0B4B5;}
	.st1{fill:none;stroke:#063F58;stroke-width:6;stroke-linecap:round;stroke-linejoin:round;}
	.st2{fill:#063F58;}
</style>
<g id="theo-phone-standing">
	<path class="st0" d="M296.7,191.3c-10.9-19.6-35.6-41-55.4-51.6l0,0c-6.5-14.1-13.1-28.1-20-42c-12.4-25-24.7-50.6-39.6-74.2
		c-6-9.5-13.7-18-24.6-21.8c-10-3.5-20.4-1.7-28.3,5.5c-9.9,9-15.3,23.5-21,35.2c-7.2,14.7-14.1,29.5-20.7,44.5
		c-6.9,15.9-12.8,31.1-18.3,46.4C56.4,139.4,42.9,147,32.9,154c-6.6,4.7-13,9.7-19.2,15c-5.2,4.5-9.1,11.6-11.5,18.2
		c-2.5,6.1-2.9,13-1,19.4c1.6,6.2,4.7,10.7,9.5,15c7.9,7.1,18.1,7.8,27.3,5.5c0,1.1,0,2.2,0.2,3.3C39.5,241,49,246,58.8,247
		c10.4,1.1,21.1,0.3,31.6,0c0.5,32.9-0.5,82.5-3,113.6c-4.8,6.7-10.6,11.6-14.5,18.7c-0.7,1.2-0.4,6.5,3.3,6.5h63.4
		c4.2,0,4.3-3.8,4.4-5c0.7-35.1-2.2-103.6,0.8-133.2c6.2,0.1,12.4,0.1,18.6,0c3.2,47.8,0.6,97.3,1.1,133.5c0,1.2,1.7,4.7,4.4,4.7
		h63.4c3.4,0,4-5,3.3-6.2c-4.2-7-9.7-12-14.6-18.8c-2.6-32.2-3.6-84-3-116.8h0.1c3.2-0.4,6.6-0.9,9.9-1.3c24,1.4,54-2.6,63.4-12.7
		C302.5,218,300.9,199,296.7,191.3z"/>
	<path class="st1" d="M119.2,113.3c0.3,6.3,4,11.9,9.7,14.6c1.4,0.6,2.9,1.1,4.4,1.5"/>
	<line class="st1" x1="136.3" y1="97.1" x2="135.9" y2="104.7"/>
	<line class="st1" x1="165.4" y1="97.6" x2="165.1" y2="104.9"/>
	<path class="st1" d="M202.6,176.7c7.9,2.6,14.7,7.9,19.2,15c0.3,0.5,0.6,0.9,1.1,1.3c0.5,0.3,1.1,0.4,1.7,0.4l28.8,1.9"/>
	<path class="st1" d="M187.3,237.6c12.5,4,25.6,6.1,38.7,6.1"/>
	<path class="st1" d="M248.3,188.1c-1.8,1.3-2.8,3.4-2.9,5.6"/>
	<path class="st1" d="M77.9,191c5.1-3.7,8.5-9.3,9.3-15.5c-0.7,2.2-1.5,4.5-1.2,6.9c0.3,2.5,2.1,4.6,4.5,5.3
		c3.1,0.9,6.6-1.1,8.1-3.6s1.4-5.5,1.4-8.3c-0.1-2.4-0.2-4.9-1.8-6.8c-2.1-2.5-5.9-3.2-9.4-3.8"/>
	<path class="st1" d="M100.7,157.6c2.8,1.2,5.9,2.5,7.4,5.1c1,1.9,1.5,4.1,1.4,6.2c0.2,2.8,0.1,5.7-1.2,8.1s-4.4,4.1-6.9,2.9"/>
	<path class="st1" d="M23,186.3c0,0,40-25.6,63.3-38.6c3.7-2,7.4-4.1,11.5-5c8-1.9,16.4-0.3,24.5,1.5c3.2,0.7,6.6,2.9,6.6,7.4
		s-3.3,4.9-6.3,5.5c-5.7,1-13.6,1.1-19.3,1.7"/>
	<path class="st1" d="M111.5,175.7c3.5,0.4,5.4,4.8,4.6,8.2s-3.5,6.1-6.1,8.5c-1.5,1.5-3.3,2.8-5.2,3.8c-1.9,1-4.2,1-6.2,0.1
		c-1.9-1-4.5-7.1-3.6-9.1"/>
	<path class="st1" d="M91.7,191c-11.9,12.2-38.5,31.3-51.7,36"/>
	<path class="st1" d="M187.6,196.6c-3.7,7.6-6.6,15.5-8.8,23.7"/>
	<path class="st1" d="M183.4,200.3c-4.8,0.1-14.2-4.3-14.2-4.3"/>
	<path class="st1" d="M178.9,214.9c-4.3-0.8-14.1-5.3-14.1-5.3"/>
	<path class="st2" d="M165.2,223.3c-5-3.9-6.1-9.7-4.4-12.4s3.4-2.6,3.8-2.8c-3.2-1.6-6.4-4.2-5.8-8.2c0.8-4.5,5.6-5.9,9.5-5.4l0,0
		c-1.6-1.4-2.1-6.6,1.6-9.2s10-0.2,13.9,0.7c5.5,1.3,11.2,2.7,16.4,3.8c0.1-0.4,0.1-0.8,0.2-1.1c1.7-9.2,3.3-18.5,4.9-27.8
		c0.8-4.5,1.5-9,2.2-13.5c0.5-3.2,0.5-6.2-2.3-8.4c-2.5-2-6.3-2-9.3-2.4l-14.4-1.6l-14.4-1.6c-4.4-0.5-9.4-1.7-13.9-1.3
		c-7.5,0.8-8.2,11.2-9.7,16.9c-2.3,8.9-4.5,17.8-6.5,26.8c-2.7,12.2-6.5,37.3-8.6,52.6c-1,7.1,3.9,13.7,11,14.7c0.1,0,0.1,0,0.2,0
		c9.6,1.3,30.1,2.6,41.4,3.4c4.5,0.3,8.5-2.8,9.4-7.2c0.3-1.3,0.6-2.7,0.9-4.2C181.4,232.1,171.1,228,165.2,223.3z"/>
</g>
</svg>
