<?xml version="1.0" encoding="utf-8"?>
<!-- Generator: Adobe Illustrator 26.1.0, SVG Export Plug-In . SVG Version: 6.00 Build 0)  -->
<svg version="1.1" id="레이어_1" xmlns="http://www.w3.org/2000/svg" xmlns:xlink="http://www.w3.org/1999/xlink" x="0px"
	 y="0px" viewBox="0 0 600 800" style="enable-background:new 0 0 600 800;" xml:space="preserve">
<style type="text/css">
	.st0{fill:#86CDD7;}
	.st1{fill:#FDC93A;}
	.st2{fill:none;stroke:#063F58;stroke-width:6;stroke-linecap:round;stroke-linejoin:round;}
</style>
<g id="theo-big-phone">
	<path class="st0" d="M533.5,473.9c-0.2-6-0.4-12.3-0.4-24.5s-0.2-18.7-0.4-24.8c-0.2-6.1-0.4-12.3-0.4-24.5c0-12.3,0-18.6,0.1-24.6
		c0.1-6.1,0.1-12.3,0.1-24.7c0-12.3,0.1-18.5,0.2-24.6c0.1-6,0.2-12.4,0.2-24.7s-0.3-18.7-0.5-24.8s-0.6-12.2-0.6-24.5
		c0-12.2,0-18.5,0-24.7c0-6.2,0-12.3,0-24.7s0-18.5-0.1-24.7c-0.1-6.2-0.1-12.3-0.1-24.6c0-27.9-21.2-49.8-48.2-49.8
		c-12.4,0-18.7,0.3-24.8,0.6c-6.1,0.3-12.2,0.6-24.4,0.6s-18-0.5-24.2-1c-6.2-0.5-12.5-1-25-1s-18.6,0.1-24.7,0.2
		c-6.1,0.1-12.2,0.2-24.5,0.2s-18.7,0.4-24.8,0.8c-6.1,0.4-12.2,0.7-24.3,0.7c-12.2,0-18-0.4-24.3-0.9c-6.3-0.4-12.5-0.9-24.9-0.9
		c-27.2,0-49.3,22.6-49.3,50.4c0,12.4,0.2,18.7,0.3,24.8s0.3,12.3,0.3,24.5c0,12.3,0,18.5,0.1,24.7c0.1,6.2,0.1,12.3,0.1,24.6
		c0,12.3,0,18.5,0,24.6c0,6.2,0,12.3,0,24.7s0.1,18.6,0.2,24.7c0.1,6.1,0.2,12.3,0.2,24.6s-0.1,18.5-0.2,24.6
		c-0.1,6-0.2,12.4-0.2,24.7s-0.2,18.5-0.4,24.5c-0.2,6-0.4,12.4-0.4,24.8c0,12.4-0.1,18.5-0.2,24.6c-0.1,6-0.2,12.4-0.2,24.7
		s-0.2,18.5-0.3,24.5s-0.3,12.4-0.3,24.8c0,12.4,0,18.5,0,24.7s0.1,12.3,0.1,24.6s0.4,18.8,0.8,25c0.4,6.2,0.7,12.2,0.7,24.4
		c0,27.3,21.9,49.5,48.8,49.5c12.3,0,18.6-0.1,24.6-0.1c6.1-0.1,12.3-0.1,24.5-0.1c12.3,0,18.4,0.2,24.4,0.4
		c6,0.2,12.4,0.4,24.7,0.4c12.4,0,18.5,0.1,24.5,0.2c6,0.1,12.3,0.2,24.6,0.2s18.6-0.2,24.7-0.4c6.1-0.2,12.2-0.4,24.4-0.4
		c12.2,0,18.6-0.1,24.7-0.2c6.1-0.1,12.2-0.2,24.5-0.2c27.7,0,50.3-22.1,50.3-49.2c0-12.5-0.3-18.8-0.6-24.9s-0.6-12.2-0.6-24.4
		s0.3-18.4,0.7-24.4s0.7-12.5,0.7-25c0-12.5,0-18.6,0.1-24.6c0.1-6,0.1-12.4,0.1-24.7C533.9,486.3,533.7,480,533.5,473.9z"/>
	<path class="st1" d="M215,273.9c0.5-1.1,0.9-2.2,1.1-3.3c0.7-3.9-0.9-7.8-4.2-10c-7.3-4.9-19.1-0.6-25.8,3.4
		c-18.6,10.9-21.3,30.3-18.4,49.4c-0.2,11.2,0.2,22.3,1.3,33.4c1.1,10.6,4.8,16.7,8.2,19.8c3.5,2.6,7.8,3.9,12.2,3.7
		c0.1-4.8,0.2-10.5,0.2-19.5c0-7.1,0-12.2-0.1-16.4c5.3-2.9,10.4-5.9,15.5-9.1c4.8-3,10.8-6.1,13-11.6c2.4-6.3-0.4-10.8-5-12.9
		l3.3-2.2c4.7-3.1,9.5-6.7,10.3-12.7C227.8,276.9,222,274.1,215,273.9z"/>
	<path class="st1" d="M218.5,525.7c-1.4-4.5-5.6-7.5-10.3-7.4c1.5-1,2.5-5.9,1.9-8.1c-2.4-10.3-14.8-8.3-22.4-5.5c0-1.8,0-3.7,0-5.8
		c0-12.4,0.1-18.7,0.2-24.7c0.1-6.1,0.2-12.3,0.2-24.6c0-12.3,0.2-18.7,0.4-24.8c0.2-6.1,0.4-12.3,0.4-24.5c0-6.7,0-11.6,0.1-15.6
		c-10.9-2.1-21.7-4.7-32.4-7.7c-10.1-2.8-20-6.1-29.9-9.6c-9.5-3.3-19.3-6.9-29.5-6.6c-15.9,0.5-30.1,10.4-31.2,27.1
		c-0.6,8.7,2.1,17.2,4.6,25.4c3.4,10.9,6.9,21.8,10.6,32.6c14.6,42.9,31.4,85.1,50.2,126.3c0,1.6,0,3.1-0.2,4.3
		c-1.5,16.1-2.4,33.5,2.4,49.2c3.9,12.6,12.6,22.7,26.2,24.3c8,0.9,21.2-0.5,28.8-6.3c0-10.2-0.4-15.9-0.7-21.4
		c-0.4-6.1-0.8-12.5-0.8-25c0-10.6,0-16.6,0-22c6.6-10.1,20.3-15.1,24.1-20.3c4.4-5.9,0.3-11.6-6.5-13.9
		C213.6,537.7,219.9,531.3,218.5,525.7z"/>
	<path class="st2" d="M441.4,124.4c0.9,7.1,0.9,16.1-5.5,19.4c-2.5,1-5.2,1.5-7.9,1.3l-139.4,1.4c-4.2,0-8.4,0-12.1-1.8
		c-3.7-1.8-7.8-8.4-7.3-20.1"/>
	<path class="st2" d="M284.9,664.9l140.2,1.5"/>
	<path class="st2" d="M129.3,450c10.3,3.4,21.6,0.9,29.7-6.3"/>
	<line class="st2" x1="128.6" y1="412.2" x2="137.8" y2="420.2"/>
	<line class="st2" x1="153.6" y1="398.2" x2="162.8" y2="406.1"/>
	<path class="st2" d="M147.6,611.1c2.6-22.8,5.2-45.5,7.8-68.3c0.3-4.6,1.2-9.1,2.6-13.5c4.2-11.6,15.2-19.6,26.9-23.3"/>
	<path class="st2" d="M204.1,518.2c-9.1,1.6-16.3,6-23.7,11.5"/>
	<path class="st2" d="M203,539.9c-7.4,3-14.3,7.1-20.6,12.1"/>
	<path class="st2" d="M180.3,315.2c8-7.7,18.2-12.8,29.1-14.7"/>
	<path class="st2" d="M183.9,285.8c7.8-6.9,17.4-11.4,27.7-12.8"/>
</g>
</svg>
