<?xml version="1.0" encoding="utf-8"?>
<!-- Generator: Adobe Illustrator 26.1.0, SVG Export Plug-In . SVG Version: 6.00 Build 0)  -->
<svg version="1.1" id="레이어_1" xmlns="http://www.w3.org/2000/svg" xmlns:xlink="http://www.w3.org/1999/xlink" x="0px"
	 y="0px" viewBox="0 0 600 800" style="enable-background:new 0 0 600 800;" xml:space="preserve">
<style type="text/css">
	.st0{fill:#F0B4B5;}
	.st1{fill:#063F58;}
	.st2{fill:none;stroke:#063F58;stroke-width:6;stroke-linecap:round;stroke-linejoin:round;}
	.st3{fill:#E3D6BD;}
	.st4{fill:#FDC93A;}
</style>
<g id="theo-roar">
	<path class="st0" d="M473.9,307.2c-0.4-2.6-1.8-3.8-3.1-5.9c-2.1-3.5-0.1-5.6,0.4-9.2c0.4-2.4,0.1-4.8-0.7-7.1
		c-0.8-2.2-2.1-4.1-3.8-5.7l0,0c-1-1-2.1-1.8-3.3-2.4l-0.2-0.1c-0.4-0.2-0.8-0.4-1.3-0.6c-0.3-0.1-0.5-0.2-0.8-0.3l-0.9-0.3
		c-0.1,0-0.2-0.1-0.4-0.1h-0.1c-3.9-1-9.6-1.2-17.6,0.6c-4.1,1.2-8,2.9-11.6,5.1c-4.4-1.1-9.1-1-13.5,0.3c-19.9,6-28,31.6-22.3,49.6
		l0,0c-5.1,28.1-6,57.1-13.6,84.7c-2.1-2.8-4.2-5.6-6.4-8.4c-18.4-24.2-36.9-49.1-57.6-71.3c-8.4-9-18.4-16.5-30.8-18.3
		c-11.4-1.7-22.2,2.4-29.1,11.7c-8.7,11.7-11.5,28.2-15.3,41.9c-4.8,17.2-9.1,34.5-13,51.9c-1.9,8.2-5.8,32.3-10,58.5
		c-22,6.9-51.2,18.9-68,26c-5.3,2.2-10.6,4.5-15.9,6.9c-13.7,6.1-16.6,13.1-17.2,27.7c-0.9,20.3,0.4,37.4,5,57.1
		c2,8.5,3.7,19,8.8,26.4c4,5.9,12.3,9,18.4,4.1l0.2-0.2c7.2,4,16,4,23.2,0c0.3-0.2,0.5-0.4,0.8-0.6c2.2-0.4,4.3-1.3,6.1-2.6
		c4.6-3.6,6.7-9.5,5.4-15.2c3.7-9.8,0.3-20.8-8.4-26.7l-1-23.7l32.1-11.8c-1.3,8.3-2.3,14.3-2.6,16.5c-1.3,7.2-1.9,14.6,0.2,21.1
		c3.6,11.2,14.8,14.6,25.5,13.6c5.3-0.5,10.5-1.3,15.7-2.4c0.8,41.4,0.6,82.9-0.6,124.3c-6.1,6-11.5,12.7-16,19.9
		c-0.7,3,1.2,6.1,4.2,6.8c0.1,0,0.2,0,0.3,0.1h69c1.1,0,2.2-0.5,2.9-1.3c1.4-0.5,2.3-1.9,2.3-3.4l1.8-158.7
		c9.3-1.6,18.5-3.3,27.7-5.1c7.2,32.9,25.8,119.2,34.5,164.7c0.2,1.4,1,2.6,2.3,3.2c1.1,0.8,2.6,0.9,3.8,0.3l39.6-17.1l18.8-8.1
		c4.6-2,9.4-3.3,11.1-8.5c0.4-1.2,0.2-2.5-0.6-3.4c-0.2-1-0.9-1.8-1.8-2.3c-6.2-3.3-12.7-6.2-19.3-8.5l-15.1-71.1
		c-3.3-15.4-11.4-46.3-15.3-63.6l4.7-1.5c12.5-4.2,26.2-8.4,37.4-15.6c10.9-7,15.6-18.1,11.5-30.6c-3.6-10.8-10.7-20.6-17.5-30.1
		c5.2-36.1,7.8-77.2,12.5-112.1c1.5-11,2.8-22,4.1-33c9.4-1.6,17.8-8,15.9-18c3.6-2.5,6.2-6,7.7-10.1
		C473.9,312.7,474.2,309.9,473.9,307.2z"/>
	<path class="st1" d="M289.6,440.3l-2.2,0.8c0.1,2.8,0.2,5.6,0.6,8.3c0.8,7.3,1.8,14.5,3.1,21.7c0.6,3.8,1.4,7.5,2.3,11.2l1.8-0.9
		c8.9-5.2,23.8-2,29.9,6.3l0.8,0.9c0.8-1.6,1.4-3.4,1.9-5.1c1.7-6.2,1.5-12.7,1-19.1c-0.9-12.1-3.1-24.8-10.2-34.3l-1.9,0.6
		C307.4,432.8,298.3,436,289.6,440.3z"/>
	<path class="st2" d="M261.7,417.4l9.7-8.5c-5.4,0.3-10.8,1-16.2,2.2"/>
	<path class="st2" d="M327.4,388.9c-3.9,0.7-7.6,2.5-10.5,5.2c4.4-0.9,9,0,12.6,2.6"/>
	<path class="st2" d="M288.8,431c-2.1,5.8-1.5,12.3-0.9,18.4c0.8,7.3,1.8,14.5,3.1,21.7c0.9,6.4,2.5,12.6,4.6,18.7
		c0.7,2.2,1.8,4.3,3.3,6.2c4.2,4.9,11.9,5.7,17.6,2.7c5.7-2.9,9.5-8.8,11.2-15c1.7-6.2,1.5-12.7,1-19.1c-1-13.6-3.6-27.9-13-37.7
		C306.9,417.6,293.5,417.7,288.8,431z"/>
	<path class="st2" d="M322.1,513.1c-3.1,3.1-7.7,4.4-12,3.2"/>
	<path class="st2" d="M289.6,440.3c8.6-4.2,17.7-7.4,27.1-9.5"/>
	<path class="st2" d="M295.1,481.5c8.9-5.2,23.8-2,29.9,6.3"/>
	<path class="st2" d="M178,602.6c3.2,2.9,5.2,6.9,5.8,11.1"/>
	<path class="st2" d="M164,624.8c0,0,2.2,4.4,4.5,4.1"/>
	<path class="st2" d="M147.1,624.6c0,0,3,5.4,5.9,5.1"/>
	<path class="st1" d="M417,281.5c6.2-1.9,17.3-2.1,20.1,5.4c2-0.6,3.9-1,5.7-1.4c0.9-13.2,1.5-23.1,1.5-23.1l-29.6,1.4
		c0,0-0.3,7.7-0.8,18.8C414.9,282.2,415.9,281.8,417,281.5z"/>
	<path class="st1" d="M423.8,330.6c-0.6-1.8-0.9-3.7-0.9-5.6c-0.3,0.6-0.7,1.3-1.1,1.9c-3.2,4.8-6.3,7.3-10.5,9
		c-0.3,5.3-0.6,10.1-0.9,13.9c-0.1,1.7,3.8,4.2,5.3,4.6c7.7,1.7,19.6,4.1,21.4-6.6c0.2-1.4,0.5-3.1,0.7-5
		C431.6,340.9,426,336.9,423.8,330.6z"/>
	<path class="st3" d="M441.4,52.8c-0.4-0.6-1-1.1-1.6-1.4c-1.2-0.7-2.7-0.7-3.8,0.2c-25.9,18.2-24.1,53.9-25.7,82
		c-2.1,35.7-4.9,79.9-6,115.7c-0.2,6.7,3.2,5.1,10,3.7c5.7,0.8,35.4,3.5,38,0.9c2.7-36.3,4.2-78.6,6.2-114.9
		C460.1,109.5,459,77.9,441.4,52.8z"/>
	<path class="st4" d="M478.4,249.3c-3.6-1.4-8.5-0.8-12.3-0.9l-16.4-0.5l-62.2-1.8c-1.6-0.2-3.3-0.2-4.9-0.1c-1.5,0.2-3.4,1.3-3.6,3
		c-0.5,4.6-2,10.3-1.4,14.8c0.2,2.4,1.9,4.3,4.1,4.9c4.3,1.4,10.7,0.3,15.2,0.3l15.2,0.1l65.1,0.3c1.7-0.1,3.2-1.3,3.6-3
		C481.6,261.5,485.1,251.9,478.4,249.3z"/>
	<path class="st2" d="M437.2,59.4c-2.6,62.8-8.1,178.4-8.1,178.4"/>
	<path class="st2" d="M463.5,326.4c-5.3,3.7-11.9,4.7-18.3,5.6c-6.7,1-13.5-0.9-18.8-5.2"/>
	<path class="st2" d="M467.1,300.7c-5,2.1-10.1,3.8-15.3,5.2c-7.1,2-14.5,2.9-21.9,2.6"/>
	<path class="st2" d="M440.2,287.8c0.4,3.2-1.5,8.7-3.4,11.3c-2.7,3.7-7.2,5.6-11.5,7.4c0.9,5.9,0.5,18.6-1.5,24.2"/>
	<path class="st2" d="M453.3,283.3c-4,2.3-8.5,3.8-13.1,4.5"/>
	<path class="st2" d="M436.9,345.6c3.1,0.6,6.2,0.8,9.3,0.6"/>
</g>
</svg>
