<svg xmlns="http://www.w3.org/2000/svg" viewBox="0 0 32 32"><defs><style>.cls-1{fill:#fff;opacity:0;}.cls-2{fill-rule:evenodd;}</style></defs><g id="레이어_2" data-name="레이어 2"><g id="Layer_1" data-name="Layer 1"><rect class="cls-1" width="32" height="32"/><path class="cls-2" d="M17.37,19.33l2.55-5.94a1,1,0,0,0-1.84-.78l-2.77,6.47a3,3,0,1,0,2.06.25ZM16,21h0a1,1,0,1,0,1,1A1,1,0,0,0,16,21Z"/><path d="M16,9a7,7,0,0,0-7,7,1,1,0,0,1-2,0,9,9,0,0,1,18,0,1,1,0,0,1-2,0A7,7,0,0,0,16,9Z"/><path class="cls-2" d="M16,2A14,14,0,1,0,30,16,14,14,0,0,0,16,2ZM4,16A12,12,0,1,1,16,28,12,12,0,0,1,4,16Z"/></g></g></svg>