<svg xmlns="http://www.w3.org/2000/svg" viewBox="0 0 28 28.1"><defs><style>.cls-1{fill-rule:evenodd;}</style></defs><g id="레이어_2" data-name="레이어 2"><g id="Layer_1" data-name="Layer 1"><path class="cls-1" d="M10.32,1.61a5,5,0,0,1,7.36,0l9,9.77A5,5,0,0,1,28,14.77V25.1a3,3,0,0,1-3,3H3a3,3,0,0,1-3-3V14.77a5,5,0,0,1,1.32-3.39ZM11,26.1h6v-9H11Zm-2,0H3a1,1,0,0,1-1-1V14.77a3,3,0,0,1,.79-2l9-9.76a3,3,0,0,1,4.42,0l9,9.76a3,3,0,0,1,.79,2V25.1a1,1,0,0,1-1,1H19v-9a2,2,0,0,0-2-2H11a2,2,0,0,0-2,2Z"/></g></g></svg>