<svg xmlns="http://www.w3.org/2000/svg"  viewBox="0 0 48 48" width="48px" height="48px"><path fill="#eb7900" d="M40.113,28.76c-0.751-1.477-2.556-2.066-4.034-1.316L27.113,32H16.031v3h18.422l4.343-2.207 C40.274,32.043,40.863,30.237,40.113,28.76z"/><rect width="8" height="19" x="2" y="24" fill="#6c19ff"/><rect width="3" height="15" x="7" y="26" fill="#2100c4"/><path fill="#f5bc00" d="M46.563,29.007l-0.008-0.014c-0.787-1.409-2.567-1.913-3.976-1.126L29.809,35H18v-3h10	c1.657,0,3-1.343,3-3s-1.343-3-3-3H10v15h20c0.007,0,0.013-0.002,0.019-0.002c0.571,0.055,1.163-0.054,1.702-0.355l13.715-7.66	C46.845,32.196,47.349,30.416,46.563,29.007z"/><path fill="#f55376" d="M33.934,13.391L33.934,13.391c0.313-1.207,0.302-2.517-0.11-3.791 C32.694,6.099,29,4.197,25.573,5.351s-5.289,4.928-4.159,8.429c0.411,1.275,1.165,2.334,2.12,3.114l0,0L31.593,24L33.934,13.391z"/><path fill="#f55376" d="M29.257,13.391L29.257,13.391c-0.313-1.207-0.302-2.517,0.11-3.791 c1.13-3.501,4.825-5.403,8.252-4.249s5.289,4.928,4.159,8.429c-0.411,1.275-1.165,2.334-2.12,3.114l0,0L31.598,24L29.257,13.391z"/><g><path fill="#eb0000" d="M31.595,23.989l2.339-10.598l0,0c0.313-1.207,0.302-2.517-0.109-3.792 c-0.427-1.324-1.222-2.417-2.229-3.205c-1.007,0.788-1.802,1.882-2.229,3.205c-0.411,1.275-0.422,2.584-0.109,3.792l0,0 L31.595,23.989z"/></g></svg>