<svg xmlns="http://www.w3.org/2000/svg"  viewBox="0 0 48 48" width="48px" height="48px"><path fill="#3dd9eb" d="M38,29h3.9l-4.1-13C36.4,9.2,30.4,4,23.1,4c-8.3,0-15,6.7-15,15c0,4.4,1.9,8.3,4.9,11.1V44h16v-7h9V29z"/><rect width="4" height="4" x="21" y="12" fill="#2100c4" transform="rotate(-180 23 14)"/><rect width="4" height="4" x="21" y="22" fill="#2100c4" transform="rotate(-180 23 24)"/><circle cx="23.1" cy="19" r="6" fill="#2100c4"/><rect width="4" height="4" x="26" y="17" fill="#2100c4" transform="rotate(-90 28 19)"/><rect width="4" height="4" x="16" y="17" fill="#2100c4" transform="rotate(-90 18 19)"/><rect width="4" height="4" x="24.5" y="13.5" fill="#2100c4" transform="rotate(-134.999 26.536 15.465)"/><rect width="4" height="4" x="17.5" y="20.5" fill="#2100c4" transform="rotate(-134.999 19.465 22.536)"/><rect width="4" height="4" x="24.5" y="20.5" fill="#2100c4" transform="rotate(-45.001 26.535 22.536)"/><rect width="4" height="4" x="17.5" y="13.5" fill="#2100c4" transform="rotate(-45.001 19.464 15.465)"/><circle cx="23" cy="19" r="3" fill="#6c19ff"/><path fill="#6c19ff" d="M16.8,4.1l-2.8-2.8l-1.6,1.6c-0.4-0.2-0.9-0.4-1.3-0.5V0H7v2.3C6.5,2.4,6.1,2.6,5.7,2.8L4.1,1.2L1.2,4.1	l1.6,1.6C2.6,6.1,2.4,6.5,2.3,7H0v4h2.3c0.1,0.5,0.3,0.9,0.5,1.3l-1.6,1.6l2.8,2.8l1.6-1.6c0.4,0.2,0.9,0.4,1.3,0.5V18h4v-2.3	c2.9-0.9,5-3.5,5-6.7c0-1.2-0.3-2.3-0.8-3.3L16.8,4.1z"/><circle cx="9" cy="9" r="4.1" fill="#a64aff"/><path fill="#2100c4" d="M18,11V7h-2.3c-0.1-0.3-0.2-0.6-0.3-0.8c0,0-0.8,0.5-0.8,0.6c-0.3,0.2-0.6,0.4-0.8,0.6c-0.5,0.4-1,0.9-1.5,1.4	c-0.9,1-1.8,2.1-2.4,3.4c-0.7,1.4-1.3,2.9-1.5,4.4c0,0.1-0.1,0.8-0.2,1.5c0,0,2.9,0,2.9,0v-2.3c0.5-0.1,0.9-0.3,1.3-0.5l1.6,1.6	l2.8-2.8l-1.6-1.6c0.2-0.4,0.4-0.9,0.5-1.3H18z"/><path fill="#6c19ff" d="M9.4,13c2.1-0.2,3.7-1.9,3.7-4c0-0.3-0.1-0.7-0.1-1C11.4,9.4,10.2,11.1,9.4,13z"/></svg>