<svg xmlns="http://www.w3.org/2000/svg"  viewBox="0 0 48 48" width="48px" height="48px"><path fill="#f55376" d="M36.021,27.042c-3.302,0-5.979,2.677-5.979,5.979c0,3.302,2.677,5.979,5.979,5.979 C39.323,39,42,36.323,42,33.021C42,29.719,39.323,27.042,36.021,27.042z"/><path fill="#f55376" d="M12,31.042c-3.302,0-5.979,2.677-5.979,5.979C6.021,40.323,8.698,43,12,43s5.979-2.677,5.979-5.979 C17.979,33.719,15.302,31.042,12,31.042z"/><path fill="#f55376" d="M18,14l-4,0.918v22.103h4V14z"/><path fill="#f55376" d="M42,8h-4v25.021h4V8z"/><polygon fill="#f55376" points="14,11.822 14,19.036 42,12.16 42,4.757"/><polygon fill="#eb0000" points="18,10.813 14,11.822 14,19.036 18,18.054"/><polygon fill="#eb0000" points="38,13.142 42,12.16 42,4.757 38,5.766"/></svg>