<svg xmlns="http://www.w3.org/2000/svg"  viewBox="0 0 48 48" width="48px" height="48px"><circle cx="29.044" cy="11.069" r="7" fill="#3dd9eb"/><circle cx="19.055" cy="11.069" r="7" fill="#6c19ff"/><path fill="#3dd9eb" d="M48,41l-0.462-2.34C47.083,35.401,44.596,33,41.675,33H33.42c-2.921,0-5.408,2.401-5.863,5.66 L27.095,41H48z"/><path fill="#7debf5" d="M37.547,35.019L37.547,35.019c-3.014,0-5.553-2.252-5.912-5.245l-0.292-2.801 c-0.446-3.72,2.458-6.994,6.205-6.994h0c3.747,0,6.651,3.274,6.205,6.994l-0.292,2.801C43.101,32.767,40.562,35.019,37.547,35.019z"/><path fill="#7debf5" d="M42.941,30.204H32.154c-0.829,0-1.5-0.671-1.5-1.5s0.671-1.5,1.5-1.5h10.788 c0.829,0,1.5,0.671,1.5,1.5S43.77,30.204,42.941,30.204z"/><path fill="#6c19ff" d="M20.905,41l-0.462-2.34C19.988,35.401,17.501,33,14.58,33H6.325c-2.921,0-5.408,2.401-5.863,5.66 L0,41H20.905z"/><path fill="#ddbaff" d="M15.846,30.204H5.059c-0.829,0-1.5-0.671-1.5-1.5s0.671-1.5,1.5-1.5h10.788 c0.829,0,1.5,0.671,1.5,1.5S16.675,30.204,15.846,30.204z"/><path fill="#ddbaff" d="M10.453,35.019L10.453,35.019c-3.014,0-5.553-2.252-5.912-5.245l-0.292-2.801 c-0.446-3.72,2.458-6.994,6.205-6.994h0c3.747,0,6.651,3.274,6.205,6.994l-0.292,2.801C16.006,32.767,13.467,35.019,10.453,35.019z"/><path fill="#6c19ff" d="M10.453,19.979c-1.265,0-2.429,0.38-3.405,1.017C7.28,22.69,8.718,24,10.476,24 c1.748,0,3.181-1.294,3.426-2.974C12.917,20.37,11.737,19.979,10.453,19.979z"/><path fill="#3dd9eb" d="M37.453,19.979c-1.265,0-2.429,0.38-3.405,1.017C34.28,22.69,35.718,24,37.476,24 c1.748,0,3.181-1.294,3.426-2.974C39.917,20.37,38.737,19.979,37.453,19.979z"/><path fill="#2100c4" d="M25.826,9.295c-0.321-1.225-0.948-2.289-1.777-3.132c-0.829,0.842-1.456,1.906-1.777,3.132 c-0.647,2.471,0.11,4.979,1.777,6.68C25.716,14.274,26.474,11.766,25.826,9.295z"/><polygon fill="#3dd9eb" points="32.951,19.739 28.037,16.938 32.92,14.082"/><polygon fill="#6c19ff" points="15.096,19.739 20.01,16.938 15.127,14.082"/></svg>