<svg xmlns="http://www.w3.org/2000/svg"  viewBox="0 0 48 48" width="48px" height="48px"><path fill="#f55376" d="M48,30H23.709l1.038-3.772C25.254,23.217,28.018,21,31.266,21h9.178 c3.247,0,6.012,2.217,6.518,5.228L48,30z"/><path fill="#fac8d5" d="M35.854,23.015L35.854,23.015c-3.243,0-5.975-2.458-6.361-5.724l-0.314-2.658 C28.698,10.573,31.823,7,35.854,7h0c4.031,0,7.156,3.573,6.676,7.632l-0.314,2.658C41.829,20.557,39.098,23.015,35.854,23.015z"/><path fill="#ddbaff" d="M17.816,18.199H6.184c-0.829,0-1.5-0.672-1.5-1.5s0.671-1.5,1.5-1.5h11.632 c0.829,0,1.5,0.672,1.5,1.5S18.645,18.199,17.816,18.199z"/><path fill="#6c19ff" d="M24.146,30H-0.146l1.038-3.772C1.399,23.217,4.164,21,7.411,21h9.178 c3.247,0,6.012,2.217,6.518,5.228L24.146,30z"/><circle cx="43" cy="8" r="3" fill="#f55376"/><path fill="#3dd9eb" d="M36.146,43H11.854l1.038-3.772C13.399,36.217,16.164,34,19.411,34h9.178 c3.247,0,6.012,2.217,6.518,5.228L36.146,43z"/><path fill="#7debf5" d="M24,36.015L24,36.015c-3.243,0-5.975-2.458-6.361-5.724l-0.314-2.658C16.844,23.573,19.969,20,24,20 h0c4.031,0,7.156,3.573,6.676,7.632l-0.314,2.658C29.975,33.557,27.243,36.015,24,36.015z"/><path fill="#3dd9eb" d="M17.368,28.001c1.503-0.563,2.591-2.19,2.591-4.111c0-0.741-0.162-1.437-0.446-2.047 c-0.57,0.498-1.047,1.084-1.419,1.729c-0.64,1.194-0.943,2.594-0.769,4.061L17.368,28.001z"/><path fill="#ddbaff" d="M12,23.015L12,23.015c-3.243,0-5.975-2.458-6.361-5.724l-0.314-2.658C4.844,10.573,7.969,7,12,7h0 c4.031,0,7.156,3.573,6.676,7.632l-0.314,2.658C17.975,20.557,15.243,23.015,12,23.015z"/><path fill="#6c19ff" d="M12,7c-1.807,0-3.428,0.721-4.628,1.879C8.116,10.708,9.904,12,12,12s3.884-1.292,4.628-3.121 C15.428,7.721,13.807,7,12,7z"/><path fill="#fac8d5" d="M41.67,18.199H30.039c-0.829,0-1.5-0.672-1.5-1.5s0.671-1.5,1.5-1.5H41.67 c0.829,0,1.5,0.672,1.5,1.5S42.499,18.199,41.67,18.199z"/><path fill="#f55376" d="M35.854,7c-0.632,0-1.239,0.097-1.816,0.261C34.42,11.046,37.615,14,41.5,14 c0.367,0,0.724-0.035,1.077-0.086C42.634,10.161,39.646,7,35.854,7z"/><path fill="#3dd9eb" d="M17.526,25h12.947c-0.781-2.853-3.351-5-6.474-5S18.307,22.147,17.526,25z"/><path fill="#7debf5" d="M30.316,30.974H17.684c-0.829,0-1.5-0.672-1.5-1.5s0.671-1.5,1.5-1.5h12.632 c0.829,0,1.5,0.672,1.5,1.5S31.145,30.974,30.316,30.974z"/><path fill="#3dd9eb" d="M30.633,28.001c-1.503-0.563-2.591-2.19-2.591-4.111c0-0.741,0.162-1.437,0.446-2.047 c0.57,0.498,1.047,1.084,1.419,1.729c0.64,1.194,0.943,2.594,0.769,4.061L30.633,28.001z"/></svg>