<svg xmlns="http://www.w3.org/2000/svg"  viewBox="0 0 48 48" width="48px" height="48px"><path fill="#3dd9eb" d="M5,40V8h38v32H5z"/><circle cx="38" cy="38" r="10" fill="#6c19ff"/><path fill="#00b3d7" d="M27,19v4.039v1.909h-6V19H27z"/><path fill="#00b3d7" d="M18,19v4.039v1.909h-6V19H18z"/><path fill="#00b3d7" d="M36,19v4.039v1.909h-6V19H36z"/><path fill="#00b3d7" d="M27,28v4.044v1.912h-6V28H27z"/><path fill="#00b3d7" d="M18,28v4.044v1.912h-6V28H18z"/><rect width="4" height="3" x="10" y="8" fill="#00b3d7"/><rect width="4" height="3" x="34" y="8" fill="#00b3d7"/><rect width="4" height="2.994" x="10" y="5.006" fill="#f5bc00"/><rect width="4" height="3" x="22" y="8" fill="#00b3d7"/><rect width="4" height="2.994" x="22" y="5.006" fill="#f5bc00"/><rect width="4" height="2.994" x="34" y="5.006" fill="#f5bc00"/><path fill="#2100c4" d="M43,29.349C41.528,28.496,39.824,28,38,28c-5.523,0-10,4.477-10,10c0,0.685,0.07,1.354,0.201,2H43 V29.349z"/><polygon fill="#a64aff" points="43,40 37,40 37,32.125 39,32.125 39,38 43,38"/></svg>