<svg xmlns="http://www.w3.org/2000/svg"  viewBox="0 0 48 48" width="48px" height="48px"><path fill="#7debf5" d="M42,25c0,9.94-8.06,18-18,18S6,34.94,6,25S14.059,7,24,7S42,15.059,42,25z"/><path fill="#3dd9eb" d="M24,5C12.972,5,4,13.972,4,25s8.972,20,20,20s20-8.972,20-20S35.028,5,24,5z M26,40.875V37h-4v3.875	C14.773,39.97,9.03,34.227,8.125,27H12v-4H8.125C9.03,15.773,14.773,10.03,22,9.125V13h4V9.125C33.227,10.03,38.97,15.773,39.875,23	H36v4h3.875C38.97,34.227,33.227,39.97,26,40.875z"/><circle cx="24" cy="5" r="4" fill="#6c19ff"/><path fill="#00b3d7" d="M20.02,5.398C20.219,7.42,21.925,9,24,9s3.781-1.58,3.98-3.602C26.694,5.137,25.363,5,24,5 S21.306,5.137,20.02,5.398z"/><path fill="#6c19ff" d="M14.808,34.192L25.97,26.97L22.03,23.03L14.808,34.192z"/><path fill="#f55376" d="M22.03,23.03l3.939,3.939l7.223-11.162L22.03,23.03z"/></svg>