<svg xmlns="http://www.w3.org/2000/svg"  viewBox="0 0 48 48" width="48px" height="48px"><rect width="4" height="11.702" x="22" y="19.298" fill="#3ddab4"/><polygon fill="#f5bc00" points="34.476,43 13.524,43 9.787,28 38.213,28"/><rect width="32" height="5" x="8" y="25" fill="#f5bc00"/><path fill="#3ddab4" d="M26.021,21.969H21.25c-8.916,0-16.144-7.228-16.144-16.144V3.969h4.771 c8.916,0,16.144,7.228,16.144,16.144V21.969z"/><path fill="#3ddab4" d="M22,21.969h4.771c8.916,0,16.144-7.228,16.144-16.144V3.969h-4.771 C29.228,3.969,22,11.197,22,20.113V21.969z"/><polygon fill="#eb7900" points="10.285,30 37.715,30 38.213,28 9.787,28"/><path fill="#00b569" d="M24.011,12.316C22.732,14.628,22,17.284,22,20.113v1.856h4.021v-1.856 C26.021,17.284,25.289,14.628,24.011,12.316z"/></svg>