<svg xmlns="http://www.w3.org/2000/svg"  viewBox="0 0 48 48" width="48px" height="48px"><circle cx="29" cy="17" r="3" fill="#f55376"/><circle cx="39" cy="8" r="3" fill="#f55376"/><circle cx="18" cy="7" r="3" fill="#f55376"/><circle cx="9" cy="16" r="3" fill="#f55376"/><polygon fill="#f55376" points="29,17.887 18.003,10 9.996,17.121 8.004,14.879 18,6.077 28.996,14 38.062,6.829 39.937,9.171"/><rect width="6" height="16" x="6" y="28" fill="#3ddab4"/><rect width="6" height="23" x="16" y="21" fill="#3ddab4"/><rect width="6" height="13" x="26" y="31" fill="#3ddab4"/><rect width="6" height="27" x="36" y="17" fill="#3ddab4"/><rect width="42" height="4" x="3" y="40" fill="#6c19ff"/><rect width="6" height="4" x="6" y="40" fill="#2100c4"/><rect width="6" height="4" x="16" y="40" fill="#2100c4"/><rect width="6" height="4" x="26" y="40" fill="#2100c4"/><rect width="6" height="4" x="36" y="40" fill="#2100c4"/><path fill="#eb0000" d="M20.795,8.091L18,6.077l-2.649,2.332C15.856,9.356,16.853,10,18,10 C19.272,10,20.358,9.208,20.795,8.091z"/><path fill="#eb0000" d="M26.214,15.888L29,17.887l2.715-2.163C31.235,14.705,30.2,14,29,14 C27.736,14,26.655,14.782,26.214,15.888z"/><path fill="#eb0000" d="M38.062,6.829l-2.031,1.606c0.157,1.078,0.887,1.97,1.871,2.357l2.034-1.621L38.062,6.829z"/><path fill="#eb0000" d="M9.996,17.121l1.943-1.728c-0.216-1.05-0.98-1.899-1.98-2.236l-1.955,1.721L9.996,17.121z"/></svg>