<svg xmlns="http://www.w3.org/2000/svg" xmlns:xlink="http://www.w3.org/1999/xlink" viewBox="0 0 235.55 239.69"><defs><style>.cls-1{fill:#f7a33e;}.cls-2{clip-path:url(#clip-path);}.cls-3{fill:#473f37;}.cls-4{fill:#63c180;}.cls-5{fill:#ffe3ca;}.cls-6{fill:#411c05;}.cls-7{fill:#f4cfb0;}.cls-8{fill:#c1272d;}.cls-9{fill:#231f1b;}</style><clipPath id="clip-path"><circle class="cls-1" cx="117.77" cy="117.77" r="117.77" transform="translate(-48.78 117.77) rotate(-45)"/></clipPath></defs><g id="레이어_2" data-name="레이어 2"><g id="_C__1_1_" data-name="©©C©₩[_1_1_"><circle class="cls-1" cx="117.77" cy="117.77" r="117.77" transform="translate(-48.78 117.77) rotate(-45)"/><g class="cls-2"><path class="cls-3" d="M83.67,48.85C127.57,26.74,158,57.8,158,57.8s16.9.7,29,23.07c15.74,29,5.14,58.07,5.14,58.07a12.92,12.92,0,0,0-7.29.07c-.35-2.29-.8-4.66-1.38-7.07-5.6-27.76-28.92-43.86-28.92-43.86S133.5,107.52,100.87,116c-20.4,5.28-43.92,1.8-43.92,1.8A43.12,43.12,0,0,0,52,131.94c-.58,2.41-1,4.78-1.38,7.07a13,13,0,0,0-7.17-.1l-.12-.46S22.74,79.53,83.67,48.85Z"/><path class="cls-4" d="M172.14,239.69H63.41c0-9.42,10-31.07,29-34.66h0a91.51,91.51,0,0,0,50.69,0C162.12,208.61,172.14,230.27,172.14,239.69Z"/><path class="cls-5" d="M185.45,143.46a59.72,59.72,0,0,1-3,24.66c-5.25,15.41-17.32,30.3-39.33,36.91a91.51,91.51,0,0,1-50.69,0h0c-22-6.61-34.07-21.5-39.32-36.91a59.72,59.72,0,0,1-3-24.66c.14-1.44.32-2.93.55-4.45.35-2.29.8-4.66,1.38-7.07A43.12,43.12,0,0,1,57,117.77s23.52,3.48,43.92-1.8c32.63-8.45,53.73-27.89,53.73-27.89s23.32,16.1,28.92,43.86c.58,2.41,1,4.78,1.38,7.07C185.13,140.53,185.31,142,185.45,143.46Zm-31.54,1.48c0-4.17-2.61-7.55-5.83-7.55s-5.83,3.38-5.83,7.55,2.61,7.55,5.83,7.55S153.91,149.11,153.91,144.94Zm-60.61,0c0-4.17-2.61-7.55-5.83-7.55s-5.83,3.38-5.83,7.55,2.61,7.55,5.83,7.55S93.3,149.11,93.3,144.94Z"/><ellipse class="cls-6" cx="87.47" cy="144.94" rx="5.83" ry="7.55"/><ellipse class="cls-6" cx="148.08" cy="144.94" rx="5.83" ry="7.55"/><path class="cls-7" d="M201.9,151.08c.38,6-2.83,18.95-19.45,17a59.72,59.72,0,0,0,3-24.66c-.14-1.44-.32-2.93-.55-4.45a12.92,12.92,0,0,1,7.29-.07C198.08,140.67,201.62,146.66,201.9,151.08Z"/><path class="cls-7" d="M53.1,168.12c-16.62,1.91-19.83-11-19.45-17,.28-4.45,3.86-10.5,9.83-12.17a13,13,0,0,1,7.17.1c-.23,1.52-.41,3-.55,4.45A59.72,59.72,0,0,0,53.1,168.12Z"/><path class="cls-6" d="M118.87,165.06c-2.86,0-8.25-1.51-8.25-7.26,0-5.36,4.93-7.31,8.25-7.31a2,2,0,0,1,0,4c-.71,0-4.26.21-4.26,3.31s3.55,3.26,4.26,3.26a2,2,0,0,1,0,4Z"/><path class="cls-8" d="M117.77,188.58c-18.84,0-24.33-12-24.55-12.54a2,2,0,1,1,3.66-1.61c.18.41,4.78,10.15,20.89,10.15,16.26,0,20.85-10.05,20.9-10.15a2,2,0,1,1,3.66,1.61C142.11,176.55,136.62,188.58,117.77,188.58Z"/><path class="cls-6" d="M154.82,120.76a2,2,0,0,1-1.15-.36,8.88,8.88,0,0,0-5-1.62h-.07a8.82,8.82,0,0,0-3.92.93,2,2,0,1,1-1.76-3.59,12.67,12.67,0,0,1,13,1,2,2,0,0,1,.5,2.79A2,2,0,0,1,154.82,120.76Z"/><path class="cls-3" d="M158,59.8a1.83,1.83,0,0,1-.33,0,2,2,0,0,1-1.65-2.3c.76-4.58,1.07-8.25-1.79-13.87a2,2,0,1,1,3.56-1.81c3.4,6.68,3,11.35,2.18,16.33A2,2,0,0,1,158,59.8Z"/><path class="cls-3" d="M158,59.8a2,2,0,0,1-1.24-3.57c5.66-4.45,9-6.12,14.87-7.48a2,2,0,0,1,.9,3.9c-5.33,1.23-8.06,2.61-13.3,6.73A2,2,0,0,1,158,59.8Z"/><path class="cls-9" d="M67.94,109a2,2,0,0,1-.4-4c27.31-5.67,64.89-28.34,73.12-39a2,2,0,1,1,3.17,2.44C135.06,79.88,97,103.05,68.35,109A1.84,1.84,0,0,1,67.94,109Z"/><path class="cls-9" d="M65.37,93.09a2,2,0,0,1-.84-3.81c13.61-6.27,37.82-24.57,46.68-37a2,2,0,0,1,3.26,2.32c-9.2,12.9-34.23,31.85-48.27,38.31A2,2,0,0,1,65.37,93.09Z"/></g></g></g></svg>