<svg xmlns="http://www.w3.org/2000/svg" xmlns:xlink="http://www.w3.org/1999/xlink" viewBox="0 0 235.55 239.69"><defs><style>.cls-1{fill:#e85454;}.cls-2{clip-path:url(#clip-path);}.cls-3{fill:#f4cfb0;}.cls-4{fill:#f9df46;}.cls-5{fill:#5e4529;}.cls-6{fill:#ffe3ca;}.cls-7{fill:#411c05;}.cls-8{fill:#c1272d;}</style><clipPath id="clip-path"><circle class="cls-1" cx="117.77" cy="117.77" r="117.77" transform="translate(-48.78 117.77) rotate(-45)"/></clipPath></defs><g id="레이어_2" data-name="레이어 2"><g id="_C__1_1_" data-name="©©C©₩[_1_1_"><circle class="cls-1" cx="117.77" cy="117.77" r="117.77" transform="translate(-48.78 117.77) rotate(-45)"/><g class="cls-2"><path class="cls-3" d="M53.09,168.12c-16.61,1.91-19.82-11-19.45-17,.28-4.45,3.86-10.5,9.84-12.17a12.94,12.94,0,0,1,7.16.1c-.23,1.52-.41,3-.55,4.45A59.72,59.72,0,0,0,53.09,168.12Z"/><path class="cls-4" d="M172.14,239.69H63.4c0-9.42,10-31.08,29-34.66a91.54,91.54,0,0,0,50.7,0C162.11,208.61,172.14,230.27,172.14,239.69Z"/><path class="cls-5" d="M196.52,108.91c-.28-9.48-9.05-34-12.1-37.76C177.76,62.92,158,61.49,158,61.49S136.63,36,118.6,37.84c-42.77,4.32-70.93,34-79.54,62.3-2.56,8.42,4.29,38.31,4.29,38.31l.13.46a12.94,12.94,0,0,1,7.16.1c.35-2.29.8-4.66,1.38-7.07,2.9-16.1,12.54-30.41,24.54-36.28a198.71,198.71,0,0,1,47.54-2.4c26.45,1.84,30.62,5.33,30.62,5.33,7.83,12.29,20.21,20.69,27.43,27A69.82,69.82,0,0,1,185,139a13,13,0,0,1,7.23-.05S196.91,122.18,196.52,108.91Z"/><path class="cls-6" d="M124.1,93.26c26.45,1.84,30.62,5.33,30.62,5.33,7.83,12.29,20.21,20.69,27.43,27A69.82,69.82,0,0,1,185,139c.23,1.8.39,3.37.49,4.47a59.72,59.72,0,0,1-3,24.66c-5.25,15.41-17.32,30.3-39.33,36.91a91.54,91.54,0,0,1-50.7,0c-22-6.61-34.08-21.5-39.33-36.91a59.72,59.72,0,0,1-3-24.66c.14-1.44.32-2.93.55-4.45.35-2.29.8-4.66,1.38-7.07,2.9-16.1,12.54-30.41,24.54-36.28A198.71,198.71,0,0,1,124.1,93.26Zm29.8,51.68c0-4.17-2.61-7.55-5.83-7.55s-5.83,3.38-5.83,7.55,2.61,7.55,5.83,7.55S153.9,149.11,153.9,144.94Zm-60.6,0c0-4.17-2.61-7.55-5.83-7.55s-5.83,3.38-5.83,7.55,2.61,7.55,5.83,7.55S93.3,149.11,93.3,144.94Z"/><ellipse class="cls-7" cx="148.07" cy="144.94" rx="5.83" ry="7.55"/><path class="cls-3" d="M201.9,151.08c.37,6-2.84,18.95-19.45,17a59.72,59.72,0,0,0,3-24.66c-.1-1.1-.26-2.67-.49-4.47a13,13,0,0,1,7.23-.05C198.09,140.67,201.62,146.66,201.9,151.08Z"/><ellipse class="cls-7" cx="87.47" cy="144.94" rx="5.83" ry="7.55"/><path class="cls-7" d="M118.87,165.06c-2.85,0-8.26-1.51-8.26-7.26s5.41-7.31,8.26-7.31a2,2,0,0,1,0,4c-.71,0-4.27.21-4.27,3.31s3.56,3.26,4.27,3.26a2,2,0,0,1,0,4Z"/><path class="cls-8" d="M117.77,188.58c-18.85,0-24.33-12-24.56-12.54a2,2,0,0,1,3.67-1.61c.18.41,4.77,10.15,20.89,10.15s20.72-9.74,20.91-10.16a2,2,0,0,1,3.66,1.62C142.11,176.55,136.62,188.58,117.77,188.58Z"/><path class="cls-7" d="M154.81,120.76a2,2,0,0,1-1.15-.36,8.84,8.84,0,0,0-4.95-1.62,8.94,8.94,0,0,0-4,.93,2,2,0,0,1-1.77-3.59,12.66,12.66,0,0,1,13,1,2,2,0,0,1,.47,2.79A2,2,0,0,1,154.81,120.76Z"/><path class="cls-7" d="M80.73,120.76a2,2,0,0,1-1.15-3.63,12.93,12.93,0,0,1,7.21-2.35,13.23,13.23,0,0,1,5.81,1.34,2,2,0,1,1-1.77,3.59,9,9,0,0,0-4-.93,8.83,8.83,0,0,0-4.94,1.62A2.06,2.06,0,0,1,80.73,120.76Z"/><path class="cls-5" d="M158,63.49a2.18,2.18,0,0,1-.44,0,2,2,0,0,1-1.52-2.39c1-4.53,1.51-8.18-1.05-13.93a2,2,0,0,1,3.66-1.63c3,6.84,2.39,11.49,1.3,16.42A2,2,0,0,1,158,63.49Z"/><path class="cls-5" d="M158,63.49a2,2,0,0,1-1.16-3.63c5.87-4.13,9.29-5.62,15.25-6.67a2,2,0,0,1,.69,3.94c-5.4.95-8.2,2.18-13.64,6A2,2,0,0,1,158,63.49Z"/><path class="cls-7" d="M142.16,97.6a3,3,0,0,1-1.8-.6c-7.92-5.93-12.28-9.2-15.84-15.26a3,3,0,0,1,5.17-3c2.95,5,6.73,7.86,14.27,13.5a3,3,0,0,1-1.8,5.4Z"/><path class="cls-7" d="M122.9,96.5a3,3,0,0,1-1.45-.37l-.29-.16c-.34-.18-.67-.37-1-.56a43.71,43.71,0,0,1-16.69-16.89,3,3,0,1,1,5.17-3,38.17,38.17,0,0,0,14.56,14.77l.82.46.32.18a3,3,0,0,1-1.45,5.62Z"/><path class="cls-7" d="M106.39,97.47a2.06,2.06,0,0,1-.35,0,45.42,45.42,0,0,1-7.88-1.63c-9.93-3-16.9-8.5-18.63-14.8a3,3,0,0,1,5.79-1.59c1.14,4.16,6.86,8.34,14.56,10.64a39.55,39.55,0,0,0,6.85,1.42,3,3,0,0,1-.34,6Z"/></g></g></g></svg>