<svg xmlns="http://www.w3.org/2000/svg" xmlns:xlink="http://www.w3.org/1999/xlink" viewBox="0 0 235.55 238.36"><defs><style>.cls-1{fill:#6cc45f;}.cls-2{clip-path:url(#clip-path);}.cls-3{fill:#ffe3ca;}.cls-4{fill:#efc233;}.cls-5{fill:#411c05;}.cls-6{fill:#4c4641;}.cls-7{fill:#f4cfb0;}.cls-8{fill:#c1272d;}.cls-9{fill:#332e2b;}</style><clipPath id="clip-path"><circle class="cls-1" cx="117.77" cy="117.77" r="117.77" transform="translate(-48.78 117.77) rotate(-45)"/></clipPath></defs><g id="레이어_2" data-name="레이어 2"><g id="_C__1" data-name="©©C©₩[_1"><circle class="cls-1" cx="117.77" cy="117.77" r="117.77" transform="translate(-48.78 117.77) rotate(-45)"/><g class="cls-2"><path class="cls-3" d="M182.08,128c.25,2.63.37,5.12.37,7.26a65,65,0,0,1-3.93,22.12,60.15,60.15,0,0,1-22.25,29.17,63,63,0,0,1-27.82,10.39,82.92,82.92,0,0,1-21.35,0A62.8,62.8,0,0,1,78.65,186.1,60.16,60.16,0,0,1,57,157.37a65,65,0,0,1-3.93-22.12,47.85,47.85,0,0,1,.51-7.22,58.36,58.36,0,0,1,3.49-12.56c30.37-5.5,83.4-5.75,83.4-5.75l8.82-22.6,8,22.6s16,1.42,22.54,5.75A76.17,76.17,0,0,1,182.08,128Zm-28.17,6c0-4.17-2.61-7.55-5.83-7.55s-5.83,3.38-5.83,7.55,2.61,7.55,5.83,7.55S153.91,138.12,153.91,134ZM93.3,134c0-4.17-2.61-7.55-5.83-7.55s-5.83,3.38-5.83,7.55,2.61,7.55,5.83,7.55S93.3,138.12,93.3,134Z"/><path class="cls-4" d="M172.14,238.36H63.41c0-12.24,15.76-33.42,43.48-33.42,2.12,4.55,10.88,4.71,10.88,4.71s8.77-.16,10.88-4.71C156.38,204.94,172.14,226.12,172.14,238.36Z"/><ellipse class="cls-5" cx="148.08" cy="133.95" rx="5.83" ry="7.55"/><path class="cls-3" d="M128.45,196.93l.21,1.51v6.5c-2.11,4.55-10.88,4.71-10.88,4.71s-8.76-.16-10.88-4.71v-6.5l.21-1.51a82.92,82.92,0,0,0,21.35,0Z"/><path class="cls-6" d="M191.86,154.62c-2.6,2.11-6.39,3.38-11.8,3a11.55,11.55,0,0,1-1.16-.09l-.38-.14a60.15,60.15,0,0,1-22.25,29.17h22.88c6.11-5.6,10.63-17.39,13.42-31.5l.31-1.36A11.36,11.36,0,0,1,191.86,154.62Z"/><ellipse class="cls-5" cx="87.47" cy="133.95" rx="5.83" ry="7.55"/><path class="cls-6" d="M78.65,186.1l-.31.44H56.65c-6.14-7.61-11.72-19.95-15.3-34.42,2.6,3.66,7.25,6.31,15.3,5.39l.38-.14A60.16,60.16,0,0,0,78.65,186.1Z"/><path class="cls-6" d="M182.08,128l.37,0a12,12,0,0,1,11.94,4.84,15.09,15.09,0,0,1,1,1.54l0-1.6c1.53-22.72-.78-46.32-7.35-58.58-12.67-23.64-28.63-26.53-28.63-26.53s-40.32-37.41-90.6-1c-28.64,20.76-34.7,58.2-30.4,90.23l.16,1.23c.1-.4.19-.81.33-1.21,1.77-5.19,6.94-10.25,14.15-9l.51.08a58.36,58.36,0,0,1,3.49-12.56c30.37-5.5,83.4-5.75,83.4-5.75l8.82-22.6,8,22.6s16,1.42,22.54,5.75A76.17,76.17,0,0,1,182.08,128Z"/><path class="cls-7" d="M197.24,140.09c.24,3.83-.52,10.6-5.38,14.53-2.78,2.26-6.91,3.58-13,2.89l-.38-.14a65,65,0,0,0,3.93-22.12c0-2.14-.12-4.63-.37-7.26l.37,0a12,12,0,0,1,11.94,4.84A13.89,13.89,0,0,1,197.24,140.09Z"/><path class="cls-7" d="M41.35,152.12c-2.78-3.89-3.25-8.93-3.05-12a12.76,12.76,0,0,1,.65-3.18c1.77-5.19,6.94-10.25,14.15-9l.51.08a47.85,47.85,0,0,0-.51,7.22A65,65,0,0,0,57,157.37l-.38.14C48.6,158.43,44,155.78,41.35,152.12Z"/><path class="cls-5" d="M118.87,154.07a2.21,2.21,0,0,1-.62-.09c-1.27-.42-7.63-2.71-7.63-7.17s6.35-6.78,7.62-7.21a2,2,0,0,1,1.26,3.8c-2.26.76-4.88,2.41-4.88,3.41s2.62,2.62,4.87,3.36a2,2,0,0,1-.62,3.9Z"/><path class="cls-8" d="M117.77,177.59c-18.84,0-24.34-12-24.56-12.54a2,2,0,1,1,3.66-1.61c.18.4,4.79,10.15,20.9,10.15s20.71-9.75,20.9-10.16a2,2,0,0,1,3.66,1.62C142.11,165.56,136.62,177.59,117.77,177.59Z"/><path class="cls-9" d="M88.9,110.67a2,2,0,0,1-2-2c0-7.81,4.95-24.61,12-36.22a2,2,0,0,1,3.41,2.09c-7.1,11.61-11.46,27.7-11.46,34.13A2,2,0,0,1,88.9,110.67Z"/><path class="cls-9" d="M71.45,111.7a2,2,0,0,1-2-2c-.11-5.5,2.06-19.91,7.84-29.84a2,2,0,0,1,3.46,2c-5.31,9.13-7.4,22.79-7.3,27.74a2,2,0,0,1-2,2Z"/></g></g></g></svg>