<svg xmlns="http://www.w3.org/2000/svg" xmlns:xlink="http://www.w3.org/1999/xlink" viewBox="0 0 235.55 246.36"><defs><style>.cls-1{fill:#4fb24f;}.cls-2{clip-path:url(#clip-path);}.cls-3{fill:#4c391e;}.cls-4{fill:#f4cfb0;}.cls-5{fill:#411c05;}.cls-6{fill:#ffe3ca;}.cls-7{fill:#f2b233;}.cls-8{fill:#c1272d;}.cls-9{fill:#2d2012;}</style><clipPath id="clip-path"><circle class="cls-1" cx="117.77" cy="117.77" r="117.77" transform="translate(-48.78 117.77) rotate(-45)"/></clipPath></defs><g id="레이어_2" data-name="레이어 2"><g id="_C__1_1_" data-name="©©C©₩[_1_1_"><circle class="cls-1" cx="117.77" cy="117.77" r="117.77" transform="translate(-48.78 117.77) rotate(-45)"/><g class="cls-2"><path class="cls-3" d="M154,52.27s21,.91,34.18,24.84c11.37,20.68,8.13,48,2.54,60.22l0,.08a11.61,11.61,0,0,0-8.2-1.46L182,136h0a70,70,0,0,0-2.13-10.82c-11.34-7-25.05-22.82-31.79-36.24C128.66,115.77,71.53,125.19,56.65,122a71.79,71.79,0,0,0-3.11,14L53.1,136a11.61,11.61,0,0,0-7.28,1l-.23-1.23c-7.26-15.7-11.5-94.39,67.65-98.44C137.46,36,154,52.27,154,52.27Z"/><path class="cls-4" d="M45.82,136.91a11.61,11.61,0,0,1,7.28-1l.44.05a61.22,61.22,0,0,0-.44,7.25A65,65,0,0,0,57,165.37l-.38.14c-16.62,1.9-18.72-11.4-18.35-17.42A14,14,0,0,1,45.82,136.91Z"/><path class="cls-5" d="M148.08,134.4c3.22,0,5.83,3.38,5.83,7.54s-2.61,7.55-5.83,7.55-5.83-3.38-5.83-7.55S144.86,134.4,148.08,134.4Z"/><path class="cls-6" d="M128.66,206.43v6.5c-2.12,4.55-10.89,4.71-10.89,4.71s-8.76-.16-10.88-4.71v-6.5l.21-1.5a82.92,82.92,0,0,0,21.35,0Z"/><path class="cls-5" d="M87.47,134.4c3.22,0,5.83,3.38,5.83,7.54s-2.61,7.55-5.83,7.55-5.83-3.38-5.83-7.55S84.25,134.4,87.47,134.4Z"/><path class="cls-7" d="M172.14,246.36H63.41c0-12.24,15.76-33.43,43.48-33.43,2.12,4.55,10.88,4.71,10.88,4.71s8.77-.16,10.89-4.71C156.38,212.93,172.14,234.12,172.14,246.36Z"/><path class="cls-4" d="M182.45,136a11.61,11.61,0,0,1,8.2,1.46,14.09,14.09,0,0,1,6.6,10.68c.37,6-1.74,19.32-18.35,17.42l-.38-.14a65,65,0,0,0,3.93-22.12A60.94,60.94,0,0,0,182,136Z"/><path class="cls-6" d="M182,136a60.94,60.94,0,0,1,.44,7.24,65,65,0,0,1-3.93,22.12c-7,19.13-23.32,36-50.07,39.56a82.92,82.92,0,0,1-21.35,0C80.35,201.38,64,184.5,57,165.37a65,65,0,0,1-3.93-22.12,61.22,61.22,0,0,1,.44-7.25,71.79,71.79,0,0,1,3.11-14c14.88,3.19,72-6.23,91.43-33,6.74,13.42,20.45,29.23,31.79,36.24A70,70,0,0,1,182,136Zm-28.1,5.93c0-4.16-2.61-7.54-5.83-7.54s-5.83,3.38-5.83,7.54,2.61,7.55,5.83,7.55S153.91,146.11,153.91,141.94Zm-60.61,0c0-4.16-2.61-7.54-5.83-7.54s-5.83,3.38-5.83,7.54,2.61,7.55,5.83,7.55S93.3,146.11,93.3,141.94Z"/><path class="cls-8" d="M117.77,185.59c-18.84,0-24.33-12-24.55-12.55a2,2,0,1,1,3.66-1.61c.18.41,4.78,10.16,20.89,10.16,16.26,0,20.85-10.06,20.9-10.16a2,2,0,1,1,3.66,1.61C142.11,173.55,136.62,185.59,117.77,185.59Z"/><path class="cls-5" d="M154.82,117.77a2,2,0,0,1-1.15-.36,8.7,8.7,0,0,0-8.95-.7,2,2,0,0,1-1.79-3.58,12.71,12.71,0,0,1,13,1,2,2,0,0,1,.5,2.79A2,2,0,0,1,154.82,117.77Z"/><path class="cls-3" d="M154,54.27a1.93,1.93,0,0,1-.47-.05A2,2,0,0,1,152,51.8c1.09-4.5,1.67-8.13-.79-13.95a2,2,0,1,1,3.68-1.56c2.93,6.92,2.19,11.55,1,16.45A2,2,0,0,1,154,54.27Z"/><path class="cls-3" d="M154,54.27a2,2,0,0,1-1.12-3.65c5.94-4,9.39-5.45,15.36-6.38a2,2,0,0,1,.62,3.95c-5.42.85-8.25,2-13.74,5.74A2,2,0,0,1,154,54.27Z"/><path class="cls-5" d="M118.87,162.07a2.21,2.21,0,0,1-.62-.09c-1.27-.42-7.63-2.71-7.63-7.18s6.35-6.78,7.62-7.21a2,2,0,0,1,1.26,3.8h0c-2.26.76-4.88,2.41-4.88,3.41s2.62,2.63,4.87,3.37a2,2,0,0,1-.62,3.9Z"/><path class="cls-9" d="M65.37,108.14a2,2,0,0,1-.06-4C76,103.84,125,86.75,135.75,70.48a2,2,0,0,1,3.34,2.21c-11.62,17.54-62.22,35.13-73.67,35.45Z"/><path class="cls-9" d="M64.36,92.07a2,2,0,0,1-.72-3.86c14.94-5.72,46.28-23.94,57.3-36.43a2,2,0,0,1,3,2.65c-12.39,14-45.15,32.26-58.87,37.51A1.94,1.94,0,0,1,64.36,92.07Z"/></g></g></g></svg>