<svg xmlns="http://www.w3.org/2000/svg" xmlns:xlink="http://www.w3.org/1999/xlink" viewBox="0 0 235.55 238.36"><defs><style>.cls-1{fill:#8adeff;}.cls-2{clip-path:url(#clip-path);}.cls-3{fill:#77431d;}.cls-4{fill:#f4cfb0;}.cls-5{fill:#ffe3ca;}.cls-6{fill:#ffb3b3;}.cls-7{fill:#411c05;}.cls-8{fill:#c1272d;}.cls-9{fill:#4c2a12;}</style><clipPath id="clip-path"><circle class="cls-1" cx="117.77" cy="117.77" r="117.77" transform="translate(-48.78 117.77) rotate(-45)"/></clipPath></defs><g id="레이어_2" data-name="레이어 2"><g id="_C__1" data-name="©©C©₩[_1"><circle class="cls-1" cx="117.77" cy="117.77" r="117.77" transform="translate(-48.78 117.77) rotate(-45)"/><g class="cls-2"><path class="cls-3" d="M194.77,188.35c5.06,3.55,13.23.85,13.23.85S193.81,208,173.44,200.55c-17.05-6.26-11.87-18.13-11.87-18.13a59.43,59.43,0,0,0,12-14.55c8.87-3.63,15,.47,18.16,6.69S189.82,184.88,194.77,188.35Z"/><path class="cls-4" d="M197.25,140.09c.37,6-1.73,19.32-18.35,17.42l-.38-.14a65,65,0,0,0,3.93-22.12A61.22,61.22,0,0,0,182,128l.44,0a11.59,11.59,0,0,1,8.18,1.45A14.07,14.07,0,0,1,197.25,140.09Z"/><path class="cls-3" d="M188.09,74.15c7.75,16.91,6.6,44.29,2.54,55.25a11.59,11.59,0,0,0-8.18-1.45l-.44,0a71.17,71.17,0,0,0-2.14-10.81c-7.73-25.11-24-36.58-24-36.58s-49,33.4-98.78,31.56A87,87,0,0,0,53.6,128l-.5-.06a11.61,11.61,0,0,0-7.28,1l-.29-1.16c-2.25-12.06-11.17-55.7,23.33-81.09,50-36.81,90.6,1,90.6,1S176.91,49.77,188.09,74.15Z"/><path class="cls-5" d="M182,128a61.22,61.22,0,0,1,.44,7.25,65,65,0,0,1-3.93,22.12,63.87,63.87,0,0,1-4.94,10.5,59.43,59.43,0,0,1-12,14.55c-8.38,7.35-19.38,12.69-33.12,14.51a82.92,82.92,0,0,1-21.35,0C80.34,193.37,64,176.5,57,157.37a65,65,0,0,1-3.93-22.12,60.82,60.82,0,0,1,.5-7.24,87,87,0,0,1,3.5-15.84c49.8,1.84,98.78-31.56,98.78-31.56s16.26,11.47,24,36.58A71.17,71.17,0,0,1,182,128ZM153.91,134c0-4.17-2.61-7.55-5.83-7.55s-5.83,3.38-5.83,7.55,2.61,7.55,5.83,7.55S153.91,138.12,153.91,134ZM93.3,134c0-4.17-2.61-7.55-5.83-7.55s-5.83,3.38-5.83,7.55,2.61,7.55,5.83,7.55S93.3,138.12,93.3,134Z"/><path class="cls-6" d="M172.14,238.36H63.41c0-12.24,15.76-33.42,43.49-33.42,2.11,4.55,10.88,4.71,10.88,4.71s8.76-.16,10.88-4.71C156.38,204.94,172.14,226.12,172.14,238.36Z"/><ellipse class="cls-7" cx="148.08" cy="133.95" rx="5.83" ry="7.55"/><path class="cls-5" d="M128.66,198.44v6.5c-2.12,4.55-10.88,4.71-10.88,4.71s-8.77-.16-10.88-4.71v-6.5l.21-1.51a82.92,82.92,0,0,0,21.35,0Z"/><ellipse class="cls-7" cx="87.47" cy="133.95" rx="5.83" ry="7.55"/><path class="cls-4" d="M57,157.37l-.38.14c-16.61,1.9-18.72-11.4-18.35-17.42a14,14,0,0,1,7.52-11.18,11.61,11.61,0,0,1,7.28-1l.5.06a60.82,60.82,0,0,0-.5,7.24A65,65,0,0,0,57,157.37Z"/><path class="cls-7" d="M118.88,154.07a2.21,2.21,0,0,1-.62-.09c-1.27-.42-7.64-2.71-7.64-7.17s6.36-6.78,7.63-7.21a2,2,0,0,1,1.26,3.8h0c-2.26.76-4.89,2.41-4.89,3.41s2.62,2.63,4.88,3.36a2,2,0,0,1-.62,3.9Z"/><path class="cls-8" d="M117.78,177.59c-18.85,0-24.34-12-24.56-12.54a2,2,0,1,1,3.66-1.61c.18.4,4.78,10.15,20.9,10.15s20.71-9.75,20.9-10.16a2,2,0,0,1,3.66,1.62C142.12,165.56,136.62,177.59,117.78,177.59Z"/><path class="cls-7" d="M154.82,109.77a2,2,0,0,1-1.15-.36,9,9,0,0,0-5-1.62h-.07a8.83,8.83,0,0,0-3.93.93,2,2,0,1,1-1.76-3.59,12.53,12.53,0,0,1,5.81-1.34,12.91,12.91,0,0,1,7.2,2.34,2,2,0,0,1,.5,2.79A2,2,0,0,1,154.82,109.77Z"/><path class="cls-9" d="M63.41,98.87a2,2,0,0,1-.26-4C84,92.22,125,76.63,143.13,62.23a2,2,0,1,1,2.49,3.13C127,80.13,85,96.12,63.66,98.85A1.06,1.06,0,0,1,63.41,98.87Z"/><path class="cls-9" d="M63.41,82a2,2,0,0,1-.26-4c19-2.43,49.52-16.74,69.46-32.58a2,2,0,0,1,2.49,3.13C117.19,62.77,85.58,79.16,63.66,82Z"/></g></g></g></svg>