<svg xmlns="http://www.w3.org/2000/svg" xmlns:xlink="http://www.w3.org/1999/xlink" viewBox="0 0 235.55 235.55"><defs><style>.cls-1{fill:#ffde3b;}.cls-2{clip-path:url(#clip-path);}.cls-3{fill:#f4cfb0;}.cls-4{fill:#684716;}.cls-5{fill:#ffe3ca;}.cls-6{fill:#ea6868;}.cls-7{fill:#411c05;}.cls-8{fill:#c1272d;}.cls-9{fill:#422b0d;}</style><clipPath id="clip-path"><circle class="cls-1" cx="117.77" cy="117.77" r="117.77" transform="translate(-48.78 117.77) rotate(-45)"/></clipPath></defs><g id="레이어_2" data-name="레이어 2"><g id="_C__1" data-name="©©C©₩[_1"><circle class="cls-1" cx="117.77" cy="117.77" r="117.77" transform="translate(-48.78 117.77) rotate(-45)"/><g class="cls-2"><path class="cls-3" d="M197.24,140.09c.24,3.83-.52,10.6-5.39,14.53-2.78,2.26-6.91,3.58-13,2.89l-.37-.14a65,65,0,0,0,3.93-22.12,50.44,50.44,0,0,0-.56-7.21l.56-.09c5.84-1,10.34,2.09,12.78,6.08A13.55,13.55,0,0,1,197.24,140.09Z"/><path class="cls-3" d="M57,157.37l-.37.14c-7.41.85-11.93-1.33-14.64-4.53-3.37-4-3.92-9.55-3.71-12.89a12.71,12.71,0,0,1,1.06-4.24c2.08-4.8,7-9.1,13.73-7.9l.56.09a50.44,50.44,0,0,0-.56,7.21A65,65,0,0,0,57,157.37Z"/><path class="cls-4" d="M191.85,154.62c-2.78,2.26-6.91,3.58-13,2.89l-.37-.14a60.15,60.15,0,0,1-22.25,29.17h22.88c6.12-5.61,10.64-17.42,13.43-31.56l.34-1.34A11.21,11.21,0,0,1,191.85,154.62Z"/><path class="cls-4" d="M188.09,74.15c-12.67-23.64-28.64-26.53-28.64-26.53s-40.32-37.41-90.6-1c-28.18,20.43-34.49,57-30.6,88.7l.36,2.76a14,14,0,0,1,.75-2.27c2.08-4.8,7-9.1,13.73-7.9l.56.09a68,68,0,0,1,5.2-17.75c3-6.67,7.13-12.85,12.34-17.15.65-.54,1.32-1,2-1.53h0s17.86-6.52,48.75-6.53,40.41,6.53,40.41,6.53h0C173.3,99.24,180,115,181.89,128l.56-.09c5.84-1,10.34,2.09,12.78,6.08,0,.06.06.12.1.18l0-.25C197.05,110.87,194.77,86.63,188.09,74.15ZM158,67.21a93.35,93.35,0,0,0-42.5-9.77A93.35,93.35,0,0,0,73,67.21a1.69,1.69,0,0,1-2-2.68c18.56-19.42,44.49-18.74,44.49-18.74s25.93-.68,44.49,18.74A1.69,1.69,0,0,1,158,67.21Z"/><path class="cls-5" d="M121.94,85.08c30.89,0,40.41,6.53,40.41,6.53C173.3,99.24,180,115,181.89,128a50.44,50.44,0,0,1,.56,7.21,65,65,0,0,1-3.93,22.12,60.15,60.15,0,0,1-22.25,29.17,63,63,0,0,1-27.82,10.39,83,83,0,0,1-21.36,0A62.8,62.8,0,0,1,78.64,186.1,60.2,60.2,0,0,1,57,157.37a65,65,0,0,1-3.93-22.12,50.44,50.44,0,0,1,.56-7.21c1.89-13,8.59-28.8,19.54-36.43C73.19,91.61,91.05,85.09,121.94,85.08Zm32,48.87c0-4.17-2.61-7.55-5.83-7.55s-5.83,3.38-5.83,7.55,2.61,7.55,5.83,7.55S153.9,138.12,153.9,134Zm-60.6,0c0-4.17-2.62-7.55-5.84-7.55s-5.83,3.38-5.83,7.55,2.61,7.55,5.83,7.55S93.3,138.12,93.3,134Z"/><path class="cls-6" d="M172.14,238.36H63.4c0-12.24,15.76-33.42,43.49-33.42,2.11,4.55,10.88,4.71,10.88,4.71s8.76-.16,10.88-4.71C156.37,204.94,172.14,226.12,172.14,238.36Z"/><path class="cls-6" d="M159.94,64.53a1.69,1.69,0,0,1-2,2.68,93.35,93.35,0,0,0-42.5-9.77A93.35,93.35,0,0,0,73,67.21a1.69,1.69,0,0,1-2-2.68c18.56-19.42,44.49-18.74,44.49-18.74S141.38,45.11,159.94,64.53Z"/><ellipse class="cls-7" cx="148.07" cy="133.95" rx="5.83" ry="7.55"/><path class="cls-7" d="M87.46,126.4c3.22,0,5.84,3.38,5.84,7.55s-2.62,7.55-5.84,7.55-5.83-3.38-5.83-7.55S84.24,126.4,87.46,126.4Z"/><path class="cls-4" d="M57,157.37l-.37.14c-7.41.85-11.93-1.33-14.64-4.53-.23-.27-.44-.55-.65-.84l.29,1.2c3.6,13.95,9,25.8,15,33.2H78.33l.31-.44A60.2,60.2,0,0,1,57,157.37Z"/><path class="cls-7" d="M118.87,154.07a2.15,2.15,0,0,1-.61-.09c-1.28-.42-7.65-2.71-7.65-7.17s6.36-6.78,7.64-7.21a2,2,0,0,1,1.25,3.8h0c-2.26.76-4.89,2.41-4.89,3.41s2.63,2.63,4.88,3.36a2,2,0,0,1-.62,3.9Z"/><path class="cls-8" d="M117.77,177.59c-18.85,0-24.33-12-24.56-12.54a2,2,0,1,1,3.67-1.61c.18.4,4.77,10.15,20.89,10.15s20.72-9.75,20.91-10.16a2,2,0,0,1,3.66,1.62C142.11,165.56,136.62,177.59,117.77,177.59Z"/><path class="cls-7" d="M154.81,109.77a2,2,0,0,1-1.14-.36,9,9,0,0,0-5-1.62h-.08a8.82,8.82,0,0,0-3.91.93,2,2,0,0,1-1.77-3.59,13.5,13.5,0,0,1,5.8-1.34,13,13,0,0,1,7.21,2.34,2,2,0,0,1-1.15,3.64Z"/><path class="cls-7" d="M80.74,109.77a2,2,0,0,1-1.16-3.63,12.93,12.93,0,0,1,7.21-2.35,13.25,13.25,0,0,1,5.8,1.34,2,2,0,0,1-1.75,3.59,8.66,8.66,0,0,0-9,.69A2.05,2.05,0,0,1,80.74,109.77Z"/><path class="cls-9" d="M100.14,88.77a3,3,0,0,1-2.19-1c-.11-.11-.21-.23-.33-.34-2.84-2.72-9.92-5.06-14.84-5a3,3,0,1,1-.13-6c6.55-.12,15.14,2.83,19.1,6.62.2.18.39.39.59.6a3,3,0,0,1-2.2,5Z"/><path class="cls-9" d="M123.34,87.67a3,3,0,0,1-2.77-1.85c-.07-.17-.15-.36-.24-.53a13.65,13.65,0,0,0-10.68-7.66,3,3,0,0,1,.7-6,19.64,19.64,0,0,1,15.38,11c.12.24.26.56.38.86a3,3,0,0,1-1.62,3.92A2.88,2.88,0,0,1,123.34,87.67Z"/><path class="cls-9" d="M146.57,89.72a3,3,0,0,1-2.77-1.86c-1.81-4.41-4.42-7.06-8.22-8.32a3,3,0,0,1,1.9-5.69c5.42,1.8,9.42,5.75,11.87,11.73a3,3,0,0,1-1.64,3.92A3,3,0,0,1,146.57,89.72Z"/><path class="cls-5" d="M128.65,198.44v6.5c-2.12,4.55-10.88,4.71-10.88,4.71s-8.77-.16-10.89-4.71v-6.5l.21-1.51a82.92,82.92,0,0,0,21.35,0Z"/></g></g></g></svg>