<svg xmlns="http://www.w3.org/2000/svg" xmlns:xlink="http://www.w3.org/1999/xlink" viewBox="0 0 235.55 239.69"><defs><style>.cls-1{fill:#ffb655;}.cls-2{clip-path:url(#clip-path);}.cls-3{fill:#6b4322;}.cls-4{fill:#ffe3ca;}.cls-5{fill:#6bb9db;}.cls-6{fill:#411c05;}.cls-7{fill:#c1272d;}.cls-8{fill:#442a17;}</style><clipPath id="clip-path"><circle class="cls-1" cx="117.77" cy="117.77" r="117.77"/></clipPath></defs><g id="레이어_2" data-name="레이어 2"><g id="_C__1" data-name="©©C©₩[_1"><circle class="cls-1" cx="117.77" cy="117.77" r="117.77"/><g class="cls-2"><path class="cls-3" d="M191.82,93.18c14.68,30.93,16.51,62.08,2.7,83.84-10.81,17-34.59,20.3-34.59,20.3,20.74-13.57,27.17-36.68,25.52-53.86a84.68,84.68,0,0,0-1.93-11.52c-7.68-24.81-31.71-35.76-31.71-35.76S103,126.74,55.43,120.31A59.61,59.61,0,0,0,52,131.94a84.59,84.59,0,0,0-1.92,11.52c-1.66,17.18,4.77,40.29,25.52,53.86,0,0-32.49-2.44-41.6-27C23.92,143,31.84,76.92,72.77,54.72c53.92-29.26,82,6.27,82,6.27S176.68,61.3,191.82,93.18Z"/><path class="cls-4" d="M92.41,205a64,64,0,0,1-16.79-7.71c-20.75-13.57-27.18-36.68-25.52-53.86A84.59,84.59,0,0,1,52,131.94a59.61,59.61,0,0,1,3.41-11.63c47.61,6.43,96.38-24.13,96.38-24.13s24,10.95,31.71,35.76a84.68,84.68,0,0,1,1.93,11.52c1.65,17.18-4.78,40.29-25.52,53.86A64.13,64.13,0,0,1,143.12,205a91.58,91.58,0,0,1-50.71,0Zm61.5-60.09c0-4.17-2.61-7.54-5.83-7.54s-5.83,3.37-5.83,7.54,2.61,7.55,5.83,7.55S153.91,149.11,153.91,144.94Zm-60.61,0c0-4.17-2.61-7.54-5.83-7.54s-5.83,3.37-5.83,7.54,2.61,7.55,5.83,7.55S93.3,149.11,93.3,144.94Z"/><path class="cls-5" d="M172.14,239.69H63.41c0-9.42,10-31.06,29-34.66a91.58,91.58,0,0,0,50.71,0C162.12,208.61,172.14,230.27,172.14,239.69Z"/><path class="cls-6" d="M148.08,137.4c3.22,0,5.83,3.37,5.83,7.54s-2.61,7.55-5.83,7.55-5.83-3.38-5.83-7.55S144.86,137.4,148.08,137.4Z"/><path class="cls-6" d="M87.47,137.4c3.22,0,5.83,3.37,5.83,7.54s-2.61,7.55-5.83,7.55-5.83-3.38-5.83-7.55S84.25,137.4,87.47,137.4Z"/><path class="cls-6" d="M118.87,165.06a9.64,9.64,0,0,1-6.35-2.42,6.62,6.62,0,0,1-1.9-4.84c0-5.36,4.93-7.31,8.25-7.31a2,2,0,0,1,0,4c-.71,0-4.26.21-4.26,3.31s3.55,3.26,4.26,3.26a2,2,0,0,1,0,4Z"/><path class="cls-7" d="M117.77,188.58c-18.84,0-24.34-12-24.56-12.54a2,2,0,1,1,3.66-1.61c.18.4,4.79,10.15,20.9,10.15s20.71-9.74,20.9-10.16a2,2,0,0,1,3.66,1.62C142.11,176.55,136.62,188.58,117.77,188.58Z"/><path class="cls-6" d="M154.81,120.76a2.06,2.06,0,0,1-1.16-.36,8.84,8.84,0,0,0-5-1.62,8.56,8.56,0,0,0-4,.93,2,2,0,1,1-1.76-3.59,12.67,12.67,0,0,1,5.8-1.34,12.93,12.93,0,0,1,7.21,2.35,2,2,0,0,1-1.15,3.63Z"/><path class="cls-8" d="M61.67,106.89l-1.33,0a2,2,0,0,1,0-4h1.27c23.12,0,62.46-14.94,78-27.13a2,2,0,1,1,2.47,3.14C125.77,91.74,85.94,106.89,61.67,106.89Z"/><path class="cls-8" d="M63.41,90.72a2,2,0,0,1-.42-4c19.88-4.27,47.56-14.66,61.32-27.39A2,2,0,0,1,127,62.32c-14.32,13.24-42.8,24-63.2,28.36A2.06,2.06,0,0,1,63.41,90.72Z"/></g></g></g></svg>