<svg xmlns="http://www.w3.org/2000/svg" xmlns:xlink="http://www.w3.org/1999/xlink" viewBox="0 0 235.55 239.69"><defs><style>.cls-1{fill:#8cc63f;}.cls-2{clip-path:url(#clip-path);}.cls-3{fill:#c64b4b;}.cls-4{fill:#f4cfb0;}.cls-5{fill:#754c24;}.cls-6{fill:#ffe3ca;}.cls-7{fill:#411c05;}.cls-8{fill:#c1272d;}</style><clipPath id="clip-path"><circle class="cls-1" cx="117.77" cy="117.77" r="117.77" transform="translate(-48.78 117.77) rotate(-45)"/></clipPath></defs><g id="레이어_2" data-name="레이어 2"><g id="_C__1_1_" data-name="©©C©₩[_1_1_"><circle class="cls-1" cx="117.77" cy="117.77" r="117.77" transform="translate(-48.78 117.77) rotate(-45)"/><g class="cls-2"><path class="cls-3" d="M172.17,239.69H63.44c0-9.42,10-31.07,29-34.66h0a91.51,91.51,0,0,0,50.69,0C162.15,208.61,172.17,230.27,172.17,239.69Z"/><path class="cls-4" d="M53.13,168.12c-16.62,1.91-19.83-11-19.45-17,.28-4.42,3.82-10.41,9.71-12.14a12.92,12.92,0,0,1,7.29.07c-.23,1.52-.41,3-.55,4.45A59.72,59.72,0,0,0,53.13,168.12Z"/><path class="cls-5" d="M150.79,54.69s8.6-3.52,19,3.9c13.32,9.48,29.69,40.61,34.83,43.52-4.79,2.39-12.28,6.23-12.28,6.23a60.56,60.56,0,0,1,10,8.34c-3.6,7.53-7.72,17.85-10.18,22.26a12.92,12.92,0,0,0-7.29.07c-.35-2.29-.8-4.66-1.38-7.07-8.47-27.24-16.12-33-16.12-33a106.55,106.55,0,0,1-3.11,15.62C157.66,96.86,141,86.63,141,86.63s-34.61,5.2-66.49,25.25c0-7.45,7-18.49,7.3-18.92-.56.21-18.55,7.2-27.54,31.25A83.63,83.63,0,0,0,50.68,139a12.92,12.92,0,0,0-7.29-.07c-2.42-9.34-3.56-20.18-8.64-26.57,8.77-2.79,11-7.46,11-7.46S36.18,98.76,31.8,92c10.76-3.58,35-41.8,78.86-52.23C129.49,35.27,150.79,54.69,150.79,54.69Z"/><path class="cls-4" d="M201.93,151.08c.38,6-2.83,18.95-19.45,17a59.72,59.72,0,0,0,3-24.66c-.14-1.44-.32-2.93-.55-4.45a12.92,12.92,0,0,1,7.29-.07C198.11,140.67,201.65,146.66,201.93,151.08Z"/><path class="cls-6" d="M185.48,143.46a59.72,59.72,0,0,1-3,24.66c-5.25,15.41-17.32,30.3-39.33,36.91a91.51,91.51,0,0,1-50.69,0h0c-22-6.61-34.07-21.5-39.32-36.91a59.72,59.72,0,0,1-3-24.66c.14-1.44.32-2.93.55-4.45a83.63,83.63,0,0,1,3.63-14.8c9-24,27-31,27.54-31.25-.27.43-7.3,11.47-7.3,18.92C106.43,91.83,141,86.63,141,86.63s16.62,10.23,23.28,27.9a106.55,106.55,0,0,0,3.11-15.62s7.65,5.79,16.12,33c.58,2.41,1,4.78,1.38,7.07C185.16,140.53,185.34,142,185.48,143.46Zm-31.54,1.48c0-4.17-2.61-7.55-5.83-7.55s-5.83,3.38-5.83,7.55,2.61,7.55,5.83,7.55S153.94,149.11,153.94,144.94Zm-60.61,0c0-4.17-2.61-7.55-5.83-7.55s-5.83,3.38-5.83,7.55,2.61,7.55,5.83,7.55S93.33,149.11,93.33,144.94Z"/><ellipse class="cls-7" cx="87.5" cy="144.94" rx="5.83" ry="7.55"/><ellipse class="cls-7" cx="148.11" cy="144.94" rx="5.83" ry="7.55"/><path class="cls-7" d="M118.9,165.06c-2.85,0-8.25-1.51-8.25-7.26,0-5.36,4.94-7.31,8.25-7.31a2,2,0,0,1,0,4c-.71,0-4.26.21-4.26,3.31s3.55,3.26,4.26,3.26a2,2,0,0,1,0,4Z"/><path class="cls-8" d="M117.8,188.58c-18.84,0-24.33-12-24.55-12.54a2,2,0,1,1,3.66-1.61c.19.41,4.78,10.15,20.89,10.15s20.72-9.74,20.9-10.16a2,2,0,0,1,2.64-1,2,2,0,0,1,1,2.63C142.14,176.55,136.65,188.58,117.8,188.58Z"/><path class="cls-7" d="M80.76,120.76a2,2,0,0,1-1.64-.85,2,2,0,0,1,.5-2.79,12.67,12.67,0,0,1,13-1,2,2,0,1,1-1.76,3.59,8.79,8.79,0,0,0-4-.93,9,9,0,0,0-5,1.62A2,2,0,0,1,80.76,120.76Z"/><path class="cls-7" d="M154.85,120.76a2,2,0,0,1-1.15-.36,9,9,0,0,0-5-1.62h-.07a8.82,8.82,0,0,0-3.92.93,2,2,0,0,1-1.76-3.59,13,13,0,0,1,5.8-1.34,12.91,12.91,0,0,1,7.22,2.35,2,2,0,0,1-1.15,3.63Z"/><path class="cls-5" d="M150.79,56.69h0a2,2,0,0,1-2-2c.1-4.63-.11-8.31-3.74-13.47a2,2,0,0,1,3.27-2.3c4.31,6.13,4.58,10.81,4.47,15.86A2,2,0,0,1,150.79,56.69Z"/><path class="cls-5" d="M150.79,56.69a2,2,0,0,1-1.45-3.38c5-5.2,8-7.33,13.66-9.5a2,2,0,1,1,1.44,3.73c-5.1,2-7.61,3.72-12.2,8.53A2,2,0,0,1,150.79,56.69Z"/><path class="cls-7" d="M96.7,88.63a2,2,0,0,1-1.42-3.4c7.4-7.48,27.41-18.63,44.29-22.68a2,2,0,0,1,.93,3.89C124.28,70.33,105.15,81,98.13,88A2,2,0,0,1,96.7,88.63Z"/><path class="cls-7" d="M62.45,87.37a2,2,0,0,1-1.27-3.54c19.44-16,46.83-32.95,61-32.18a2,2,0,1,1-.22,4c-9.48-.53-32.51,10.06-58.21,31.28A2.06,2.06,0,0,1,62.45,87.37Z"/><path class="cls-7" d="M179.71,94.43a2,2,0,0,1-1.9-1.38c-2.14-6.63-11.25-17.65-18.06-21.84a2,2,0,1,1,2.09-3.4c7.58,4.66,17.37,16.55,19.77,24a2,2,0,0,1-1.29,2.52A2.15,2.15,0,0,1,179.71,94.43Z"/></g></g></g></svg>