<svg xmlns="http://www.w3.org/2000/svg" xmlns:xlink="http://www.w3.org/1999/xlink" viewBox="0 0 235.55 246.36"><defs><style>.cls-1{fill:#f46e6e;}.cls-2{clip-path:url(#clip-path);}.cls-3{fill:#f4cfb0;}.cls-4{fill:#411c05;}.cls-5{fill:#ffe3ca;}.cls-6{fill:#473e2f;}.cls-7{fill:#86d0e2;}.cls-8{fill:#c1272d;}.cls-9{fill:#2b241a;}</style><clipPath id="clip-path"><circle class="cls-1" cx="117.77" cy="117.77" r="117.77" transform="translate(-48.78 117.77) rotate(-45)"/></clipPath></defs><g id="레이어_2" data-name="레이어 2"><g id="_C__1_1_" data-name="©©C©₩[_1_1_"><circle class="cls-1" cx="117.77" cy="117.77" r="117.77" transform="translate(-48.78 117.77) rotate(-45)"/><g class="cls-2"><path class="cls-3" d="M182.45,143.25A61.22,61.22,0,0,0,182,136l.44-.05a11.64,11.64,0,0,1,8.18,1.44,14.1,14.1,0,0,1,6.62,10.7c.38,6-1.73,19.32-18.35,17.42l-.38-.14A65,65,0,0,0,182.45,143.25Z"/><path class="cls-4" d="M87.47,134.4c3.22,0,5.83,3.38,5.83,7.54s-2.61,7.55-5.83,7.55-5.83-3.38-5.83-7.55S84.25,134.4,87.47,134.4Z"/><path class="cls-4" d="M148.08,134.4c3.22,0,5.83,3.38,5.83,7.54s-2.61,7.55-5.83,7.55-5.83-3.38-5.83-7.55S144.86,134.4,148.08,134.4Z"/><path class="cls-3" d="M45.82,136.91a11.61,11.61,0,0,1,7.28-1l.44.05a61.22,61.22,0,0,0-.44,7.25A65,65,0,0,0,57,165.37l-.38.14c-16.61,1.9-18.72-11.4-18.34-17.42A14,14,0,0,1,45.82,136.91Z"/><path class="cls-5" d="M86.82,108.29l16.36-19.51,14.6,17.8,14.59-17.8,16.37,19.51,11-15.11s12.42,16,19.18,28.82l1,3.19A69.74,69.74,0,0,1,182,136a61.22,61.22,0,0,1,.44,7.25,65,65,0,0,1-3.93,22.12c-7,19.13-23.31,36-50.07,39.56a82.92,82.92,0,0,1-21.35,0C80.35,201.37,64,184.5,57,165.37a65,65,0,0,1-3.93-22.12,61.22,61.22,0,0,1,.44-7.25,71.79,71.79,0,0,1,3.11-14c6.76-12.82,19.18-28.82,19.18-28.82Zm67.09,33.65c0-4.16-2.61-7.54-5.83-7.54s-5.83,3.38-5.83,7.54,2.61,7.55,5.83,7.55S153.91,146.11,153.91,141.94Zm-60.61,0c0-4.16-2.61-7.54-5.83-7.54s-5.83,3.38-5.83,7.54,2.61,7.55,5.83,7.55S93.3,146.11,93.3,141.94Z"/><path class="cls-6" d="M45.53,135.74C38.27,120,34,41.36,113.18,37.3c24.21-1.24,40.73,15,40.73,15s21,.91,34.19,24.83c11.37,20.68,8.13,48,2.53,60.22a11.64,11.64,0,0,0-8.18-1.44L182,136a69.74,69.74,0,0,0-2.14-10.81l-1-3.19c-6.76-12.82-19.18-28.82-19.18-28.82l-11,15.11L132.37,88.78l-14.59,17.8-14.6-17.8L86.82,108.29l-11-15.11s-12.42,16-19.18,28.82a71.79,71.79,0,0,0-3.11,14L53.1,136a11.61,11.61,0,0,0-7.28,1Z"/><path class="cls-7" d="M172.14,246.36H63.41c0-12.24,15.76-33.43,43.49-33.43,2.11,4.55,10.88,4.71,10.88,4.71s8.76-.16,10.88-4.71C156.38,212.93,172.14,234.12,172.14,246.36Z"/><path class="cls-5" d="M128.66,206.43v6.5c-2.12,4.55-10.88,4.71-10.88,4.71s-8.77-.16-10.88-4.71v-6.5l.21-1.5a82.92,82.92,0,0,0,21.35,0Z"/><path class="cls-8" d="M117.78,185.59c-18.85,0-24.34-12-24.56-12.55a2,2,0,1,1,3.66-1.61c.18.41,4.78,10.16,20.9,10.16s20.71-9.75,20.9-10.17a2,2,0,0,1,3.66,1.62C142.12,173.55,136.62,185.59,117.78,185.59Z"/><path class="cls-4" d="M154.82,117.77a2,2,0,0,1-1.15-.36,8.84,8.84,0,0,0-4.95-1.62,8.59,8.59,0,0,0-4,.92,2,2,0,1,1-1.8-3.57,13.08,13.08,0,0,1,5.83-1.35,12.76,12.76,0,0,1,7.19,2.34,2,2,0,0,1,.5,2.79A2,2,0,0,1,154.82,117.77Z"/><path class="cls-4" d="M80.74,117.77a2,2,0,0,1-1.16-3.63,12.68,12.68,0,0,1,13-1,2,2,0,1,1-1.79,3.58,8.76,8.76,0,0,0-4-.92,8.86,8.86,0,0,0-5,1.62A2,2,0,0,1,80.74,117.77Z"/><path class="cls-6" d="M153.91,54.34a1.93,1.93,0,0,1-.47-.05A2,2,0,0,1,152,51.88c1.09-4.51,1.67-8.15-.78-14a2,2,0,1,1,3.68-1.55c2.92,6.91,2.18,11.54,1,16.45A2,2,0,0,1,153.91,54.34Z"/><path class="cls-6" d="M153.91,54.34a2,2,0,0,1-1.66-.88,2,2,0,0,1,.54-2.77c6-4,9.42-5.46,15.37-6.39a2,2,0,0,1,.62,4c-5.4.84-8.23,2-13.75,5.75A2,2,0,0,1,153.91,54.34Z"/><path class="cls-4" d="M118.88,162.07a2.21,2.21,0,0,1-.62-.09c-1.28-.42-7.64-2.71-7.64-7.18s6.36-6.78,7.63-7.21a2,2,0,0,1,1.26,3.8h0c-2.26.76-4.89,2.41-4.89,3.41s2.62,2.64,4.88,3.37a2,2,0,0,1-.62,3.9Z"/><path class="cls-9" d="M65.71,84.74a1.94,1.94,0,0,1-1-.27A2,2,0,0,1,64,81.74c18.87-32.48,49.17-34.89,61.3-34.43a2,2,0,0,1-.07,4h-.08c-11.43-.44-39.92,1.83-57.69,32.44A2,2,0,0,1,65.71,84.74Z"/><path class="cls-9" d="M97.62,80.15a2,2,0,0,1-1.26-.45,2,2,0,0,1-.3-2.81c8.54-10.6,22.72-18.25,37-20a2,2,0,0,1,.48,4c-13.3,1.6-26.48,8.7-34.38,18.51A2,2,0,0,1,97.62,80.15Z"/></g></g></g></svg>