<svg xmlns="http://www.w3.org/2000/svg" xmlns:xlink="http://www.w3.org/1999/xlink" viewBox="0 0 235.55 239.69"><defs><style>.cls-1{fill:#3db6e0;}.cls-2{clip-path:url(#clip-path);}.cls-3{fill:#4c4436;}.cls-4{fill:#ffe3ca;}.cls-5{fill:#f4cfb0;}.cls-6{fill:#f4b147;}.cls-7{fill:#411c05;}.cls-8{fill:#c1272d;}.cls-9{fill:#302b23;}</style><clipPath id="clip-path"><circle class="cls-1" cx="117.77" cy="117.77" r="117.77" transform="translate(-48.78 117.77) rotate(-45)"/></clipPath></defs><g id="레이어_2" data-name="레이어 2"><g id="_C__1_1_" data-name="©©C©₩[_1_1_"><circle class="cls-1" cx="117.77" cy="117.77" r="117.77" transform="translate(-48.78 117.77) rotate(-45)"/><g class="cls-2"><path class="cls-3" d="M50.65,139a13,13,0,0,0-7.17-.1l-.12-.46S20.56,77.62,81.49,46.93c43.9-22.11,68.68,4.51,68.68,4.51a57.52,57.52,0,0,1,35.53,25.4c19.41,30.93,6.49,62.1,6.49,62.1a12.92,12.92,0,0,0-7.29.07c-.34-2.29-.79-4.66-1.37-7.07-4.91-19.76-17.49-35-17.49-35l-13.85,13.92L135.12,92.43l-17.34,17.06L100.44,92.43,83.37,110.82,69.51,96.9s-12.57,15.28-17.48,35C51.45,134.35,51,136.72,50.65,139Z"/><path class="cls-4" d="M143.14,205a91.58,91.58,0,0,1-50.71,0c-22-6.61-34.08-21.5-39.33-36.91a59.72,59.72,0,0,1-3-24.66c.14-1.44.32-2.93.55-4.45.35-2.29.8-4.66,1.38-7.07,4.91-19.76,17.48-35,17.48-35l13.86,13.92,17.07-18.39,17.34,17.06,17.34-17.06,17.07,18.39L166,96.9s12.58,15.28,17.49,35c.58,2.41,1,4.78,1.37,7.07.23,1.52.41,3,.55,4.45a59.74,59.74,0,0,1-3,24.66h0C177.21,183.53,165.15,198.41,143.14,205Zm10.77-60.09c0-4.17-2.61-7.55-5.83-7.55s-5.83,3.38-5.83,7.55,2.61,7.55,5.83,7.55S153.91,149.11,153.91,144.94Zm-60.61,0c0-4.17-2.61-7.55-5.83-7.55s-5.83,3.38-5.83,7.55,2.61,7.55,5.83,7.55S93.3,149.11,93.3,144.94Z"/><path class="cls-5" d="M53.1,168.12c-16.61,1.91-19.82-11-19.45-17,.28-4.45,3.86-10.5,9.83-12.17a13,13,0,0,1,7.17.1c-.23,1.52-.41,3-.55,4.45A59.72,59.72,0,0,0,53.1,168.12Z"/><path class="cls-5" d="M201.9,151.08c.38,6-2.83,18.94-19.44,17a59.74,59.74,0,0,0,3-24.66c-.14-1.44-.32-2.93-.55-4.45a12.92,12.92,0,0,1,7.29-.07C198.09,140.67,201.63,146.66,201.9,151.08Z"/><path class="cls-6" d="M172.14,239.69H63.41c0-9.42,10-31.08,29-34.66a91.58,91.58,0,0,0,50.71,0C162.13,208.63,172.14,230.27,172.14,239.69Z"/><ellipse class="cls-7" cx="148.08" cy="144.94" rx="5.83" ry="7.55"/><ellipse class="cls-7" cx="87.47" cy="144.94" rx="5.83" ry="7.55"/><path class="cls-7" d="M118.88,165.06c-2.86,0-8.26-1.51-8.26-7.26s5.4-7.31,8.26-7.31a2,2,0,0,1,0,4c-.72,0-4.27.21-4.27,3.31s3.56,3.26,4.27,3.26a2,2,0,0,1,0,4Z"/><path class="cls-8" d="M117.78,188.58c-18.85,0-24.34-12-24.56-12.54a2,2,0,1,1,3.66-1.61c.18.41,4.78,10.15,20.9,10.15s20.71-9.75,20.9-10.16a2,2,0,0,1,3.66,1.62C142.11,176.55,136.62,188.58,117.78,188.58Z"/><path class="cls-7" d="M80.74,120.76a2,2,0,0,1-1.16-3.63,12.93,12.93,0,0,1,7.21-2.35h.11a12.79,12.79,0,0,1,5.7,1.34,2,2,0,1,1-1.76,3.59,8.83,8.83,0,0,0-3.93-.93h-.07a8.9,8.9,0,0,0-5,1.62A2,2,0,0,1,80.74,120.76Z"/><path class="cls-7" d="M154.82,120.76a2,2,0,0,1-1.15-.36,9,9,0,0,0-5-1.62,8.47,8.47,0,0,0-4,.93,2,2,0,0,1-1.78-3.59,13.58,13.58,0,0,1,5.81-1.34,12.91,12.91,0,0,1,7.2,2.34,2,2,0,0,1,.5,2.79A2,2,0,0,1,154.82,120.76Z"/><path class="cls-3" d="M150.17,53.44a1.83,1.83,0,0,1-.33,0,2,2,0,0,1-1.65-2.3c.76-4.58,1.07-8.26-1.79-13.87A2,2,0,0,1,150,35.43c3.4,6.67,3,11.35,2.18,16.34A2,2,0,0,1,150.17,53.44Z"/><path class="cls-3" d="M150.17,53.44a2,2,0,0,1-1.24-3.57c5.66-4.44,9-6.12,14.87-7.48a2,2,0,1,1,.9,3.9c-5.33,1.23-8.06,2.61-13.3,6.73A2,2,0,0,1,150.17,53.44Z"/><path class="cls-9" d="M65.77,87.37a2,2,0,0,1-1.7-3c19.49-31.67,50.64-36.24,64.38-34.23a2,2,0,0,1-.58,4c-12.84-1.88-42,2.47-60.39,32.36A2,2,0,0,1,65.77,87.37Z"/><path class="cls-9" d="M104.33,80.68a2,2,0,0,1-1.51-3.31c12.61-14.58,31.1-19.48,37.6-19.48a2,2,0,0,1,0,4c-5.93,0-22.86,4.56-34.57,18.1A2,2,0,0,1,104.33,80.68Z"/></g></g></g></svg>