<svg xmlns="http://www.w3.org/2000/svg" viewBox="0 0 28 28"><defs><style>.cls-1,.cls-2{fill:#fff;}.cls-2{fill-rule:evenodd;}</style></defs><g id="레이어_2" data-name="레이어 2"><g id="Layer_1" data-name="Layer 1"><path class="cls-1" d="M9.5,12A1.5,1.5,0,1,0,8,10.5,1.5,1.5,0,0,0,9.5,12Z"/><path class="cls-1" d="M18.5,12A1.5,1.5,0,1,0,17,10.5,1.5,1.5,0,0,0,18.5,12Z"/><path class="cls-1" d="M21.87,18.36a1,1,0,1,0-1.74-1,7,7,0,0,1-12.19.11,1,1,0,1,0-1.74,1,9,9,0,0,0,15.67-.14Z"/><path class="cls-2" d="M0,14A14,14,0,1,1,14,28,14,14,0,0,1,0,14ZM14,2A12,12,0,1,0,26,14,12,12,0,0,0,14,2Z"/></g></g></svg>