<?xml version="1.0" encoding="utf-8"?>
<!-- Generator: Adobe Illustrator 26.1.0, SVG Export Plug-In . SVG Version: 6.00 Build 0)  -->
<svg version="1.1" id="레이어_1" xmlns="http://www.w3.org/2000/svg" xmlns:xlink="http://www.w3.org/1999/xlink" x="0px"
	 y="0px" viewBox="0 0 651.4 478.9" style="enable-background:new 0 0 651.4 478.9;" xml:space="preserve">
<style type="text/css">
	.st0{fill:#FDC93A;}
	.st1{fill:none;stroke:#063F58;stroke-width:6;stroke-linecap:round;stroke-linejoin:round;}
	.st2{fill:#86CDD7;}
	.st3{fill:#063F58;}
	.st4{opacity:0.4;fill:#063F58;enable-background:new    ;}
</style>
<g id="theo-cogs">
	<path class="st0" d="M533.8,323.6c-2.8,1.5-8.7,4.8-8.7,4.8c-14.3-13.1-28.4-24.9-43.5-36.5c3.7-1.3,7.2-2.9,10.6-4.8
		c6.2-3.8,9.1-10,7-17.1c-0.9-2.8-2.1-5.4-3.5-8c0.7-0.3,1.4-0.6,2-0.8l9.5-3.5c5.1-1.9,10.6-3.5,15.3-6.5c4.1-2.6,7-6.5,7.3-11.5
		c0.4-6.1-1.2-12.8-2.4-18.8c-1.2-6.6-2.7-13.1-4.5-19.5c-1.3-4.9-2.6-10.4-6.3-14.2c-5.8-5.9-16.7-4.9-22.9,0.5
		c-0.1-0.7-0.5-1.3-1.1-1.6c-6-3.2-10.9,2.9-11.6,8.4c-0.6,5,0.2,14,6.8,14.5c0.3,6.3,3.9,12.5,7.1,18.2c0.4,1,0.8,1.9,1.1,2.9
		c-3.5,1-7.1,1.9-10.8,2.6c-2.5,0.5-5,0.9-7.4,1.5c-6.3-9.5-12.8-18.9-19.4-28.1c-10-14-20.1-28.3-31.5-41.2
		c-4.6-5.2-10.1-9.6-17.2-10.8c-6.3-1.3-12.7,1.1-16.6,6.2c-5.1,6.5-6.9,15.8-9.3,23.5c-3,9.6-5.2,20.5-7.6,30.3
		c-3,12.6-5.5,23.6-7.7,34.7c-9.1-0.2-18.2,0.5-27.1,2c-4.3,0.8-6.6,2.5-9.6,5.6c-3.2,3.3-6.3,6.7-9.4,10.1
		c-6.1,6.6-11.9,13.6-17.3,20.8c-4.2,5.8-8.3,14-1.6,19.6c0.3,0.3,0.7,0.4,1.1,0.5c1,0.9,2.1,1.6,3.2,2.2c0.4,0.3,0.7,0.5,1.1,0.8
		c1.2,5.3,5.4,7.5,10.8,5.6c3.6-1.1,6.7-3.3,9.1-6.2c3-1.1,5.2-3.7,5.8-6.8c0.5-2.6,0-5.3-1.5-7.5c1.8-2.3,3.7-4.6,5.5-6.9
		c1.8-2.3,3.6-4.8,6.2-6.4c3-1.9,6.7-1.6,10.1-1.6h7.6c-0.7,4-1.4,8.1-2.2,12.4c-0.7,4.1-1.3,8.2-0.2,11.9c1.9,6.4,8.1,8.5,14.2,8.1
		c5.4-0.5,10.8-1.3,16.1-2.5c-0.2,2.7-0.4,5.4-0.7,8c-0.3,2.3-0.7,4.6-1.1,6.9c-0.2,1.9-0.6,3.8-1.2,5.7l-1.3-0.1
		c-1-0.1-2-0.1-3-0.2c-2.4-0.2-4.7-0.5-7.1-0.9c-4.5-0.7-9-1.6-13.4-2.8c-1.2-0.3-2.4,0.4-2.7,1.6c0,0.2-0.1,0.4-0.1,0.6
		c-7.7,9.6-11.6,21.5-19.2,31.2c-2.2,1.5-0.2,5.1,2.2,3.7c4-2.4,8-4.6,12.1-6.8c10.3,3.1,20.9,5.2,31.6,6.2c8.7,0.8,18.4,1.2,25.3-5
		c5.6-5.1,7.8-12.4,8.7-19.7c0.8-3,1.4-6,2-8.9c1.8-8.3,3-16.7,3.8-25.2c5.6-0.9,11.1-1.8,16.7-2.8c9.2,8.8,18.4,17.8,27.4,26.8
		c5.3,5.3,10.5,10.6,15.7,16c3.9,4.1,7.7,8.9,12.2,12.5c2.6,3.1,5.4,5.9,8.4,8.6c3.3,3.1,8.5,2.9,11.6-0.4c0.2-0.2,0.4-0.4,0.5-0.6
		c3.4-4.4,6.5-9,9.4-13.7c4.6-8,9.8-21.5,11.3-25.3S536.6,322,533.8,323.6z"/>
	<path class="st1" d="M403.4,229.7c1.6-2.1,4.6-3.2,6.9-2c2,1.1,3,3.6,5.1,4.4c3.7,1.4,7-3.5,10.9-3.6c2.4,0,4.4,1.7,6.6,2.8
		c1.7,0.9,3.6,1.2,5.5,0.8c1.9-0.5,3.2-2.1,3.4-4"/>
	<line class="st1" x1="416.5" y1="214.8" x2="416.7" y2="211.2"/>
	<line class="st1" x1="431.9" y1="218.2" x2="431.1" y2="215.4"/>
	<path class="st1" d="M328.2,301.3c0.8,2.4,0.6,5.1-0.5,7.4"/>
	<path class="st1" d="M359.5,165.5l-6.1-5.3"/>
	<line class="st1" x1="345.2" y1="183.1" x2="337.5" y2="180.9"/>
	<path class="st1" d="M487.2,206.7c0.3-2.5,1-4.9,2.2-7.1c1.2-2.2,3.4-3.8,5.8-4.4c0.6-0.1,1.3-0.1,1.9,0c1.9,0.4,3.3,2,3.5,3.9
		c0.2,1.9-0.6,3.8-2.1,4.9c3,0.6,5.8,2.2,7.8,4.6"/>
	<path class="st1" d="M515.6,194.8c1,1.8-0.8,3.9-2.4,5.2c-2.9,2.2-10.9,3.5-14.6,4.1"/>
	<path class="st2" d="M167.5,253.4c-2.2-0.7-4.6,0-6.8,0.4c-3.8,0.6-7.7,1.2-11.5,1.9c-5.5-6.4-12.2-11.4-19.9-14.9
		c-0.2-2.5-0.2-5.1-0.1-7.6c0.2-3.2,1-6.3-0.6-9.2c-1.6-2.9-4.1-3.2-7.1-3.8c-4.8-1-9.7-1.8-14.6-2.7c-2-0.4-4.5,0.3-5.4,2.3
		c-2.2,4.7-4.5,9.5-6.7,14.2c-1.1,0.2-2.2,0.4-3.3,0.7c-6.3,1.6-13.9,3.7-19.5,7.7c-2.2,1.2-4.4,2.6-6.4,4.1
		c-2.6-1.1-5.2-2.3-7.8-3.7s-5-2.9-8.2-2c-7,1.9-12.9,11.8-16.1,17.7c-1,1.9-0.7,4.3,0.8,5.8l10.5,10.1c-1.6,3.8-2.8,7.8-3.6,11.9
		c-1.1,6-1.1,12.1-0.1,18.1c-1.3,1.1-2.6,2.2-4,3.3c-2.2,1.7-5.4,3.3-6.9,5.7c-0.3,0.5-0.6,1.1-0.7,1.7c-1.7,1.5-2.2,4.1-1.1,6.1
		c1,2,2.7,6,4.9,9.5c1.4,4.3,2.6,10.3,8.3,10.1c2.7-0.1,5.4-1.7,7.9-2.6l6.6-2.5c1.7,2,3.6,3.9,5.6,5.7c4.9,4.4,10.4,8.1,16.4,10.8
		c0.2,4.6,0.8,9.2,1.8,13.7c1.3,5.7,4.4,6.5,9.8,7.1c4.6,0.5,13.5,3.2,17.4-0.4c2.1-2,3-6,4-8.6c0.9-2.2,1.8-4.5,2.7-6.7
		c1.3-0.2,2.5-0.5,3.8-0.8c7.9-1.9,15.3-5.4,21.8-10.2l2.8,1.6c2.6,1.5,5.4,4,8.4,4.7c6.2,1.5,10.5-4.9,14.1-9
		c3.1-3.6,10-9.6,9.3-15.1c-0.5-4.5-6.1-8.7-10.6-12c2.5-8,2.6-17.2,1.2-26.1c3.9-2.8,7.8-5.5,11.4-8.6c5-4.2,3.7-8,1.4-13.5
		C175.4,263.5,173.1,255.1,167.5,253.4z M122.5,319.1c-9.5,7.7-22.9,8.1-32.9,1c-15.4-9.2-18.3-29.3-8-43.8
		c10.6-15,33-13.8,44.7-0.7C137.6,288.1,135.7,308.8,122.5,319.1z"/>
	<path class="st3" d="M7.4,160.5c2.7,6.1,6,15.8,14.1,14.8c5-0.6,10.3-3,15.1-4.4l8.2-2.4c4.1,4.8,15.7,14.3,15.7,14.3
		s-4.8,14.9-5.2,19c-1,9.8,3.1,12.7,11.7,15.8c6.4,2.3,17.4,9.3,23.8,4.3c3.4-2.6,5.6-7.2,8.1-10.8l6-8.6c1.4,0.2,2.9,0.5,4.4,0.6
		c6.7,0.8,13.5,0.9,20.3,0.3c1.6,2.5,3.2,5,4.8,7.5c2,3,4.3,8.1,7.7,9.9s6.6,0.1,9.8-1l15.4-5.8c3.4-1.3,6.8-2,8.1-5.6
		c1.2-3.2,0-7.9-0.7-11.2c-0.9-4.7-2.8-9.3-4.5-13.9c6.2-5.5,11.7-11.8,16.4-18.6c2.9,0.8,5.9,1.5,8.8,2.2c3.9,0.9,8.9,2.8,13,2.1
		c6.9-1.2,9.6-13.3,12.1-18.7c3.7-8,7.7-14.3-0.7-20.6c-4.9-3.6-10-7-15.1-10.2c0.9-7.9,0.7-15.9-0.5-23.8c5.7-4,12.9-6.4,16.9-12.2
		c4.5-6.5-2.1-15.1-4.9-21.1c-2.9-6.2-4.7-14.1-13-12.5c-6.2,1.3-12.3,3.1-18.3,5.4c-3.1-3.2-6.7-6-10.5-8.4
		c-2.9-2.6-5.9-5.1-9.2-7.3l3.2-16.7c0.9-4.5,2-8.7-1.1-12.6c-4.6-6-15.2-8.7-20.6-9.4s-9.8-0.2-10.6,1c-4.9,7.3-10,14.4-14.5,21.9
		c-1.5-0.1-3-0.3-4.5-0.4l-1.9-0.2c-4.8-0.5-9.6-0.5-14.3-0.1C98,16,94.4,7.9,89.1,2.8c-6.6-6.3-17.6-0.4-24.5,2.3
		c-6.2,2.4-17.9,5.2-17.9,13.6s5.4,17.1,6.7,25.7c-5.2,4.3-9.9,9.1-14.1,14.4l-13.5-2.4c-3.3-0.6-7.4-2-10.8-0.6
		C8.9,58.3,4.7,67.6,2.6,73.5c-2.2,6.2-4.8,15.4,0.6,20.7c5.1,5.1,12.7,8.9,19.6,12.4c-0.8,5.9-0.7,11.9,0.3,17.8
		c-5.5,5.1-12.6,7.4-17.9,12.9C-0.7,143.2,4.7,154.3,7.4,160.5z M68.3,79.6c3.8-4.5,8.3-8.3,13.4-11.3c13.3-13.1,40.2-13.1,56.1-4.7
		c26.3,13.9,36,48.4,20.9,74.1c-15.4,26.3-51.5,34.4-76.7,17.4C57.9,138.7,48.6,103.1,68.3,79.6L68.3,79.6z"/>
	<path class="st3" d="M91.2,132.2c6.6,6.5,16.1,9.1,25.1,7c6.7-0.5,12.9-3.6,17.4-8.6c15.1-16.5,4.6-51.7-20.4-49.8
		c-6,0.5-11.7,2.8-16.3,6.5c-8.3,5-13.3,13.9-13.3,23.5c0,0.5,0.1,1,0.1,1.5C83.3,119.7,86,127,91.2,132.2z"/>
	<path class="st2" d="M644.9,222.8c-3.7-4.3-9.5-5.9-14.7-7.8c-5.9-2.1-11.9-4-18-5.6c-4.2-19.7-11.5-38.5-21.7-55.9l11.9-16.2
		c3.1-4.2,9.1-9.7,9.2-15.3c0.1-5.8-6.2-11.4-9.4-15.6c-4.9-6.2-9.9-12.3-15-18.3c-4.5-5.3-9.1-10.6-13.9-15.6c-3.8-4-8-7-13.8-6.8
		s-11,3.1-16,5.6c-6,3-11.7,6.6-17.1,10.7c-8.2-5.8-16.8-10.9-25.8-15.3c-8.4-4.1-17.2-7.4-26.2-9.9c-0.5-6-1.3-12-2.3-18
		c-1-5.8-1.3-13.6-5.1-18.4c-3.4-4.3-10.1-5.7-15.1-7.1c-7.2-2-14.6-3.4-22-4c-11-0.9-27.5-2.6-34.8,7.6c-3.8,5.3-5.5,12.6-7.4,18.7
		c-1.7,5.3-3.1,10.6-4.4,16c-11,1.6-21.7,5.5-32.1,9.5c-4.7,1.7-9.3,3.8-13.7,6.2c-2.2,0.9-4.4,1.9-6.5,2.9
		c-9.3-7.8-20.1-15.4-31.3-18.9c-13.6-4.3-27.2,8.8-36.9,16.9c-5.7,4.7-11.1,9.7-16.2,15c-3.8,3.9-7.5,8.1-7.4,13.9
		c0.1,6.4,4.6,12.8,7.3,18.4c2.9,5.9,5.9,11.8,8.9,17.7c-5.2,6.1-9.5,13.1-13.6,19.8c-5.4,8.6-9.4,18-12,27.8
		c-6.4,0.3-12.8,0.6-19.1,1.3c-6,0.6-11.8,2.2-16.2,6.6c-9.1,9.1-10.1,24.9-11.2,37c-0.7,6.9-0.9,13.9-0.8,20.8
		c0.1,6.3,0.7,12.6,6,16.9c5.5,4.5,13.8,6.2,20.4,8.5l13.9,5c1.4,8.2,3.1,16.4,5.3,24.4c3.4,12.6,7.3,27.1,14.3,39
		c-7.4,7.5-15.1,17-17.7,26.7c-3.2,12.2,8.7,23.4,16.1,31.7c4.5,5,9.2,9.8,14.2,14.4c3.7,3.4,8.6,9,13.9,9.7s11-3.7,15.3-6.3
		c6.6-4,12.8-8.5,18.8-13.3c5.4,5.1,11.5,9.5,18,13.2c9,5,18.4,9.5,27.6,14.1c4.2,2.2,8.4,4.3,12.8,6.1c-0.1,5.8,0.1,11.6,0.7,17.4
		c0.6,5.4,0.8,12.7,4.2,17.2c3.1,4,8,4.8,12.6,5.3c6.7,0.7,13.4,1.2,20.2,1.5s13.5,0.6,20.2,0.8c5.5,0.2,11.4,0.4,16.2-2.7
		c4.4-2.8,6.3-7.6,8-12.3c2.3-6.5,4.6-13.1,6.8-19.6c7.5-1.7,14.9-4,21.7-6.1c11-3.4,21.8-7.5,32.3-12.3c3.6-1.7,7.3-3.3,10.9-5.2
		c3.4,3.1,7,6.1,10.8,8.8c4.7,3.4,10.2,8,15.7,9.9c5.3,1.8,8.3-1.4,12-4.8l17.8-16l16.8-15.1c3.6-3.2,9.5-6.9,9.9-12.2
		c0.5-5.8-4.5-11.7-7.2-16.4c-3.6-6.3-7.1-12.7-10.7-19c10.5-15.2,18.7-31.9,24.4-49.5c3-0.3,7.7-0.4,8.6-0.5
		c3.3-0.5,6.6-1.1,9.9-1.8c6.2-1.4,14.3-2.6,19.4-6.6c4.8-3.8,5.8-10.5,6.8-16.1c1.3-6.9,2-14,2.2-21c0.2-7-0.2-14.1-1.2-21.1
		C649.3,233.6,648.7,227.2,644.9,222.8z M571.7,214.4c7.9,37.8,0.5,78.8-19.7,111.6c-10.1,16.5-23.1,31-38.3,42.8
		c-1.4,1.1-3,2.4-4.8,3.7c-31.1,25.3-74.3,34.8-113.8,26.8c-8.7-1.8-17.3-4.3-25.6-7.5c-7-2.3-13.8-5.1-20.5-8.3
		c-20.8-10.1-39.1-24.4-53.9-42.1c-18.9-22.7-30.6-51.4-32.1-80.6c-0.5-3.1-0.9-6.2-1.2-9.2c-2.8-24.3,2.6-47.2,13.7-68.8
		c17.9-34.8,49.8-66.7,75.6-77.3s42.6-16.1,59.6-16.2c8.8-0.1,17.5,0.5,26.2,1.7c10.8,1.4,26.5,3.7,38,7.7
		c24.7,8.6,45.4,27.1,62.5,46.4c8.6,9.7,15.8,20.6,21.1,32.5C563.6,188.7,570,206.2,571.7,214.4z"/>
	<path class="st4" d="M644.9,222.8c-3.7-4.3-9.5-5.9-14.7-7.8c-5.9-2.1-11.9-4-18-5.6c-4.2-19.7-11.5-38.5-21.7-55.9l11.9-16.2
		c3.1-4.2,9.1-9.7,9.2-15.3c0.1-5.8-6.2-11.4-9.4-15.6c-4.9-6.2-9.9-12.3-15-18.3c-4.5-5.3-9.1-10.6-13.9-15.6c-3.8-4-8-7-13.8-6.8
		s-11,3.1-16,5.6c-6,3-11.7,6.6-17.1,10.7c-8.2-5.8-16.8-10.9-25.8-15.3c-8.4-4.1-17.2-7.4-26.2-9.9c-0.5-6-1.3-12-2.3-18
		c-1-5.8-1.3-13.6-5.1-18.4c-3.4-4.3-10.1-5.7-15.1-7.1c-7.2-2-14.6-3.4-22-4c-11-0.9-27.5-2.6-34.8,7.6c-3.8,5.3-5.5,12.6-7.4,18.7
		c-1.7,5.3-3.1,10.6-4.4,16c-11,1.6-21.7,5.5-32.1,9.5c-4.7,1.7-9.3,3.8-13.7,6.2c-2.2,0.9-4.4,1.9-6.5,2.9
		c-9.3-7.8-20.1-15.4-31.3-18.9c-13.6-4.3-27.2,8.8-36.9,16.9c-5.7,4.7-11.1,9.7-16.2,15c-3.8,3.9-7.5,8.1-7.4,13.9
		c0.1,6.4,4.6,12.8,7.3,18.4c2.9,5.9,5.9,11.8,8.9,17.7c-5.2,6.1-9.5,13.1-13.6,19.8c-5.4,8.6-9.4,18-12,27.8
		c-6.4,0.3-12.8,0.6-19.1,1.3c-6,0.6-11.8,2.2-16.2,6.6c-9.1,9.1-10.1,24.9-11.2,37c-0.7,6.9-0.9,13.9-0.8,20.8
		c0.1,6.3,0.7,12.6,6,16.9c5.5,4.5,13.8,6.2,20.4,8.5l13.9,5c1.4,8.2,3.1,16.4,5.3,24.4c3.4,12.6,7.3,27.1,14.3,39
		c-7.4,7.5-15.1,17-17.7,26.7c-3.2,12.2,8.7,23.4,16.1,31.7c4.5,5,9.2,9.8,14.2,14.4c3.7,3.4,8.6,9,13.9,9.7s11-3.7,15.3-6.3
		c6.6-4,12.8-8.5,18.8-13.3c5.4,5.1,11.5,9.5,18,13.2c9,5,18.4,9.5,27.6,14.1c4.2,2.2,8.4,4.3,12.8,6.1c-0.1,5.8,0.1,11.6,0.7,17.4
		c0.6,5.4,0.8,12.7,4.2,17.2c3.1,4,8,4.8,12.6,5.3c6.7,0.7,13.4,1.2,20.2,1.5s13.5,0.6,20.2,0.8c5.5,0.2,11.4,0.4,16.2-2.7
		c4.4-2.8,6.3-7.6,8-12.3c2.3-6.5,4.6-13.1,6.8-19.6c7.5-1.7,14.9-4,21.7-6.1c11-3.4,21.8-7.5,32.3-12.3c3.6-1.7,7.3-3.3,10.9-5.2
		c3.4,3.1,7,6.1,10.8,8.8c4.7,3.4,10.2,8,15.7,9.9c5.3,1.8,8.3-1.4,12-4.8l17.8-16l16.8-15.1c3.6-3.2,9.5-6.9,9.9-12.2
		c0.5-5.8-4.5-11.7-7.2-16.4c-3.6-6.3-7.1-12.7-10.7-19c10.5-15.2,18.7-31.9,24.4-49.5c3-0.3,7.7-0.4,8.6-0.5
		c3.3-0.5,6.6-1.1,9.9-1.8c6.2-1.4,14.3-2.6,19.4-6.6c4.8-3.8,5.8-10.5,6.8-16.1c1.3-6.9,2-14,2.2-21c0.2-7-0.2-14.1-1.2-21.1
		C649.3,233.6,648.7,227.2,644.9,222.8z M571.7,214.4c7.9,37.8,0.5,78.8-19.7,111.6c-10.1,16.5-23.1,31-38.3,42.8
		c-1.4,1.1-3,2.4-4.8,3.7c-31.1,25.3-74.3,34.8-113.8,26.8c-8.7-1.8-17.3-4.3-25.6-7.5c-7-2.3-13.8-5.1-20.5-8.3
		c-20.8-10.1-39.1-24.4-53.9-42.1c-18.9-22.7-30.6-51.4-32.1-80.6c-0.5-3.1-0.9-6.2-1.2-9.2c-2.8-24.3,2.6-47.2,13.7-68.8
		c17.9-34.8,49.8-66.7,75.6-77.3s42.6-16.1,59.6-16.2c8.8-0.1,17.5,0.5,26.2,1.7c10.8,1.4,26.5,3.7,38,7.7
		c24.7,8.6,45.4,27.1,62.5,46.4c8.6,9.7,15.8,20.6,21.1,32.5C563.6,188.7,570,206.2,571.7,214.4z"/>
</g>
</svg>
