<?xml version="1.0" encoding="utf-8"?>
<!-- Generator: Adobe Illustrator 26.1.0, SVG Export Plug-In . SVG Version: 6.00 Build 0)  -->
<svg version="1.1" id="레이어_1" xmlns="http://www.w3.org/2000/svg" xmlns:xlink="http://www.w3.org/1999/xlink" x="0px"
	 y="0px" viewBox="0 0 600 800" style="enable-background:new 0 0 600 800;" xml:space="preserve">
<style type="text/css">
	.st0{fill:#86CDD7;}
	.st1{fill:none;stroke:#063F58;stroke-width:6;stroke-linecap:round;stroke-linejoin:round;}
	.st2{fill:#7BBB96;}
	.st3{fill:#F87761;}
	.st4{fill:#063F58;}
	.st5{fill:#FDC93A;}
</style>
<g id="theo-meditate">
	<path class="st0" d="M540.3,486.3c-14.9-18.8-29.8-37.9-47.3-54.4c-38.9-36.7-64.4-46.5-83.9-47.4c-19.5-0.8-41.7,1.5-40.6,16.3
		s18,8.4,24.9,7.7c7-0.7,10.3-0.8,13.9,0.6c-26.3,14.6-18.8,77.6,16.6,66.1c1.3-0.3,2.3-1.3,2.7-2.5c14.9,19.8,46.8,53.5,45.5,58.8
		c-1,4.2-28.5,21.3-46.7,31.6c-5.8-12.3-11.8-24.6-17.8-36.7c-15.6-31.1-31.1-63.1-50.1-92.7c-7.7-12-17.9-22.8-32.7-28
		c-13.6-4.8-28.1-3.2-39.5,5.2c-14.2,10.5-22.6,27.8-31.3,41.7c-11,17.5-21,37.5-30.8,55.5c-10.7,19.7-19.9,37.6-28.5,55.1
		c-26.8-6-66.2-17-66.7-21.3c-0.5-5,41.1-47.5,64.3-71.4c8-0.9,16.6,0.5,23.5-4.6c7.1-5.3,8-14.2,6.8-22.4
		c-1.4-9.6-6.1-23.2-14.5-29.6l13.9,0.1l15.8,0.2c4,0,8.3,0.3,11.9-1.7c5.8-3.2,6.9-10.4,4.1-16c-3.7-7.4-12.3-9-19.7-10.1
		c-20.1-3-40.1-3.4-59,4.9c-17.4,7.7-31.9,20.7-45.5,33.6C100,453,73.4,484.1,50.3,517.8c-10.3,14.8-18.4,30.4-15.2,49
		c3.1,17.5,14.7,32.3,28.8,42.6c17.4,12.6,38.8,19.3,59.2,25.5c11.1,3.4,22.3,6.4,33.6,9.1l-5,10.9c-3.5,7.6-6.6,15.4-5.9,23
		c1.2,13.1,13.9,19.7,27.5,21.5c17.1,2.2,35,3.8,52.2,4.6c37.8,1.7,75.5,0.7,113.4,1.1c18.4,0.2,36.7-0.2,55.1-1.6
		c16.7-1.3,34.9-1.1,50.8-6c15.5-4.8,24.7-15.6,23.2-30.3c-1-10.2-5.1-20.3-9.4-30.2c25.3-12.4,58.7-33.2,72.3-43.9
		c15-11.8,33.1-29.4,34.6-46.6C567.3,523.3,553.9,503.6,540.3,486.3z"/>
	<path class="st1" d="M423.7,472.8c-4.1-2.8-8.2-9.7-8.7-14.7"/>
	<path class="st1" d="M393.9,437.9c-0.1-4.3,2.7-8.2,6.3-10.5c3.6-2.3,7.8-3.4,12-4.3"/>
	<path class="st1" d="M408.1,407.4c4.9-2.5,10.3-3.7,15.8-3.5"/>
	<path class="st1" d="M186.2,408.4c3.4-1.1,7.1-1.1,10.6-0.1c3.5,1.2,7.2,1.7,10.2,3.9"/>
	<path class="st1" d="M197.9,423.9c6.9-1.1,13.9,0.8,19.4,5.1"/>
	<path class="st1" d="M193.4,468.7c5.2-3.1,8.7-8.4,9.7-14.4"/>
	<path class="st1" d="M270.3,472.2c5,6,13.8,6.8,19.8,1.8c1.2-1,2.2-2.1,3-3.4"/>
	<path class="st1" d="M332.1,471.1c3.6,4.5,10.2,5.3,14.7,1.7c1.3-1,2.3-2.4,3-3.9"/>
	<path class="st1" d="M302.5,502.4c5-1.3,10.3-1.8,15.5-1.4"/>
	<path class="st2" d="M429.9,114.6c-10.8-7.6-24.5-9.3-37.2-10.8c-19-2.2-38.2-3.5-57.3-3.9c-2.4,0-4.4,2-4.4,4.4
		c-0.6,8.6-1,17.3-1.4,25.9c1.1,0.8,2.4,1.2,3.7,1.2c3.9,0.2,7.7-0.3,11.5,0.5c5.9,1.3,10.9,4.8,12.2,9.9c1.3,5.1-1.9,9.5-7.1,11.8
		c-3.1,1.2-6.3,1.9-9.6,1.9c-3.3,0.2-8.4-0.4-11.6,1.3c-0.1,4.7-0.2,9.4-0.2,14.2c-0.4,8.2-0.9,16.3-1.3,24.5c0,2.4,2,4.4,4.4,4.4
		l41.9,1.5c0.4,1.9,0.8,3.8,1,5.8c0.9,5.3,3.5,11,9.1,12.7c5.6,1.7,11-2,13.1-7.1c1.1-2.9,1.4-5.9,0.9-8.9c-0.1-0.6-0.2-1.1-0.3-1.7
		l36.3,1.3c2,0,3.7-1.3,4.3-3.2c3.6-16.6,7.8-33.9,7.8-51C445.8,135.6,441.4,122.6,429.9,114.6z"/>
	<path class="st3" d="M436.4,265.2c-0.8-5.9-0.6-17.1-6.3-20.9c-3-2-7.4-1.3-10.7-1.1c-5.4,0.2-10.8,0.5-16.2,0.8
		c-4,0.2-7.9,0.5-11.9,0.8c0.9,2.4,1.6,4.9,2.2,7.4c0.4,2.7,1.1,5.8,0.3,8.5c-1,4.1-5.1,6.6-9.2,5.6c-0.1,0-0.2-0.1-0.4-0.1
		c-5.9-1.7-6.8-8.1-7.6-13.2c-0.2-1-0.3-4.4-0.7-6.9c-14.2,1.3-28.3,3.1-42.4,5.2c-1.9,0.5-3.2,2.3-3.2,4.3
		c-0.2,9.6-0.2,19.2,0,28.8c-4.6-2.1-9.6-3.3-14.3-1.6c-6.3,2.5-10,9-8.9,15.7c1.1,7.2,7.2,13.2,14.6,13.5c3.4,0.1,6.7-1.1,9.3-3.3
		c0.5,9.9,1.1,19.9,1.9,29.8c0,0.4,0.1,0.8,0.2,1.1l-0.5,4.4c-0.3,2.3,2.3,4.6,4.4,4.4c20.9-1.3,41.7-3.2,62.4-5.5
		c15.2-1.8,30.9-2.5,35.1-20C439,304.3,438.8,284,436.4,265.2z"/>
	<path class="st4" d="M299.7,133.4c-4-11-15-10.2-24.8-7.6c-2.8-9.3-5.8-18.6-9.1-27.7c-0.7-2.3-3.1-3.7-5.4-3.1
		c-18.1,4.1-36.1,8.2-54.2,12.3c-3.7,0.8-13.5,3-23.6,5.2c-16.5,3.6-27.3,19.6-24.4,36.3c1.1,6.3,2.1,11.9,2.7,14.6
		c3.1,13.8,6.6,27.4,10.7,40.8c1.3,6.9,2.3,17.5,10.9,16.7c5.3-0.5,10.9-2.8,16-4.1l16.9-4.5l2.8-0.8c0.4,2,1,3.9,1.8,5.8
		c0.3,0.6,0.5,1.3,0.9,1.9c0.5,0.8,1.1,1.6,1.8,2.3c0,0,0,0,0,0.1c4.3,5.1,10.6,3.8,16.1,1.3c8.4-4,9.2-10.9,7.4-18
		c-0.1-0.2-0.2-0.5-0.2-0.7l39.4-10.5c2.5-0.7,3.4-3.1,3.1-5.4c-1.7-11.6-3.9-23-6.5-34.4C291.7,150.1,303.8,144.7,299.7,133.4z"/>
	<path class="st5" d="M279.2,312.2c-6.5,0.3-12.6-3.5-14.2-10.1c-1.5-6.4,2.1-12.9,8.2-15.2c3.6-1.3,6.9-0.7,10.5,0.2
		c1.5,0.6,3.1,1.1,4.7,1.4c-2.1-12.6-4.4-25.2-6.9-37.8c-0.5-1.9-2.3-3.3-4.3-3.2c-9.5,0.9-22,2.3-34.9,3.8c0,1.7,0.7,3.9,0.7,5.8
		c0.1,2.7-0.5,5.4-1.5,7.8c-1.7,4.4-5.7,7.5-10.4,8c-4.8,0.8-9.7-0.9-12.9-4.6c-1.7-2-2.9-4.4-3.5-7c-0.4-1.3-0.8-4.3-1.4-6.7
		c-10.7,1.3-20.3,2.4-27.1,3.3c-5.6,0.7-9.6,5.8-8.9,11.4c1.9,15.6,5.7,45.3,8.1,60.1c2.8,17.3,18.2,29.7,35.7,28.8
		c23.3-1.3,54.1-3.3,72.8-6.2c1.9-0.5,3.3-2.3,3.2-4.3c-1.7-13.7-3.6-27.4-5.7-41.1C288.1,309.9,283.8,311.8,279.2,312.2z"/>
</g>
</svg>
