<?xml version="1.0" encoding="utf-8"?>
<!-- Generator: Adobe Illustrator 26.1.0, SVG Export Plug-In . SVG Version: 6.00 Build 0)  -->
<svg version="1.1" id="레이어_1" xmlns="http://www.w3.org/2000/svg" xmlns:xlink="http://www.w3.org/1999/xlink" x="0px"
	 y="0px" viewBox="0 0 352.7 424.6" style="enable-background:new 0 0 352.7 424.6;" xml:space="preserve">
<style type="text/css">
	.st0{fill:#F87761;}
	.st1{fill:#063F58;}
	.st2{fill:#E3D6BD;}
	.st3{fill:none;stroke:#063F58;stroke-width:6;stroke-linecap:round;stroke-linejoin:round;}
</style>
<g id="theo-cotract">
	<path class="st0" d="M300.3,95.3c-5-1.3-10.1-1.6-15.2-1.1c-5.5,0.5-11.9,0.9-16.8,3.7c-0.3,0.2-0.5,0.3-0.8,0.5
		c-1.8-2.2-4.1-3.9-7.2-3.6c-4.9,0.4-7.2,5.7-8.2,9.6c-2.7,10.2-3,21.8-6.4,31.8c-4.6,13.5-9.9,27.4-14.2,41
		c-8.5-1.2-18.3-2.5-27.2-4c-3.3-9.3-6.7-18.7-10.1-28c-9.6-25.9-19.2-52.4-31.4-77.2c-4.9-10-11.7-19.2-22-24
		c-9.5-4.5-20-3.8-28.4,2.5c-10.6,7.9-17.4,21.6-24.4,32.5c-8.7,13.7-17,27.6-25,41.7C46.8,149.3,8.3,229.3,5.3,238.7
		c-3,6-5.5,12.2-5.3,18.4c0.2,10.7,9,16.6,18.6,18.6c5.3,1.1,10.6,1.8,16,2.2c-0.7,5.9-1.3,11.9-1.9,17.8c-0.5,4.9-1,9.9-1.4,14.8
		l-8.4,6.9c-3.5,2.9-7.3,5.2-8,9.9c-0.4,2.8,2,5.1,4.6,5.4c3.2,0.4,6.4,0.3,9.6-0.4c-0.9,9.4-2,18.8-1.6,28.3
		c-0.3,0.8-0.2,1.7,0.1,2.5c0.2,2.5,2.8,4.1,5.1,4.1c4.4,1.2,8.1-2.7,10.7-7.2c1.7,5.1,5,10.1,10.9,8.9c5.2-1,7.5-7.1,9.3-12.1
		c0.9,3.6,2.7,6.8,6.3,7.6c0.1,20.5,0.3,35.2,0.3,35.2s-1.1,0-1.1,0.1c-6.3,5.2-10.9,11-16,17.4c-1.3,1.7-1,4.1,0.7,5.4
		c0,0,0.1,0.1,0.1,0.1c0.5,1.2,1.7,1.9,3,1.9h121.9c1.9,0,3.4-1.5,3.4-3.3c0-0.2,0-0.4-0.1-0.7c0.1-1-0.2-2-0.9-2.7l-15.4-18
		c2.5-35.8,8.7-74.3,13.5-110.7c11-0.3,22.7-0.7,33.2-3.6c11.3-3.2,18.4-11.6,18-23.6c-0.2-6.6-1.7-13.3-3.7-19.8l0,0
		c13.2,1,26.1,2.7,36.6-7.1c8.6-8.1,12.7-20,17.3-30.5c6.3-14.5,12.6-29,18.9-43.5c2.9-6.7,5.8-13.3,8.7-19.9
		c2.7-6.2,5.8-12.4,7-19.1C317.6,109.9,312.4,98.8,300.3,95.3z"/>
	<path class="st1" d="M101.9,330.1c-0.2-1.6-1.8-2.8-3.4-2.5c0,0,0,0,0,0l-2.6,0.4c-1.5-1.8-3.8-2.7-6.1-2.3
		c-18.5,3-37.8,6.5-54.3,9.9c0-0.3,0-0.6,0.1-0.9c0.7-1.4,4.2-4.1,20-7.5c1.6-0.3,2.7-1.9,2.4-3.5s-1.9-2.7-3.5-2.4c0,0,0,0-0.1,0
		c-14.8,3.1-21.8,6.2-24.1,10.6c-0.8,1.5-1,3.2-0.7,4.8l-2.4,0.5c-2.3,0.5-4.1,2.1-4.8,4.3c-0.9,0.2-1.7,0.4-2.6,0.6
		c-1.6,0.4-2.6,2-2.3,3.6c0.3,1.4,1.5,2.4,2.9,2.4c0.2,0,0.4,0,0.6-0.1l2.1-0.5c1.2,1.7,3.2,2.8,5.4,2.8c0.5,0,0.9-0.1,1.4-0.2
		c18-3.9,40.6-8.1,62-11.5c2.6-0.4,4.7-2.3,5.3-4.8l2.1-0.3C101,333.2,102.2,331.7,101.9,330.1z"/>
	<path class="st2" d="M352.6,115.4c-0.8-4.8-2.6-28.1-6.6-55.8c-3.2-22.7-7-36.8-9.9-46.2s-5-14.2-10.7-13.3l-85.9,13
		c-3,0.5-3.9,2.7-3.9,5c0,0.7,0,1.3,0.2,2c7,29.8,10.7,59.6,15,89.4c0.3-1.7,0.7-3.5,1.2-5.1c1-4,3.4-9.2,8.2-9.6
		c4.3-0.4,7.3,3.2,9.1,6.6c4.9,9,4.2,21.3,1.7,30.7c-0.2,0.8-0.5,1.5-0.6,2.2c1.2-0.1,2.3-0.2,3.4-0.3c3.5-0.4,7-0.7,10.6-1
		c7-0.6,14.1-1.1,21.2-1.7c14-1,27.9-2.8,41.7-5.4C351.3,125.1,353.3,120.2,352.6,115.4z"/>
	<path class="st3" d="M276.5,24.5l21.1-3.2"/>
	<path class="st3" d="M257,47.3c21.5-3.3,43-6.8,64.5-10.4"/>
	<path class="st3" d="M257.8,57c12.2-1.1,24.2-3.8,36.3-5.8c10.5-1.8,21.1-3.1,31.8-3.9"/>
	<path class="st3" d="M259.9,65.4l64.7-9.1"/>
	<path class="st3" d="M262,74.6l46.7-6c7.2-0.9,14.4-1.9,21.3-3.9"/>
	<path class="st3" d="M263.6,85.1c10.8-2.2,21.7-3.8,32.6-4.9"/>
	<path class="st3" d="M302.9,110.4l27.8-4.7"/>
	<line class="st3" x1="121.9" y1="281.1" x2="118.8" y2="420.4"/>
	<path class="st3" d="M63.9,359.3c2.5,4.9,9.3,7.3,13.1,3.4s5.1-9.6,6.1-15c6.9-37.5,13-75.4,16.9-113.3"/>
	<path class="st3" d="M165.1,141.9c-3.8-4.8-10.7-5.7-15.6-2c-0.9,0.7-1.8,1.6-2.4,2.6"/>
	<path class="st3" d="M117.3,141.1c-2.7-3.7-7.9-4.4-11.6-1.7c-1,0.8-1.9,1.8-2.4,2.9"/>
	<path class="st3" d="M141.8,170.8c-4.1,3-15.3,2.6-19.3-0.5"/>
	<path class="st3" d="M272.9,135.6c3.7,2.1,7.5,4.3,10.5,7.2s5.4,6.9,5.7,11.1"/>
</g>
</svg>
